<svg width="800" height="800" viewBox="0 0 800 800" fill="none" xmlns="http://www.w3.org/2000/svg">
<rect width="800" height="800" fill="white"/>
<path d="M323.325 295.504H305.714V268.586H323.325V295.504Z" fill="#1B18AC"/>
<path d="M235.431 279.357V295.504L197.624 295.506V264.478H229.806V279.357H235.431Z" fill="#1B18AC"/>
<path d="M277.913 228.777V259.804H245.731V240.252H229.806V259.804H197.624V228.777H277.913Z" fill="#1B18AC"/>
<path d="M245.731 264.479H277.913V295.506H240.106V279.358H245.731V264.479Z" fill="#1B18AC"/>
<path d="M235.849 636.36H178.409V596.662H235.849V636.36Z" fill="#1B18AC"/>
<path d="M473.87 295.504H491.483V268.586H473.87V295.504Z" fill="#1B18AC"/>
<path d="M561.766 279.357V295.504L599.574 295.506V264.478H567.392V279.357H561.766Z" fill="#1B18AC"/>
<path d="M519.285 228.777V259.804H551.468V240.252H567.392V259.804H599.575V228.777H519.285Z" fill="#1B18AC"/>
<path d="M551.466 264.479H519.285V295.506H557.091V279.358H551.466V264.479Z" fill="#1B18AC"/>
<path d="M561.347 636.36H618.788V596.662H561.347V636.36Z" fill="#1B18AC"/>
<path d="M285.933 313.114H223.518V339.466H285.933V313.114Z" fill="#1B18AC"/>
<path d="M324.631 344.14H257.092V375.264H324.631V344.14Z" fill="#1B18AC"/>
<path d="M356.189 313.114H290.607V339.466H356.189V313.114Z" fill="#1B18AC"/>
<path d="M285.933 379.937H223.518V410.429H285.933V379.937Z" fill="#1B18AC"/>
<path d="M441.007 313.114H506.592V339.466H441.007V313.114Z" fill="#1B18AC"/>
<path d="M436.333 339.466H360.864V313.114H436.333V339.466Z" fill="#1B18AC"/>
<path d="M218.844 313.114H196.27L195.5 339.466H218.844V313.114Z" fill="#1B18AC"/>
<path d="M252.418 344.14H195.364L194.454 375.264H252.418V344.14Z" fill="#1B18AC"/>
<path d="M218.845 379.937H194.318L193.428 410.429H218.845V379.937Z" fill="#1B18AC"/>
<path d="M252.417 415.104H193.29L192.347 447.395H252.417V415.104Z" fill="#1B18AC"/>
<path d="M218.845 452.068H192.211L191.319 482.566H218.845V452.068Z" fill="#1B18AC"/>
<path d="M240.417 487.241H191.183L190.24 519.535H228.703C231.871 508.517 235.785 497.728 240.417 487.241Z" fill="#1B18AC"/>
<path d="M218.845 524.206H190.103L189.233 553.981H218.845V524.206Z" fill="#1B18AC"/>
<path d="M220.723 558.655H189.097L188.122 591.986H218.844C218.737 580.847 219.364 569.712 220.723 558.655Z" fill="#1B18AC"/>
<path d="M259.395 452.068H223.518V482.566H242.537C247.449 472.026 253.082 461.836 259.395 452.068Z" fill="#1B18AC"/>
<path d="M285.934 415.104H257.092V447.396H262.491C269.559 436.973 277.396 427.093 285.934 417.837V415.104Z" fill="#1B18AC"/>
<path d="M329.954 379.937H290.607V410.429H293.047C304.358 399.124 316.717 388.913 329.954 379.937Z" fill="#1B18AC"/>
<path d="M227.405 524.206H223.518V541.051L227.405 524.206Z" fill="#1B18AC"/>
<path d="M511.265 313.114H573.68V339.466H511.265V313.114Z" fill="#1B18AC"/>
<path d="M472.567 344.14H540.107V375.264H472.567V344.14Z" fill="#1B18AC"/>
<path d="M511.265 379.937H573.68V410.429H511.265V379.937Z" fill="#1B18AC"/>
<path d="M578.355 313.114H600.927L601.698 339.466H578.355V313.114Z" fill="#1B18AC"/>
<path d="M544.779 344.14H601.832L602.741 375.264H544.779V344.14Z" fill="#1B18AC"/>
<path d="M578.353 379.937H602.879L603.768 410.429H578.353V379.937Z" fill="#1B18AC"/>
<path d="M544.779 415.104H603.907L604.85 447.395H544.779V415.104Z" fill="#1B18AC"/>
<path d="M578.353 452.068H604.985L605.876 482.566H578.353V452.068Z" fill="#1B18AC"/>
<path d="M556.782 487.241H606.013L606.957 519.535H568.495C565.326 508.517 561.411 497.728 556.782 487.241Z" fill="#1B18AC"/>
<path d="M578.353 524.206H607.094L607.966 553.981H578.353V524.206Z" fill="#1B18AC"/>
<path d="M537.801 452.068H573.68L573.678 482.566H554.659C549.747 472.026 544.116 461.836 537.801 452.068Z" fill="#1B18AC"/>
<path d="M511.265 415.104H540.107V447.396H534.708C527.64 436.973 519.803 427.093 511.265 417.837V415.104Z" fill="#1B18AC"/>
<path d="M467.243 379.937H506.593V410.429H504.153C492.84 399.124 480.481 388.913 467.243 379.937Z" fill="#1B18AC"/>
<path d="M569.791 524.206H573.68V541.051L569.791 524.206Z" fill="#1B18AC"/>
<path d="M576.474 558.655H608.101L609.076 591.986H578.355C578.46 580.847 577.832 569.712 576.474 558.655Z" fill="#1B18AC"/>
<path d="M460.094 375.264C440.943 363.201 420.26 353.758 398.599 347.187C376.937 353.755 356.256 363.199 337.104 375.264H329.307V344.14H467.893V375.264H460.094Z" fill="#1B18AC"/>
<path d="M230.963 591.99C229.89 486.231 297.862 392.115 398.599 359.877C499.337 392.115 567.308 486.228 566.236 591.987H573.68C574.758 482.113 503.572 384.565 398.599 352.075C293.626 384.565 222.438 482.113 223.52 591.99H230.963Z" fill="#1B18AC"/>
<path d="M595.04 184.408H612.652L612.653 224.106H506.208V184.408H523.819V208.06H550.624V184.408H568.237V208.06H595.04V184.408Z" fill="#1B18AC"/>
<path d="M613.855 300.208L611.691 308.41H185.507L183.342 300.208H613.855Z" fill="#1B18AC"/>
<path d="M429.114 258.676H368.083V224.185H390.636V243.668H406.56V224.185H429.114V258.676Z" fill="#1B18AC"/>
<path d="M442.273 224.184H433.788V258.675H442.273V224.184Z" fill="#1B18AC"/>
<path d="M442.273 219.511H406.56V204.563H400.936V189.692H442.273V219.511Z" fill="#1B18AC"/>
<path d="M442.273 295.504H400.936V263.348H442.273V295.504Z" fill="#1B18AC"/>
<path d="M389.793 145.321H407.401V168.973H434.896V145.321H454.157V185.019H343.039V145.321H362.3V168.973H389.793V145.321Z" fill="#1B18AC"/>
<path d="M354.926 224.184H363.409V258.675H354.926V224.184Z" fill="#1B18AC"/>
<path d="M354.926 219.511H390.636V204.563H396.262V189.692H354.926V219.511Z" fill="#1B18AC"/>
<path d="M354.926 295.504H396.262V263.348H354.926V295.504Z" fill="#1B18AC"/>
<path d="M202.158 184.408H184.547V224.106H290.99V184.408H273.379V208.06H246.574V184.408H228.963V208.06H202.158V184.408Z" fill="#1B18AC"/>
<path d="M473.413 431.815C469.297 429.266 464.149 426.26 458.329 432.951C457.067 434.533 457.174 436.704 457.29 439.068C457.403 441.373 457.526 443.862 456.396 446.165C456.858 445.859 457.335 445.59 457.813 445.32C460.218 443.961 462.637 442.594 463.135 436.553C464.127 442.755 465.939 448.63 470.745 454.909C470.677 454.188 470.622 453.47 470.566 452.752C470.305 449.363 470.044 445.975 468.474 442.295C473.267 448.343 480.265 452.669 487.697 455.843C486.537 454.46 485.676 453.178 484.794 451.866C482.723 448.784 480.541 445.536 474.121 440.423C482.951 443.951 488.476 444.222 493.971 441.827C486.434 440.742 479.711 436.983 473.413 431.815Z" fill="#1B18AC"/>
<path d="M456.364 429.356C455.488 430.13 455.257 430.334 454.545 431.774C449.198 428.955 433.538 431.176 439.035 446.371C445.468 460.734 459.383 466.051 473.525 471.455C475.846 472.342 478.174 473.231 480.475 474.163C479.265 474.62 478.263 475.778 477.469 476.696C477.196 477.011 476.948 477.298 476.725 477.518C475.438 477.002 474.115 476.482 472.765 475.953C458.03 470.167 440.229 463.177 434.715 447.117C430.566 428.305 446.676 424.874 456.501 429.235L456.364 429.356Z" fill="#1B18AC"/>
<path d="M489.778 481.393C488.395 480.123 487.36 478.736 486.739 477.212C481.568 477.528 477.006 481.215 474.003 485.101C476.181 484.864 477.511 485.201 478.849 485.54C480.252 485.895 481.666 486.254 484.078 485.956C484.243 485.744 484.405 485.532 484.565 485.322C485.87 483.609 487.091 482.005 489.778 481.393Z" fill="#1B18AC"/>
<path d="M498.341 477.249C494.682 474.337 490.871 471.304 491.613 466.104C485.904 470.537 488.827 478.66 495.51 480.816C498.001 480.447 499.609 480.674 502.608 481.107C501.463 479.735 499.916 478.503 498.341 477.249Z" fill="#1B18AC"/>
<path d="M488.704 494.942C485.141 487.013 490.347 481.135 505.078 483.769C501.242 488.982 498.591 489.074 494.257 489.225C494.004 489.234 493.744 489.243 493.479 489.253C491.274 489.337 490.621 490.958 489.962 492.59C489.618 493.443 489.273 494.3 488.704 494.942Z" fill="#1B18AC"/>
<path fill-rule="evenodd" clip-rule="evenodd" d="M455.124 555.65C455.555 555.182 455.988 554.714 456.424 554.241C468 557.959 479.057 576.482 477.328 585.904C476.46 591.412 476.138 596.859 481.597 601.523C482.689 603.449 483.689 605.361 482.264 607.289C471.554 609.93 463.427 618.668 457.437 632.456C459.681 632.57 461.294 630.701 462.745 629.019C464.416 627.082 465.874 625.392 467.836 627.259C468.1 627.837 468.502 628.432 468.923 629.054C470.374 631.203 472.044 633.675 469.009 636.888C467.531 636.77 466.442 637.042 465.374 637.308C463.379 637.806 461.454 638.287 457.193 636.181C456.252 637.307 456.023 638.965 455.8 640.572C455.397 643.486 455.017 646.232 450.456 645.324C444.182 644.123 446.168 640.278 448.076 636.586C448.772 635.238 449.458 633.911 449.728 632.74C445.132 634.023 443.082 637.144 441.496 639.559C439.468 642.645 438.198 644.578 433.342 640.044C429.737 636.267 430.878 634.813 432.432 633.007C433.833 631.377 436.557 630.753 438.559 630.294C438.87 630.223 439.163 630.156 439.431 630.089C437.25 627.815 433.603 628.676 429.998 630.527C428.608 631.241 427.289 629.886 427.087 627.62C425.925 617.72 436.379 619.923 447.301 625.677C454.51 619.824 458.194 612.894 461.18 606.621C458.225 601.884 453.182 598.549 448.134 595.21C447.04 594.487 445.945 593.763 444.872 593.025C433.419 583.239 438.22 576.085 442.294 570.013C442.474 569.744 442.653 569.478 442.829 569.213C447.953 563.415 451.5 559.574 455.124 555.65ZM472.934 581.716C470.829 594.367 473.855 599.168 478.094 602.938C466.541 599.078 462.618 592.286 472.934 581.716Z" fill="#1B18AC"/>
<path d="M354.305 596.513C357.327 593.714 360.73 590.113 362.909 586.895C366.817 589.423 369.646 592.6 371.41 596.418C367.272 595.871 363.056 596.107 359.306 596.317C357.512 596.418 355.826 596.513 354.305 596.513Z" fill="#1B18AC"/>
<path d="M359.093 601.146C356.173 600.57 353.323 600.009 350.97 598.958L345.8 602.895C352.911 604.974 357.729 603.94 362.235 602.974C363.107 602.787 363.967 602.602 364.83 602.443C362.968 601.909 361.015 601.524 359.093 601.146Z" fill="#1B18AC"/>
<path d="M308.754 566.832C308.183 560.031 307.852 554.244 309.705 547.81C299.886 552.567 287.557 555.584 275.511 556.634C269.861 557.532 268.387 554.138 266.842 550.581C266.544 549.895 266.244 549.203 265.91 548.534C265.289 547.289 264.981 545.766 264.69 544.322C264.012 540.969 263.42 538.038 259.188 539.973C253.802 543.913 256.008 545.485 258.475 547.243C260.147 548.435 261.94 549.713 261.569 551.872C260.22 551.643 258.687 550.691 257.138 549.729C253.611 547.539 250.004 545.299 248.306 551.434C248.065 557.781 251.534 557.614 254.99 557.448C256.355 557.382 257.717 557.316 258.849 557.652C257.922 558.555 256.578 559.179 255.226 559.807C251.81 561.394 248.336 563.007 251.368 569.215C254.471 572.163 257.574 569.936 260.677 567.708C262.108 566.681 263.539 565.654 264.97 565.134C265.311 566.576 265.082 567.859 264.862 569.089C264.426 571.535 264.027 573.773 268.208 576.638C272.756 578.014 273.804 576.971 275.202 575.581C275.503 575.282 275.82 574.966 276.192 574.655C278.96 576.157 280.069 578.229 281.082 580.122C281.638 581.161 282.165 582.146 282.922 582.953C286.37 577.883 281.115 569.015 275.355 566.227C275.817 565.378 276.378 565.145 277.541 565.207C290.678 569.273 299.739 568.264 308.754 566.832Z" fill="#1B18AC"/>
<path d="M473.421 617.103C470.707 616.914 467.251 622.455 467.951 623.858C472.524 621.924 477.098 622.481 481.672 623.039L481.786 623.053C481.786 623.053 476.395 617.309 473.421 617.103Z" fill="#1B18AC"/>
<path d="M477.742 613.512C477.117 614.08 476.527 614.618 475.994 615.01C476.535 615.019 477.085 615.019 477.641 615.019C480.413 615.02 483.308 615.021 485.645 616.136C485.314 615.609 485.126 615.106 484.937 614.604C484.486 613.4 484.034 612.196 481.624 610.667C480.317 611.168 478.964 612.4 477.742 613.512Z" fill="#1B18AC"/>
<path d="M434.613 644.77C432.856 643.593 431.521 642.7 430.61 640.902C429.785 643.669 429.462 645.441 430.186 648.365C431.442 646.509 432.843 645.711 434.879 644.948L434.613 644.77Z" fill="#1B18AC"/>
<path d="M452.123 648.774C449.78 648.746 447.932 647.739 446.714 646.77C446.036 649.299 448.449 651.932 450.199 653.842C450.334 653.989 450.465 654.132 450.59 654.271C450.687 651.714 450.81 650.862 452.123 648.774Z" fill="#1B18AC"/>
<path d="M424.484 626.367C424.558 626.046 424.644 625.673 424.73 625.21C424.306 625.335 423.933 625.432 423.597 625.52C421.753 626.001 421.03 626.19 419.132 628.997C421.51 628.629 422.341 628.675 424.875 629.853C424.096 628.054 424.198 627.61 424.484 626.367Z" fill="#1B18AC"/>
<path d="M469.661 639.511C469.493 638.897 465.214 639.49 464.218 640.681C464.341 642.477 465.509 644.269 467.028 646.063C469.027 643.973 469.516 641.757 469.661 639.511Z" fill="#1B18AC"/>
<path fill-rule="evenodd" clip-rule="evenodd" d="M508.05 487.986C509.145 485.97 509.223 485.825 509.32 484.907C520.449 489.427 528.389 492.983 538.008 500.184C548.486 508.033 556.321 535.058 514.902 531.016C518.352 534.049 521.951 537.324 525.04 542.649C520.86 544.094 515.896 542.049 510.84 533.901C510.843 533.964 510.818 534.078 510.786 534.232C510.673 534.764 510.457 535.776 510.913 536.843C514.193 544.537 513.885 552.147 513.597 559.243C513.428 563.429 513.265 567.435 513.851 571.176C513.969 571.926 514.075 572.67 514.18 573.409C515.443 582.274 516.586 590.299 535.965 596.686C537.747 597.362 539.493 598.074 539.363 600.427C535.784 607.721 537.263 614.106 543.469 619.486C541.732 611.906 541.519 604.959 542.843 598.06C541.755 593.123 539.254 592.083 536.105 591.949C516.418 588.295 516.538 570.207 516.65 553.298C516.671 550.108 516.692 546.96 516.58 543.959C516.999 544.246 517.425 544.524 517.854 544.803C520.598 546.588 523.496 548.474 525.624 553.67C525.143 553.575 524.667 553.332 524.145 553.066C522.854 552.409 521.28 551.608 518.644 552.517C519.236 553.579 520.014 554.469 520.858 555.434C522.405 557.202 524.173 559.224 525.424 563.017C522.414 561.142 520.922 560.782 519.981 560.974C520.132 576.767 523.637 592.074 543.793 588.528C543.793 590.338 543.69 591.4 543.354 594.228C545.176 595.286 546.67 594.998 547.962 594.748C548.641 594.617 549.264 594.496 549.849 594.589C549.266 596.092 547.862 599.534 545.154 599.756C545.684 603.13 547.88 603.714 551.662 604.72C552.42 604.921 553.241 605.14 554.126 605.401C552.778 608.311 547.737 610.011 544.923 609.206C545.157 612.191 545.977 614.335 546.817 616.528C548.253 620.28 549.745 624.176 548.444 632.674C547.542 632.591 546.678 632.476 545.861 632.367C542.606 631.933 540.112 631.601 539.016 633.766C539.008 634.564 539.061 635.402 539.115 636.24C539.325 639.543 539.536 642.838 535.961 643.619C529.372 644.515 529.955 640.267 530.539 636.015C530.727 634.642 530.916 633.268 530.863 632.068C528.587 633.496 527.244 636.635 525.992 639.561C524.008 644.2 522.251 648.306 517.367 644.226C511.654 639.208 515.452 636.855 518.872 634.738C519.947 634.073 520.985 633.43 521.677 632.735C517.511 631.799 515.539 633.572 513.871 635.07C512.052 636.705 510.596 638.014 507.05 635.122C505.499 631.05 505.431 627.386 520.991 627.981C535.014 627.833 529.664 618.739 524.318 609.652C524.139 609.348 523.96 609.044 523.782 608.74C517.038 605.023 511.975 603.533 507.632 602.255C496.251 598.906 489.812 597.012 470.995 560.285C463.76 548.705 448.961 545.398 427.112 558.161C421.471 562.838 401.362 573.061 398.038 574.428C399.522 574.834 402.631 580.012 402.631 580.012C398.661 578.795 394.682 578.352 390.714 578.312C389.916 581.363 390.908 584.026 392.758 586.488C383.38 587.004 373.413 586.365 364.331 585.112C366.525 582.456 368.018 580.008 368.862 577.646C385.892 579.247 401.374 570.985 414.872 557.576C412.731 558.801 410.61 560.071 408.489 561.34C396.683 568.406 384.879 575.47 369.631 574.915C370.703 571.286 369.799 567.658 367.931 564.029C368.346 584.087 344.695 601.464 325.098 614.71C330.237 614.508 335.463 611.015 340.841 607.42C341.893 606.717 342.951 606.01 344.015 605.323C345.203 607.698 347.778 610.688 351.603 613.353C347.649 613.593 344.21 613.053 340.775 612.513C340.412 612.456 340.049 612.399 339.686 612.343C335.188 617.617 329.944 619.621 324.694 621.628C323.911 621.928 323.127 622.227 322.346 622.538C322.371 623.479 322.467 624.457 322.562 625.426C322.926 629.121 323.275 632.673 319.615 633.422C317.284 634.496 316.326 632.995 315.239 631.29C314.519 630.161 313.742 628.944 312.472 628.325C311.884 629.51 311.451 630.96 311.018 632.41C309.838 636.367 308.658 640.32 304.319 638.867C298.616 635.566 300.224 632.986 301.97 630.185C303.074 628.412 304.234 626.551 303.63 624.362C299.274 625.759 297.405 629.304 295.791 632.365C293.662 636.404 291.974 639.604 285.603 635.934C283.241 632.33 284.109 630.666 285.085 628.795C285.141 628.688 285.197 628.58 285.253 628.471C286.632 625.79 289.664 625.081 292.394 624.443C293.819 624.109 295.162 623.795 296.145 623.23C293.037 622.072 287.778 622.405 284.412 625.062C282.332 626.704 279.976 624.588 280.504 621.529C281.298 615.297 287.056 616.2 292.813 617.102C295.688 617.552 298.562 618.003 300.817 617.564C309.901 612.987 313.245 607.798 316.564 602.648C318.701 599.333 320.827 596.033 324.469 592.922C333.768 584.979 337.014 579.604 339.381 567.895C343.201 568.789 348.154 568.994 352.27 568.118C349.445 559.164 350.329 554.675 350.945 551.548C351.073 550.899 351.189 550.308 351.258 549.749C353.363 553.196 355.946 556.238 360.101 557.924C362.491 549.594 366.656 541.695 376.084 535.123V542.609C387.299 537.345 395.22 528.474 400.242 516.427C402.608 520.658 407.324 523.367 412.346 523.47C412.178 522.682 411.953 521.942 411.735 521.225C411.114 519.178 410.548 517.316 411.505 515.053C414.884 517.289 419.689 520.293 425.272 520.05C424.551 518.854 423.989 518.063 423.512 517.392C422.799 516.39 422.278 515.657 421.708 514.244C469.724 505.119 501.877 518.165 516.606 524.38C533.881 531.484 551.268 517.907 535.371 503.967C525.874 496.996 519.278 494.048 507.559 488.894C507.742 488.554 507.905 488.254 508.05 487.986ZM484.215 568.413C484.036 551.808 473.798 536.544 462.879 536.802C462.519 536.81 462.167 536.828 461.804 536.864C463.703 538.769 465.088 540.017 466.229 541.046C470.636 545.017 471.423 545.727 484.215 568.413ZM393.465 563.48C400.283 559.839 407.405 554.338 399.852 544.308C399.952 552.617 397.791 556.231 394.623 561.529C394.25 562.153 393.863 562.799 393.465 563.48ZM409.08 544.651C413.157 547.406 413.276 558.911 404.914 559.864C407.844 555.329 409.295 549.187 409.08 544.651ZM382.868 567.316C390.248 564.326 395.738 557.353 390.535 548.949C390.209 554.466 386.619 560.517 384.467 564.143C383.48 565.805 382.797 566.958 382.868 567.316Z" fill="#1B18AC"/>
<path d="M292.153 570.933C289.096 570.618 286.464 570.346 283.608 569.666C285.966 573.817 288.639 578.44 294.109 582.408C293.272 577.717 292.923 574.29 293.568 571.08C293.085 571.029 292.615 570.981 292.153 570.933Z" fill="#1B18AC"/>
<path d="M308.055 570.505C303.966 570.974 300.072 571.056 296.249 571C298.193 573.818 300.879 575.296 304.314 576.625C304.777 574.464 306.047 572.947 307.153 571.623C307.476 571.237 307.785 570.868 308.055 570.505Z" fill="#1B18AC"/>
<path d="M307.431 578.617C306.898 577.805 312.13 570.139 314.603 569.702C315.733 572.286 316.003 575.177 315.557 577.765C315.189 577.844 314.833 577.922 314.489 577.997C311.883 578.569 309.889 579.006 307.431 578.617Z" fill="#1B18AC"/>
<path d="M363.95 526.269C365.442 522.318 367.482 518.364 371.323 516.762C371.14 517.542 370.989 518.229 370.855 518.838C369.843 523.443 369.81 523.594 363.95 526.269Z" fill="#1B18AC"/>
<path d="M507.716 638.143C505.932 636.895 504.294 635.496 503.386 633.368C501.88 634.6 500.972 636.431 500.944 639.142L507.716 638.143Z" fill="#1B18AC"/>
<path d="M518.733 647.801C517.577 647.3 515.967 646.601 515.045 645.803C514.5 647.66 514.735 649.776 514.97 651.893C514.993 652.099 515.016 652.305 515.038 652.512C515.014 652.553 515.015 652.576 515.045 652.576C515.042 652.555 515.04 652.533 515.038 652.512C515.314 652.029 518.916 648.988 520.042 648.579C520.306 648.483 519.668 648.206 518.733 647.801Z" fill="#1B18AC"/>
<path d="M538.252 645.472C536.797 645.857 535.331 646.218 533.588 646.025C533.884 647.906 535.147 649.399 536.92 650.69L538.252 645.472Z" fill="#1B18AC"/>
<path d="M546.629 634.343C544.959 634.443 543.287 634.543 542.844 635.671C544.253 636.956 545.507 638.471 546.684 640.106C548.463 637.993 548.003 636.136 547.436 634.29C547.171 634.311 546.9 634.327 546.629 634.343Z" fill="#1B18AC"/>
<path d="M278.814 623.889C278.465 622.674 278.201 621.756 278.545 620.08C276.112 620.856 275.57 621.997 274.599 624.042C274.457 624.343 274.305 624.663 274.136 625.004C274.721 624.968 275.218 624.908 275.679 624.852C276.789 624.717 277.686 624.608 279.098 624.931C279.004 624.55 278.906 624.21 278.814 623.889Z" fill="#1B18AC"/>
<path d="M285.998 639.118C284.692 638.488 283.806 638.06 283.021 636.548C281.565 637.848 281.53 640.444 281.836 642.916C283.71 641.367 285.364 640.253 286.944 639.587C286.605 639.411 286.291 639.259 285.998 639.118Z" fill="#1B18AC"/>
<path d="M304.109 641.246C303.616 641.086 303.093 640.917 302.489 640.772C302.767 642.881 304.171 644.398 306.226 646.509L308.192 641.731C306.436 641.999 305.368 641.653 304.109 641.246Z" fill="#1B18AC"/>
<path d="M318.289 636.723C318.036 636.633 317.759 636.535 317.442 636.441L320.553 641.772C322.577 639.318 322.958 638.069 322.617 635.319C320.31 637.437 319.681 637.215 318.289 636.723Z" fill="#1B18AC"/>
<path d="M416.685 484.742C416.636 483.931 416.586 483.099 416.524 482.24C413.482 488.098 412.271 502.797 422.229 502.56C417.337 495.616 417.044 490.719 416.685 484.742Z" fill="#1B18AC"/>
<path d="M407.343 517.669C398.05 509.301 400.554 500.012 410.614 494.464C410.776 495.218 410.931 495.97 411.087 496.727C412.1 501.65 413.143 506.716 416.301 512.965C412.013 513.568 410.709 510.894 409.718 507.814C406.572 510.616 406.927 513.861 407.284 517.121C407.304 517.304 407.324 517.486 407.343 517.669Z" fill="#1B18AC"/>
<path d="M349.776 451.21L346.588 450.877L346.356 455.964L349.125 456.278C349.583 455.443 349.65 453.938 349.719 452.369C349.736 451.984 349.753 451.594 349.776 451.21Z" fill="#1B18AC"/>
<path d="M366.886 434.293C363.964 433.965 362.523 427.997 368.744 429.76C368.193 430.5 368 431.802 368.327 432.629L366.886 434.293Z" fill="#1B18AC"/>
<path d="M370.995 433.675C373.433 433.832 373.577 432.171 373.555 430.987L375.969 431.756C375.714 434.244 373.852 438.689 367.755 437.518C368.966 435.852 369.935 434.816 370.557 434.152C370.731 433.966 370.878 433.808 370.995 433.675Z" fill="#1B18AC"/>
<path d="M259.02 535.757C257.927 536.313 256.834 536.869 255.742 538.391L253.453 533.812C255.548 534.013 257.642 534.228 259.463 535.529C259.315 535.606 259.168 535.682 259.02 535.757Z" fill="#1B18AC"/>
<path d="M246.452 548.493C246.629 548.101 246.811 547.699 246.95 547.248C246.569 547.348 246.218 547.432 245.888 547.51C244.337 547.881 243.257 548.138 241.759 549.449C242.798 550.878 243.548 551.585 245.981 551.96C245.574 550.434 245.998 549.498 246.452 548.493Z" fill="#1B18AC"/>
<path d="M250.414 571.295C249.765 570.754 249.014 570.128 248.27 568.279C247.992 568.564 247.732 568.809 247.493 569.036C246.379 570.088 245.698 570.732 245.519 573.176C247.651 573.66 248.781 573.106 249.975 572.521C250.349 572.337 250.729 572.15 251.149 571.992C250.926 571.722 250.678 571.516 250.414 571.295Z" fill="#1B18AC"/>
<path d="M268.864 580.66C266.063 579.963 265.692 579.664 264.54 578.143C263.34 580.108 263.928 581.682 264.632 583.57C264.714 583.787 264.797 584.009 264.878 584.237C266.126 584.143 266.966 583.044 267.813 581.935C268.153 581.49 268.494 581.044 268.864 580.66Z" fill="#1B18AC"/>
<path fill-rule="evenodd" clip-rule="evenodd" d="M386.682 428.22C390.868 423.433 395.687 419.366 403.172 418.245C404.748 420.646 409.628 432.813 401.874 436.093C402.758 432.082 402.42 428.071 402.081 424.059C402.031 423.465 401.981 422.87 401.935 422.276C393.993 425.067 392.242 427.856 390.49 430.646C389.748 431.828 389.006 433.01 387.793 434.192C387.951 434.53 389.203 433.415 390.782 432.008C393.224 429.832 396.45 426.959 397.626 427.677C399.111 428.581 401.597 440.882 397.343 441.698C401.313 440.948 405.081 438.461 409.422 433.645C411.807 434.988 413.028 437.215 414.548 439.99C416.553 443.649 419.08 448.26 425.486 453.048C421.013 454.64 413.255 453.414 407.198 442.79C407.618 449.809 410.118 453.397 418.003 459.38C420.202 461.048 420.748 463.52 421.501 466.937C422.393 470.981 423.576 476.349 428.141 483.273C420.829 483.722 414.929 474.334 407.253 462.121L406.776 461.362C405.043 466.175 402.203 469.684 399.175 473.425C395.532 477.927 391.616 482.765 389.03 490.616C387.729 486.639 388.399 483.225 389.07 479.813C389.332 478.481 389.594 477.15 389.738 475.786C389.094 476.967 388.304 478.042 387.515 479.116C385.323 482.099 383.133 485.08 384.054 490.33C387.399 502.045 382.837 506.852 374.483 510.301C374.883 508.487 375.457 506.615 376.021 504.775C377.257 500.743 378.445 496.863 377.659 494.075C372.051 503.301 364.612 510.685 354.938 515.844C360.325 508.419 365.461 501.123 366.855 495.876C355.815 502.596 348.959 511.665 350.507 525.474L369.869 512.444L369.803 512.507C363.793 518.247 357.783 523.986 360.401 540.344C364.502 530.581 369.516 527.465 372.09 525.864C372.305 525.731 372.503 525.608 372.682 525.493C372.275 534.014 367.733 538.093 363.429 541.958C360.256 544.808 357.211 547.542 356.05 551.855C353.45 548.478 351.921 545.76 350.001 540.344C345.281 546.487 345.737 551.617 346.221 557.07C346.419 559.294 346.621 561.572 346.479 563.995C342.19 562.229 339.02 559.591 338.123 556.469L335.635 565.675C331.712 558.433 335.519 549.495 345.852 537.411C345.411 537.709 344.964 538.007 344.512 538.308C338.534 542.292 331.846 546.75 330.961 557.501C327.695 556.312 325.913 553.11 325.336 548.195C332 546.288 337.075 539.47 341.705 530.11C338.322 534.171 335.735 535.881 333.3 537.492C331.259 538.841 329.325 540.12 327.118 542.653C327.161 537.26 328.466 531.678 333.875 525.617C330.793 528.209 327.705 529.245 324.621 530.28C323.962 530.501 323.304 530.722 322.646 530.958C324.418 526.102 328.606 522.605 332.668 519.213C334.253 517.89 335.818 516.583 337.213 515.218C336.538 515.378 335.757 515.488 334.897 515.609C329.403 516.384 320.708 517.611 315.868 535.226C318.017 535.695 320.166 535.127 322.314 534.56C322.438 534.527 322.561 534.494 322.685 534.462L319.186 548.539L323.799 548.277C323.1 559.139 326.633 566.427 334.806 569.783L328.15 584.874C328.679 575.047 327.833 566.593 322.262 562.863L322.294 563.425C322.673 570.016 323.101 577.456 319.47 581.981C319.611 578.213 319.138 574.463 318.666 570.715C318.155 566.654 317.644 562.593 317.912 558.512L313.561 564.399C311.739 555.526 313.461 547.939 317.093 539.065C312.354 540.366 309.469 539.935 306.965 538.414C312.711 535.104 314.407 530.167 316.205 524.932C318.702 517.662 321.397 509.817 335.413 504.96L334.665 511.677C339.224 512.782 344.11 512.301 349.779 510.624C350.31 504.502 352.513 499.693 355.201 496.3C350.944 501.441 346.611 506.013 341.625 506.416C343.77 501.841 345.865 497.273 344.397 492.699C337.858 499.153 331.128 504.676 322.768 502.389C325.713 501.257 327.537 499.504 329.445 497.67C333.491 493.779 337.918 489.523 354.23 490.049C353.02 487.194 350.441 486.854 347.828 486.509C345.457 486.195 343.057 485.879 341.625 483.676C349.42 481.095 355.544 477.667 358.539 471.759C364.637 471.698 367.993 468.822 371.83 465.535C374.572 463.185 377.559 460.625 381.969 458.732C392.549 454.189 387.816 440.576 382.656 437.934C384.318 451.069 379.429 458.279 374.482 459.704C374.545 456.397 373.885 454.16 373.228 451.935C372.173 463.772 364.54 467.614 352.853 468.504C351.983 468.493 351.216 468.461 350.522 468.432C348.463 468.347 347.056 468.288 345.568 468.86C342.507 466.672 342.538 461.352 344.173 457.417C345.552 457.51 346.913 457.883 348.33 458.27C351.67 459.185 355.312 460.182 360.196 457.784C360.194 458.009 360.228 458.319 360.267 458.663C360.418 460.007 360.628 461.876 358.901 461.304C356.708 461.604 356.786 461.978 357.042 463.21C357.074 463.363 357.109 463.529 357.142 463.709C365.403 467.564 376.032 448.514 353.904 445.906C353.908 446.351 353.95 446.729 353.985 447.055C354.086 447.976 354.142 448.485 353.176 448.941C351.751 449.613 347.887 449.46 345.023 448.82C339.389 442.792 339.979 436.968 348.969 434.878C349.477 432.372 348.566 432.417 347.657 432.461C347.33 432.476 347.004 432.492 346.743 432.39C344.479 433.227 342.23 434.591 339.966 436.536C337.062 437.35 337.486 435.151 338.144 434.049C344.675 427.952 350.584 426.423 361.7 425.942C360.897 431.366 361.7 435.47 364.737 436.87C363.616 438.34 362.847 439.789 362.735 442.521C363.871 441.409 364.84 440.828 365.7 440.312C366.035 440.111 366.353 439.92 366.658 439.712C373.26 443.005 380.85 438.037 377.259 429.265C374.694 429.985 371.95 428.918 371.254 426.866C369.59 426.251 367.838 426.312 365.54 426.743C364.912 425.633 364.504 424.751 366.366 423.641C370.64 421.484 376.153 421.243 381.604 421.006C383.268 420.933 384.926 420.861 386.541 420.734C388.189 423.415 387.596 425.539 386.682 428.22ZM395.686 449.988C404.643 458.612 403.895 462.626 391.679 472.324C395.676 465.178 398.49 457.893 395.686 449.988ZM360.765 494.354C378.142 488.916 385.611 474.42 385.387 462.592C384.683 463.878 383.967 465.247 383.233 466.652C379.333 474.111 374.909 482.575 368.858 484.886C368.156 480.426 371.536 475.485 373.766 472.226C373.851 472.101 373.936 471.978 374.018 471.857C367.283 475.713 361.165 483.098 360.765 494.354Z" fill="#1B18AC"/>
<path d="M409.539 474.846C400.412 481.131 400.898 489.939 401.92 495.244C408.286 490.326 412.979 483.085 409.539 474.846Z" fill="#1B18AC"/>
<path d="M386.826 513.786C387.002 505.813 387.258 494.296 401.135 477.203C398.995 484.664 397.564 490.756 397.98 498.546C398.675 511.553 395.36 523.519 380.785 535.301C372.99 521.571 375.952 518.085 378.915 514.599C379.796 513.561 380.677 512.524 381.275 511.217C381.4 511.81 381.534 512.397 381.667 512.983C382.523 516.754 383.38 520.526 382.013 525.963C386.618 523.162 386.703 519.331 386.826 513.786Z" fill="#1B18AC"/>
</svg>
