<svg width="800" height="800" viewBox="0 0 800 800" fill="none" xmlns="http://www.w3.org/2000/svg">
<rect width="800" height="800" fill="white"/>
<path d="M357.273 504.283L378.614 494.421C384.268 491.374 389.762 489.129 395.098 488.087H295.558C300.445 490.658 305.132 494.17 309.924 497.761C310.364 498.091 310.804 498.421 311.246 498.751C323.19 507.891 332.189 512.221 345.328 508.854C348.911 507.891 352.813 506.448 357.273 504.283Z" fill="#1B18AC"/>
<path d="M459.917 509.094C472.499 512.061 481.338 507.731 493.044 498.671C493.778 498.134 494.508 497.595 495.236 497.058C499.727 493.746 504.141 490.491 508.732 488.007H411.024C416.279 489.049 421.615 491.214 427.269 494.341L447.017 504.203C451.875 506.528 456.015 508.132 459.917 509.094Z" fill="#1B18AC"/>
<path fill-rule="evenodd" clip-rule="evenodd" d="M568.535 450.402V447.596H568.614V408.95H231.614V450.402C231.614 545.416 307.264 622.95 400.114 622.95C492.805 622.95 568.535 545.416 568.535 450.402ZM522.747 484.559C527.524 484.559 532.223 486.002 536.284 489.53C554.679 507.891 528.002 531.545 517.093 512.622C513.509 505.085 521.632 499.312 529.595 502.119C530.232 493.78 519.243 492.818 514.385 496.987L503.237 507.09L493.442 516.391C480.542 526.654 470.11 530.582 459.917 529.38C450.68 528.257 441.682 522.965 431.091 514.226C425.517 509.094 420.898 505.727 416.041 503.722L457.21 558.886L459.758 551.028L460.793 547.901L463.501 547.5C463.899 560.89 467.084 572.276 473.136 583.742L471.783 584.784C467.881 581.015 463.819 577.888 459.679 575.162C453.627 571.394 447.256 568.427 440.249 565.701L441.204 563.135L452.751 562.494L407.361 501.958C406.326 501.958 405.211 501.958 404.175 502.119V586.949L413.731 580.294L416.041 581.657C409.272 592.882 404.414 603.305 402.264 616.535H400.672C398.761 603.706 394.62 592.561 386.975 581.657L389.364 580.294L398.761 586.788V502.038C397.407 502.038 396.212 502.038 395.018 502.199L349.787 562.574L361.175 563.216L362.289 565.781C356.158 568.026 350.504 570.592 345.248 573.719C340.152 576.686 335.294 580.214 330.596 584.784L329.242 583.742C335.294 572.196 338.718 560.89 338.957 547.5L341.744 547.901L345.248 558.565L345.408 558.806L385.781 504.764C381.799 506.769 377.738 510.056 373.199 514.226C363.006 522.564 354.087 527.856 345.248 529.219C334.817 530.823 324.066 526.894 310.768 516.391L300.973 507.09L290.382 496.666C285.127 492.978 274.058 494.902 274.695 502.038C282.101 499.553 289.984 503.482 287.038 511.74C276.208 530.823 249.611 507.811 268.006 489.45C272.147 485.842 277.163 484.319 282.101 484.479H394.699L375.747 459.222L366.908 458.18L361.015 450.322H368.899L367.943 448.959L359.662 448.398L354.804 441.903L361.652 440.46L360.458 439.017L353.052 439.658L346.921 431.4H358.069L361.573 420.014L367.704 428.273L365.793 434.767L366.589 435.73L369.297 430.438L374.234 437.093L373.278 444.79L374.234 446.153L375.588 438.857L381.481 446.714L380.286 455.935L398.92 480.791V460.505L392.629 454.011V443.988L397.885 448.959V447.356L392.629 441.663V433.485L397.885 436.05V434.687L392.629 430.758V420.335L401.866 427.231L410.705 420.335V430.758L404.414 434.687V436.692L410.705 433.485V441.743L404.414 447.436V449.039L410.705 444.068V454.091L404.414 460.425V480.31L422.65 456.015L421.455 446.794L427.269 438.937L428.622 446.233L429.578 444.87L428.782 437.173L433.639 430.518L436.426 435.81L437.063 434.848L435.152 428.353L441.363 420.095L444.867 431.48H456.016L449.804 439.739L442.399 439.097L441.363 440.54L448.212 441.984L443.275 448.478L434.913 449.039L433.958 450.402H441.841L435.948 458.26L427.189 459.302L408.237 484.559H522.747Z" fill="#1B18AC"/>
<path d="M276.898 492.95C262.752 496.464 263.551 515.551 277.138 514.513C287.607 512.995 279.455 501.575 276.338 510.44C264.91 510.44 270.344 495.825 276.898 492.95Z" fill="#1B18AC"/>
<path d="M526.331 492.95C540.477 496.464 539.678 515.551 526.091 514.513C515.621 512.995 523.134 502.134 527.05 510.44C538.319 510.44 532.964 495.825 526.331 492.95Z" fill="#1B18AC"/>
<path d="M368.727 512.995C351.784 526.971 334.761 530.246 315.42 515.95C339.236 525.294 349.066 521.621 368.727 512.995Z" fill="#1B18AC"/>
<path d="M435.381 512.995C452.324 526.971 469.347 530.246 488.688 515.95C464.952 525.294 455.122 521.621 435.381 512.995Z" fill="#1B18AC"/>
<path d="M339.635 553.965C339.635 562.59 336.598 570.896 332.922 578.723C333.496 578.017 334.058 577.32 334.611 576.634L334.615 576.629C338.061 572.355 341.148 568.526 344.591 565.705C341.596 562.992 340.786 559.248 339.993 555.582C339.876 555.04 339.759 554.5 339.635 553.965Z" fill="#1B18AC"/>
<path d="M401.095 609.95C399.976 601.644 397.578 594.057 392.703 586.39L400.695 593.418L401.095 609.95Z" fill="#1B18AC"/>
<path d="M444.572 565.226C460.316 564.986 461.115 565.785 468.788 579.601C462.074 573.053 453.283 568.341 444.572 565.226Z" fill="#1B18AC"/>
<path d="M304.469 194.419L298.183 180.32L295.875 174.983L291.34 164.947C298.342 152.521 307.811 142.006 319.269 133.722C326.431 128.465 334.149 124.084 342.504 120.42C342.925 120.226 343.384 120.045 343.851 119.861L343.853 119.86C344.535 119.592 345.233 119.317 345.846 118.986C351.018 116.915 356.429 115.163 361.92 113.729C366.217 112.614 370.673 111.658 375.049 111.021C378.471 110.304 381.972 109.905 385.473 109.666C388.576 109.348 391.839 109.109 395.022 109.109C396.772 108.95 398.523 108.95 400.273 108.95C401.865 108.95 403.615 108.95 405.366 109.109C407.954 109.109 410.543 109.32 413.089 109.527C413.673 109.574 414.255 109.622 414.835 109.666C418.256 109.985 421.917 110.383 425.259 111.021C429.715 111.737 434.091 112.614 438.388 113.729C443.878 115.242 449.21 116.995 454.462 118.986C454.882 119.18 455.343 119.362 455.81 119.546C456.492 119.814 457.19 120.089 457.804 120.42C466.159 124.084 473.957 128.465 481.038 133.722C492.258 142.086 501.886 152.521 508.889 165.026H508.729L504.194 175.063L501.886 180.32L495.6 194.419C492.735 196.729 487.563 197.525 480.959 196.968C477.776 196.729 474.116 196.012 470.376 194.976C474.514 193.065 478.015 191.312 480.959 189.321C487.006 185.259 491.303 180.559 496.635 172.116L498.783 168.053C493.531 161.203 487.563 154.91 480.959 149.414C473.797 143.36 466.079 138.103 457.724 133.802C457.137 133.485 456.498 133.194 455.852 132.9C455.36 132.676 454.864 132.45 454.382 132.209C454.181 132.108 453.995 131.994 453.804 131.877C453.542 131.716 453.273 131.551 452.95 131.412C448.255 129.261 443.242 127.27 438.309 125.677C436.875 125.16 435.4 124.768 433.943 124.38L433.939 124.379C433.376 124.229 432.816 124.08 432.261 123.925C430.59 123.387 428.785 122.984 426.98 122.58C426.378 122.446 425.776 122.312 425.179 122.172C421.917 121.376 418.256 120.818 414.755 120.42C411.732 120.021 408.469 119.783 405.286 119.623C403.536 119.464 401.785 119.464 400.194 119.464C398.443 119.464 396.693 119.464 394.942 119.623C391.68 119.783 388.497 120.021 385.393 120.42C381.972 120.818 378.47 121.376 374.969 122.172C372.582 122.73 370.195 123.287 367.888 123.925C367.48 124.034 367.075 124.141 366.673 124.247C365.035 124.68 363.437 125.101 361.84 125.677C356.827 127.27 352.053 129.261 347.199 131.412C346.801 131.651 346.244 131.97 345.687 132.209C345.17 132.487 344.593 132.746 344.016 133.005C343.439 133.264 342.862 133.523 342.345 133.802C334.149 138.103 326.192 143.36 319.11 149.414C312.585 154.91 306.538 161.203 301.286 168.053L303.435 172.116C308.766 180.559 313.063 185.259 319.11 189.321C322.054 191.312 325.556 193.065 329.852 194.976C325.953 196.012 322.452 196.569 319.11 196.968C312.506 197.525 307.254 196.729 304.469 194.419Z" fill="#1B18AC"/>
<path d="M388.019 174.664C389.173 174.545 390.306 174.406 391.44 174.266C392.574 174.127 393.709 173.987 394.862 173.868H395.499C397.409 159.769 398.045 143.838 398.204 123.526H398.045C397.478 123.526 396.931 123.568 396.395 123.608C395.878 123.647 395.37 123.686 394.862 123.686C391.68 123.845 388.417 124.084 385.314 124.482C384.745 124.573 384.176 124.661 383.608 124.75C380.677 125.206 377.756 125.66 374.89 126.394C374.075 126.591 373.289 126.778 372.516 126.962L372.515 126.962C371.1 127.299 369.726 127.626 368.285 127.987L368.126 128.146C370.513 131.731 372.821 135.395 374.81 138.979C379.346 147.423 382.847 155.786 385.234 163.831C386.507 167.575 387.303 171.16 388.019 174.664Z" fill="#1B18AC"/>
<path d="M378.765 176.932C377.461 177.293 376.111 177.666 374.89 178.169C374.02 178.444 373.176 178.746 372.343 179.044C371.729 179.263 371.121 179.48 370.514 179.683C368.445 174.266 365.501 167.894 361.761 161.283C357.225 153.237 351.576 145.033 345.687 138.74L344.494 137.545C344.891 137.307 345.289 137.068 345.687 136.908C350.859 134.2 356.27 131.97 361.761 130.058C362.357 129.859 362.934 129.66 363.511 129.461L363.513 129.46C364.089 129.261 364.666 129.062 365.262 128.863C369.638 135.554 372.742 142.564 374.89 149.414C377.834 159.132 378.789 168.611 379.187 176.815L378.765 176.932Z" fill="#1B18AC"/>
<path d="M279.404 199.039C279.882 199.318 280.379 199.576 280.876 199.835C281.374 200.094 281.871 200.353 282.348 200.632C292.772 206.287 306.061 208.04 319.11 205.73C327.147 204.376 335.104 201.428 342.345 196.888C343.539 196.251 344.653 195.454 345.687 194.578C345.958 194.416 346.228 194.217 346.548 193.981L346.55 193.979C346.701 193.868 346.862 193.749 347.04 193.622L346.642 193.463C346.403 192.666 346.085 191.87 345.687 191.073C345.472 190.5 345.257 189.914 345.037 189.314C344.278 187.245 343.455 185.002 342.345 182.471C338.685 174.107 332.558 163.911 319.667 154.432V154.592C319.588 154.671 319.488 154.731 319.389 154.791C319.289 154.85 319.19 154.91 319.11 154.99C315.052 158.654 308.686 165.743 305.424 169.646C310.278 171.956 314.813 174.505 319.11 177.452C325.317 181.754 330.807 187.091 335.184 194.259C330.489 197.366 324.839 199.198 319.11 199.915C309.562 200.95 299.695 198.481 292.454 192.268C289.51 189.719 289.908 185.577 293.09 183.506C288.634 183.506 285.054 183.904 282.348 184.701C273.118 187.409 272.959 194.1 279.404 199.039Z" fill="#1B18AC"/>
<path d="M199.514 371.57C204.607 367.667 208.267 361.215 209.938 353.011H210.097C212.803 340.903 214.235 329.911 214.951 319.078C215.906 306.572 215.588 294.545 214.951 281.64C212.962 256.151 210.654 246.354 201.663 232.255C201.026 231.299 200.31 230.343 199.514 229.706C189.17 219.749 165.06 224.21 163.627 242.212C163.23 255.354 171.903 264.594 184.555 262.205C197.047 260.452 198.4 245.557 189.806 239.264C183.679 234.565 171.028 239.503 177.473 247.867C180.815 251.929 185.271 248.425 186.624 247.309L187.419 249.858C184.236 253.443 178.189 254.558 173.892 248.504C166.89 236.397 186.067 226.36 196.172 240.459C197.404 242.055 198.372 243.65 199.376 245.306L199.378 245.31L199.383 245.318C199.479 245.476 199.576 245.636 199.673 245.796C207.153 259.098 209.302 275.029 209.222 295.58H208.188C207.877 293.792 207.726 291.97 207.571 290.096C207.25 286.208 206.91 282.092 205.084 277.578C203.732 274.392 201.901 272.64 199.753 271.843C193.865 269.692 186.464 275.587 187.181 281.64C192.432 281.003 196.729 284.428 199.753 290.402C207.71 305.139 208.904 334.85 202.936 352.453C202.14 355.162 201.026 357.551 199.753 359.463C197.764 362.57 195.297 364.72 192.671 365.676C186.624 366.871 182.247 365.915 179.383 363.525C173.176 358.268 175.086 349.188 180.735 346.24C185.032 344.09 193.069 346.4 192.273 351.896L191.08 353.648C188.135 346.161 181.849 348.311 179.94 352.692C178.348 356.834 179.78 363.127 190.284 361.932C200.31 359.622 199.673 346.878 195.536 343.293C174.051 324.654 150.339 363.286 181.77 375.075C188.772 376.509 194.819 375.155 199.514 371.57Z" fill="#1B18AC"/>
<path d="M345.608 143.759C344.573 142.404 343.459 141.05 342.266 139.855L341.47 139.059C341.387 139.109 341.311 139.155 341.238 139.2C340.962 139.368 340.734 139.507 340.356 139.696C334.07 143.281 328.022 147.502 322.373 152.202C322.276 152.202 322.209 152.26 322.136 152.324C322.088 152.366 322.038 152.409 321.975 152.441C330.568 158.335 337.014 164.628 342.266 170.602C342.799 171.278 343.316 171.907 343.818 172.516C344.439 173.27 345.035 173.995 345.608 174.744C349.507 179.444 352.61 183.984 355.156 187.807C357.305 186.453 359.612 185.099 361.761 183.904C361.88 183.825 362.019 183.765 362.158 183.705C362.298 183.646 362.437 183.586 362.556 183.506C362.48 183.199 362.395 182.884 362.307 182.558L362.306 182.555C362.121 181.867 361.922 181.13 361.761 180.32C359.214 169.806 354.201 155.069 345.608 143.759Z" fill="#1B18AC"/>
<path d="M248.132 197.047C250.838 199.596 253.623 201.986 256.567 204.296C264.524 210.35 273.038 214.651 282.348 217.359C288.634 219.112 295.239 220.068 302.161 220.466C307.811 220.864 313.54 220.625 319.031 219.749C321.338 219.43 323.566 218.952 325.874 218.395C327.132 218.139 328.391 217.874 329.653 217.609L329.655 217.609C344.116 214.568 358.815 211.478 373.378 221.661L373.139 219.908C370.036 211.863 360.965 208.597 353.326 209.553C350.581 209.88 345.797 211.604 342.279 212.872C341.514 213.148 340.808 213.402 340.197 213.616L342.345 212.66C343.38 212.261 344.653 211.704 345.687 211.067C346.16 210.889 346.678 210.623 347.239 210.335C347.433 210.235 347.631 210.133 347.836 210.031C353.565 206.925 357.623 204.535 361.761 201.588C363.352 200.552 364.943 199.437 366.694 198.083C366.694 198.083 366.933 197.924 367.331 197.685C369.479 195.773 372.264 193.622 374.81 192.985C376.72 192.587 378.471 192.826 379.903 194.578L378.948 195.375C377.834 194.021 376.402 193.941 374.81 194.339C372.901 194.897 370.752 196.331 369.081 197.844C368.445 199.995 369.479 202.942 371.866 204.535C372.821 204.933 373.776 205.093 374.81 205.093C379.107 204.854 383.802 200.95 385.234 196.092C385.871 194.18 385.871 192.029 385.234 190.038V189.879C383.086 185.179 379.585 183.028 374.81 183.825C372.264 184.382 369.479 185.418 366.217 187.409C366.03 187.531 365.844 187.651 365.66 187.771C364.272 188.671 362.945 189.531 361.681 190.516C356.27 194.18 350.939 197.605 345.608 200.552C345.175 200.819 344.7 201.071 344.219 201.328L344.217 201.329C343.549 201.684 342.866 202.048 342.266 202.464C339.958 203.579 337.73 204.615 335.422 205.57C329.932 207.721 324.441 209.314 319.11 210.27C306.538 212.58 294.284 211.306 282.348 205.57C273.516 201.428 264.922 194.737 256.567 185.179L255.771 184.382C255.513 184.084 255.246 183.782 254.974 183.476C252.564 180.759 249.845 177.693 250.917 173.47C251.315 171.717 252.509 170.522 254.021 169.726C254.657 169.328 255.612 169.089 256.567 168.929C257.203 168.77 257.92 168.77 258.715 168.929C261.262 169.328 263.808 170.921 264.604 174.187L262.694 174.585C262.057 172.275 260.307 171.239 258.397 171C257.76 170.841 257.044 170.841 256.487 171C256.358 171.033 256.231 171.062 256.108 171.09C255.624 171.202 255.18 171.304 254.737 171.558C253.782 172.116 252.986 172.912 252.747 173.948C252.35 175.541 252.827 177.691 255.055 180.559V180.4C255.453 180.957 256.01 181.355 256.487 181.594C259.272 183.188 262.773 182.391 265.638 179.205C269.378 174.107 266.195 166.062 256.487 164.548C255.294 164.389 253.941 164.309 252.588 164.309C250.997 164.469 249.405 164.867 248.053 165.345C237.629 169.009 234.366 181.594 245.666 194.578C246.252 195.059 246.803 195.647 247.342 196.222C247.608 196.505 247.87 196.785 248.132 197.047Z" fill="#1B18AC"/>
<path d="M438.309 130.058C437.712 129.859 437.135 129.66 436.558 129.461L436.556 129.46C435.98 129.261 435.404 129.062 434.807 128.863C430.431 135.554 427.328 142.564 425.179 149.414C422.394 159.052 421.28 168.611 421.041 176.815L421.504 176.951C422.717 177.306 423.98 177.675 425.179 178.169C425.627 178.326 426.069 178.477 426.503 178.625C427.61 179.002 428.663 179.362 429.635 179.762C431.624 174.426 434.728 167.974 438.309 161.362C442.844 153.317 448.494 145.113 454.382 138.82C454.78 138.422 455.178 138.023 455.735 137.625C455.505 137.527 455.302 137.415 455.116 137.311C454.85 137.164 454.616 137.035 454.382 136.988C449.13 134.28 443.799 131.97 438.309 130.058Z" fill="#1B18AC"/>
<path d="M438.309 180.32C438.099 181.37 437.828 182.358 437.603 183.177L437.553 183.359L437.513 183.506C437.632 183.586 437.771 183.646 437.911 183.705C438.05 183.765 438.189 183.825 438.309 183.904C440.457 185.099 442.765 186.453 444.913 187.807C445.69 186.733 446.486 185.592 447.319 184.399L447.32 184.397C449.389 181.436 451.683 178.151 454.462 174.744C454.967 174.13 455.456 173.516 455.951 172.894L455.952 172.893L455.956 172.888L455.956 172.887C456.551 172.14 457.154 171.383 457.804 170.602C463.055 164.708 469.501 158.415 478.094 152.441L477.856 152.202C472.206 147.502 466.079 143.36 459.793 139.696C459.655 139.558 459.464 139.447 459.266 139.331C459.121 139.247 458.972 139.16 458.838 139.059H458.679L457.883 139.855C456.69 141.05 455.576 142.404 454.541 143.759C445.788 155.069 440.855 169.726 438.309 180.32Z" fill="#1B18AC"/>
<path d="M507.615 192.268C500.374 198.481 490.428 201.03 480.959 199.915C475.23 199.278 469.739 197.366 464.885 194.259C469.262 187.17 474.832 181.754 480.959 177.452C485.256 174.505 489.95 171.956 494.645 169.646C491.462 165.743 484.937 158.654 480.959 154.99L480.561 154.592C480.402 154.592 480.402 154.432 480.402 154.432C467.511 163.991 461.384 174.187 457.724 182.471C456.592 185.136 455.683 187.579 454.857 189.799C454.696 190.232 454.538 190.657 454.382 191.073C454.223 191.604 453.993 192.135 453.763 192.666L453.762 192.669L453.76 192.672C453.646 192.935 453.532 193.199 453.427 193.463L453.188 193.622C453.453 193.888 453.719 194.083 453.984 194.277C454.117 194.375 454.249 194.472 454.382 194.578C455.108 195.097 455.868 195.617 456.595 196.114C456.984 196.379 457.364 196.638 457.724 196.888C464.965 201.428 472.922 204.376 480.959 205.73C493.929 208.04 507.217 206.287 517.721 200.632C518.298 200.343 518.811 200.054 519.304 199.777L519.308 199.774C519.765 199.517 520.206 199.268 520.665 199.039C527.269 194.1 526.951 187.33 517.721 184.701C515.095 183.904 511.435 183.506 507.138 183.506C510.321 185.497 510.718 189.64 507.615 192.268Z" fill="#1B18AC"/>
<path d="M543.582 181.515C543.98 181.276 544.536 180.878 545.094 180.32V180.479C547.083 177.691 547.64 175.541 547.242 173.868C547.003 172.832 546.208 171.956 545.253 171.478C544.831 171.297 544.409 171.162 544.022 171.038C543.952 171.015 543.884 170.994 543.816 170.972L543.77 170.957L543.723 170.941L543.661 170.921C543.025 170.761 542.309 170.761 541.672 170.921C539.842 171.16 538.012 172.275 537.534 174.505L535.545 174.107C536.341 170.921 538.887 169.248 541.433 168.85C542.229 168.69 542.866 168.69 543.741 168.85C544.536 169.009 545.491 169.248 546.287 169.646C547.64 170.443 548.833 171.638 549.231 173.39C550.425 178.09 549.231 181.196 546.605 183.984C545.65 185.02 544.696 185.975 543.741 186.931C535.067 195.534 526.553 201.667 517.88 205.73C505.944 211.226 493.849 212.421 481.118 209.872C474.036 208.438 466.795 205.73 459.236 201.827C459.113 201.778 458.976 201.736 458.832 201.693C458.51 201.596 458.158 201.49 457.883 201.269C456.849 200.871 455.575 200.313 454.541 199.756C451.121 198.267 447.909 196.5 444.191 194.455L443.401 194.021C442.048 193.224 440.298 192.029 438.468 190.675C438.235 190.517 438 190.356 437.762 190.194C433.941 187.584 429.534 184.575 425.338 183.825C421.36 182.869 417.54 184.064 414.914 189.56C414.914 189.64 414.875 189.699 414.835 189.759C414.795 189.819 414.755 189.878 414.755 189.958C413.8 192.348 414.119 194.817 414.914 197.047C416.665 201.349 421.201 204.854 425.338 204.933C426.532 205.092 427.725 204.933 428.839 204.376C431.227 202.783 431.386 200.632 430.829 198.481C429.078 197.127 427.168 195.773 425.338 195.136C423.747 194.578 422.155 194.578 420.962 196.092L420.007 195.136C421.519 193.383 423.508 193.144 425.338 193.782C427.885 194.419 430.431 196.49 432.579 198.322C432.977 198.481 433.216 198.72 433.216 198.72C435.126 200.074 436.876 201.269 438.468 202.225C441.202 203.91 443.971 205.316 447.189 206.95L447.193 206.951C448.842 207.789 450.611 208.687 452.552 209.712C453.188 210.111 453.904 210.509 454.541 210.748C455.655 211.385 456.849 211.943 457.883 212.341C457.92 212.36 457.958 212.378 457.994 212.396C454.523 211.136 449.934 209.545 447.38 209.235C439.582 208.279 430.113 211.545 426.85 219.59L426.611 221.342C440.679 211.504 452.776 213.968 467.256 216.918C470.713 217.622 474.306 218.354 478.094 218.952C479.049 219.112 480.004 219.271 481.038 219.43C486.688 220.227 492.258 220.545 497.908 220.147C504.91 219.749 511.594 218.793 517.721 217.041C526.951 214.332 535.545 210.031 543.582 203.977C546.446 201.667 549.231 199.278 551.937 196.729L554.483 194.18C565.623 181.196 562.44 168.531 551.937 164.947C550.584 164.389 548.993 163.991 547.401 163.911C546.378 163.911 545.355 164.002 544.469 164.081C544.184 164.107 543.913 164.131 543.661 164.15C534.033 165.664 530.771 173.709 534.431 178.807C537.136 182.311 540.637 183.108 543.582 181.515Z" fill="#1B18AC"/>
<path fill-rule="evenodd" clip-rule="evenodd" d="M588.46 436.091C582.174 434.179 579.309 437.285 578.116 442.782C576.675 439.897 576.528 437.229 576.343 433.888L576.343 433.886C576.304 433.168 576.262 432.419 576.206 431.63C576.206 431.431 576.166 431.232 576.126 431.032C576.087 430.833 576.047 430.634 576.047 430.435C572.307 434.577 571.113 439.277 573.341 444.773L576.126 451.066L578.036 455.367L580.741 471.457C580.142 470.762 579.517 470.092 578.897 469.427L578.894 469.423L578.891 469.421C577.95 468.412 577.02 467.414 576.206 466.359L575.808 465.961L573.023 460.146C572.947 461.387 572.759 462.644 572.57 463.901C572.166 466.6 571.76 469.302 572.466 471.855C573.197 474.709 574.398 476.622 575.822 478.89L576.002 479.176L576.149 479.412L576.206 479.502C576.278 479.622 576.357 479.742 576.439 479.866L576.44 479.868C576.63 480.156 576.835 480.467 577.002 480.856L577.509 481.734C586.399 497.112 586.59 497.443 584.481 515.506C581.378 513.515 579.15 510.249 577.559 505.549C577.616 504.634 577.735 503.914 577.845 503.245C578.042 502.051 578.211 501.021 577.957 499.336C577.797 498.38 577.002 497.584 576.206 496.787C576.149 496.739 576.093 496.691 576.037 496.643L575.918 496.542L575.793 496.436L575.792 496.435C574.84 495.628 573.988 494.905 573.501 493.999C573.501 492.674 573.87 491.409 574.226 490.185C574.877 487.953 575.487 485.862 573.739 483.804L571.034 479.901C570.497 484.063 569.961 486.465 569.382 489.056L569.381 489.058C568.93 491.078 568.453 493.214 567.931 496.389C567.533 499.496 566.578 505.629 565.384 508.576C564.5 510.69 563.457 512.356 562.482 513.915C560.296 517.406 558.451 520.355 559.496 526.578C559.714 527.935 559.967 529.29 560.223 530.657L560.224 530.663L560.225 530.664C561.739 538.761 563.339 547.315 558.302 559.714L554.642 567.361L551.698 564.812L551.061 564.175C551.3 563.936 551.618 563.538 551.698 563.219C555.779 556.864 553.83 552.521 551.988 548.415L551.814 548.026L551.698 547.766V547.607C551.141 544.819 551.061 539.641 551.698 536.615C551.857 536.376 551.857 536.216 551.857 535.977L551.857 536.018L551.857 536.031C551.856 536.046 551.856 536.059 551.854 536.071L551.854 536.079C551.851 536.096 551.847 536.11 551.84 536.123C551.821 536.155 551.781 536.175 551.698 536.216C549.709 539.402 546.207 544.819 544.218 547.766C544.051 548.155 543.846 548.467 543.656 548.755L543.655 548.756C543.573 548.88 543.494 549 543.422 549.12C541.433 551.908 539.364 554.935 538.171 557.962C537.294 560.302 536.976 562.298 536.616 564.549C536.486 565.364 536.351 566.212 536.181 567.122C535.369 570.104 535.057 572.995 534.76 575.751C534.271 580.285 533.821 584.455 531.248 588.071C523.609 597.072 524.166 591.417 526.394 585.363C526.169 584.816 525.748 584.32 525.327 583.824C524.708 583.093 524.087 582.361 524.087 581.46C523.996 580.152 524.442 579.432 524.918 578.662C525.282 578.073 525.665 577.454 525.837 576.521L527.428 569.432C524.246 573.335 520.983 577.318 517.482 581.141C516.05 582.735 514.538 584.248 512.947 585.602C510.449 587.943 508.164 589.786 505.761 591.725L505.758 591.727L505.755 591.729L505.752 591.732L505.747 591.736L505.746 591.737C504.555 592.698 503.335 593.682 502.045 594.762C500.782 595.774 499.615 597.139 498.442 598.51C497.768 599.299 497.093 600.089 496.396 600.816C495.043 602.17 491.86 603.923 489.95 604.56C487.006 605.755 483.903 606.95 480.72 608.144C480.203 608.333 479.684 608.522 479.163 608.712L479.148 608.718C471.984 611.328 464.527 614.045 457.485 617.384C456.968 617.663 456.392 617.961 455.815 618.26C455.238 618.559 454.661 618.858 454.143 619.137C448.096 622.482 442.605 626.385 438.07 631.483C436.876 632.837 435.682 634.43 434.568 635.944C430.272 642.236 427.327 648.45 425.418 654.742L424.861 654.583L414.437 653.229L413.482 661.433L405.684 660.238C405.684 661.831 405.445 663.345 405.127 664.779C404.331 669.877 402.024 674.019 400.034 674.974C397.886 674.019 395.578 669.877 394.783 664.779C394.544 663.345 394.385 661.831 394.385 660.238L386.428 661.433L385.473 653.229H385.234L374.81 654.583L374.253 654.742C372.343 648.45 369.399 642.236 365.262 635.944C364.914 635.503 364.573 635.055 364.233 634.609L364.232 634.608C363.405 633.522 362.583 632.442 361.681 631.483C357.145 626.385 351.575 622.482 345.607 619.137C345.373 619.01 345.134 618.88 344.892 618.747C344.064 618.294 343.188 617.815 342.265 617.384C334.91 613.821 326.925 610.967 319.171 608.194L319.03 608.144C318.255 607.846 317.474 607.547 316.693 607.248C314.351 606.352 312.008 605.456 309.8 604.56C307.89 603.923 304.708 602.17 303.355 600.816C302.613 600.042 301.919 599.196 301.231 598.358L301.23 598.356C300.147 597.037 299.08 595.736 297.864 594.762C297.132 594.176 296.425 593.614 295.734 593.066L295.73 593.063C292.667 590.631 289.934 588.461 286.884 585.602C285.292 584.248 283.78 582.814 282.348 581.141C280.104 578.742 278.023 576.211 275.938 573.676C274.771 572.255 273.601 570.834 272.401 569.432L273.993 576.521C274.228 577.43 274.62 578.055 274.988 578.641C275.491 579.442 275.949 580.172 275.903 581.46C275.813 582.314 275.217 583.015 274.628 583.708C274.174 584.243 273.724 584.773 273.516 585.363C275.823 591.417 276.3 597.072 268.821 588.071C266.211 584.454 265.754 580.235 265.253 575.614C264.96 572.908 264.651 570.064 263.887 567.122C263.767 566.488 263.657 565.882 263.551 565.294C263.099 562.784 262.706 560.608 261.739 557.962C260.545 554.855 258.556 551.908 256.646 549.12C256.248 548.722 256.01 548.324 255.691 547.766C253.702 544.819 250.201 539.402 248.212 536.216C248.212 536.123 248.157 536.084 248.112 536.052C248.08 536.03 248.053 536.01 248.053 535.977C248.053 536.097 248.092 536.196 248.132 536.296C248.172 536.395 248.212 536.495 248.212 536.615C248.928 539.721 248.769 544.819 248.212 547.607V547.766C248.112 547.99 248.012 548.214 247.911 548.438L247.9 548.462C246.064 552.546 244.146 556.813 248.212 563.219C248.323 563.33 248.416 563.475 248.517 563.631C248.632 563.811 248.757 564.004 248.928 564.175L248.212 564.812L245.427 567.361L241.687 559.714C236.705 547.108 238.342 538.477 239.9 530.259C240.133 529.027 240.365 527.804 240.573 526.578C241.611 520.399 239.724 517.448 237.512 513.99C236.502 512.41 235.424 510.724 234.525 508.576C233.608 506.311 232.925 502.115 232.406 498.92C232.25 497.959 232.108 497.089 231.979 496.389C231.419 492.988 230.947 490.762 230.488 488.6C229.969 486.154 229.467 483.79 228.876 479.901L226.17 483.804C224.527 485.86 225.104 487.949 225.72 490.179C226.059 491.404 226.409 492.672 226.409 493.999C225.852 495.035 224.818 495.911 223.704 496.787C222.908 497.584 222.192 498.38 221.953 499.336C221.68 501.085 221.894 502.159 222.158 503.484C222.279 504.09 222.41 504.749 222.51 505.549C220.76 510.249 218.452 513.435 215.428 515.506C213.319 497.439 213.511 497.112 222.558 481.722L223.067 480.856C223.166 480.627 223.277 480.424 223.381 480.237C223.528 479.97 223.657 479.736 223.704 479.502C223.957 479.096 224.209 478.704 224.456 478.318L224.464 478.306L224.472 478.295C225.768 476.275 226.937 474.456 227.603 471.855C228.232 469.389 227.859 466.783 227.486 464.176C227.293 462.827 227.1 461.477 227.046 460.146L224.102 465.961L223.704 466.359C222.726 467.626 221.623 468.809 220.486 470.03C220.05 470.498 219.609 470.971 219.168 471.457L221.953 455.367L223.704 451.066L226.489 444.773C228.796 439.277 227.603 434.577 223.783 430.435C223.783 430.833 223.783 431.232 223.624 431.63C223.613 431.935 223.603 432.234 223.593 432.527C223.458 436.527 223.356 439.516 221.874 442.782C220.521 437.285 217.815 434.179 211.529 436.091C214.076 443.498 214.314 455.048 213.121 468.749C208.267 492.486 205.163 509.452 206.834 526.339C208.824 548.244 214.235 563.219 223.624 576.123C229.274 583.611 236.117 590.381 244.711 597.311L236.515 581.858L230.069 565.37C227.983 560.579 227.364 555.267 226.752 550.019C226.57 548.461 226.389 546.908 226.17 545.377C225.929 539.969 226.603 535.57 227.255 531.314C228.323 524.348 229.332 517.767 226.17 507.78C232.706 513.945 231.946 519.563 231.063 526.088C230.828 527.824 230.584 529.625 230.467 531.517C230.396 533 230.274 534.499 230.151 536.005C229.865 539.511 229.576 543.061 229.91 546.571C231.024 554.378 232.695 562.263 235.401 569.671C238.186 577.876 242.483 586.877 247.973 594.364C250.519 597.949 253.225 601.214 256.169 603.923H256.408C262.694 605.834 268.343 607.427 273.675 608.622C272.982 607.949 272.276 607.281 271.567 606.612L271.566 606.61L271.562 606.607C269.422 604.584 267.271 602.551 265.479 600.338C259.075 592.459 258.711 586.539 258.198 578.215C258.099 576.609 257.994 574.913 257.84 573.096C257.442 569.512 257.044 566.087 256.328 562.741C255.373 558.997 254.02 555.333 251.633 551.749C252.024 552.189 252.396 552.604 252.751 552.999L252.752 553C254.127 554.534 255.253 555.789 256.328 557.245C258.476 560.431 259.829 564.653 260.466 575.088C262.375 592.93 267.548 599.621 279.245 609.897C279.779 609.986 280.313 610.1 280.834 610.211L280.836 610.212C281.245 610.299 281.645 610.384 282.03 610.454C286.963 611.49 292.056 612.366 297.705 613.242C290.464 609.1 285.929 605.436 282.03 597.71C281.926 597.434 281.808 597.173 281.688 596.908C281.53 596.56 281.369 596.205 281.234 595.798C281.353 595.997 281.493 596.196 281.632 596.395C281.771 596.594 281.91 596.794 282.03 596.993C288.876 605.637 294.733 608.952 304.063 614.232L304.708 614.596C309.561 615.552 314.256 616.588 318.792 617.783C326.988 619.933 334.786 622.721 342.027 627.022C342.171 627.109 342.315 627.195 342.457 627.28L342.493 627.301L342.504 627.308C343.519 627.914 344.473 628.484 345.369 629.173C349.506 631.881 353.405 635.227 357.066 639.21C358.816 641.36 360.249 643.909 361.522 646.458C364.148 652.353 365.978 658.964 367.41 664.46L374.651 663.504L378.152 663.106L380.698 671.948L385.075 670.912L388.974 670.116C389.61 674.815 391.52 680.311 394.623 684.613C396.056 686.763 397.806 688.516 399.875 689.95C401.785 688.516 403.536 686.763 404.968 684.613C408.151 680.311 409.901 674.815 410.617 670.116L414.516 670.912L418.972 671.948L421.519 663.106L425.02 663.504L432.261 664.46C432.563 663.415 432.866 662.33 433.176 661.218L433.182 661.195C434.502 656.46 435.961 651.225 438.149 646.458C439.343 643.909 440.855 641.36 442.605 639.21C446.266 635.147 450.085 631.802 454.302 629.173C454.903 628.743 455.528 628.36 456.138 627.985C456.658 627.666 457.168 627.352 457.644 627.022C464.885 622.721 472.683 619.933 480.879 617.783C485.415 616.588 490.269 615.473 494.963 614.596C495.436 614.326 495.901 614.062 496.357 613.802L496.37 613.794C505.194 608.77 510.986 605.471 517.641 596.993C517.8 596.727 518.03 596.462 518.26 596.196L518.261 596.195C518.341 596.103 518.42 596.011 518.496 595.92C518.53 595.879 518.564 595.839 518.596 595.798C518.465 596.147 518.286 596.474 518.099 596.814C517.945 597.095 517.785 597.386 517.641 597.71C513.742 605.516 509.207 609.1 502.125 613.242C503.532 612.997 504.914 612.763 506.273 612.532L506.275 612.531L506.276 612.531C510.218 611.862 513.974 611.224 517.641 610.454C518.074 610.382 518.508 610.293 518.948 610.203C519.479 610.095 520.02 609.984 520.585 609.897C532.282 599.701 537.375 593.01 539.205 575.088C539.842 564.653 541.194 560.431 543.502 557.245C544.334 555.913 545.321 554.812 546.462 553.539L546.464 553.537C546.96 552.984 547.484 552.399 548.038 551.749C545.65 555.413 544.298 558.997 543.502 562.741C542.706 566.087 542.308 569.432 542.07 573.096C541.877 575.056 541.746 576.872 541.622 578.585C541.033 586.757 540.615 592.567 534.431 600.338C532.146 602.983 529.54 605.435 527.017 607.811L526.155 608.622C531.487 607.427 537.136 605.834 543.582 603.923H543.741C546.685 601.214 549.39 598.028 551.937 594.364C557.427 586.877 561.883 577.876 564.509 569.671C567.214 562.263 568.965 554.378 569.999 546.571C570.465 542.959 570.122 539.261 569.779 535.572C569.653 534.218 569.528 532.864 569.442 531.517C569.324 529.608 569.074 527.788 568.832 526.032C567.934 519.51 567.156 513.867 573.739 507.78C570.578 517.767 571.587 524.349 572.654 531.314C573.306 535.569 573.981 539.969 573.739 545.377C573.604 546.514 573.482 547.666 573.36 548.824C572.764 554.476 572.152 560.279 569.84 565.37L563.395 581.858L555.358 597.311C563.793 590.302 570.795 583.611 576.286 576.123C585.834 563.219 591.165 548.244 593.075 526.339C594.667 509.452 591.722 492.486 586.789 468.749C585.516 455.048 585.834 443.498 588.46 436.091ZM228.955 574.769C227.047 571.939 225.578 569.297 224.214 566.843C224.042 566.535 223.872 566.23 223.704 565.927C216.373 551.2 218.454 542.574 220.667 533.394C221.866 528.424 223.104 523.291 222.908 516.94C223.306 518.692 223.545 520.445 223.704 522.038C224.102 525.144 223.942 527.932 223.704 530.8C223.568 532.552 223.374 534.271 223.177 536.011C222.455 542.417 221.701 549.094 223.704 558.679C224.818 563.378 226.409 568.636 228.955 574.769ZM256.567 591.258C257.522 594.364 259.113 597.71 261.421 601.453C259.431 598.904 257.76 596.594 256.567 594.603C250.961 585.748 251.305 580.985 251.82 573.864C252.102 569.967 252.435 565.364 251.872 558.997C254.133 565.1 254.222 570.157 254.313 575.26C254.401 580.215 254.489 585.215 256.567 591.258ZM282.348 588.31C282.148 587.778 282.005 587.19 281.87 586.639C281.843 586.531 281.817 586.424 281.791 586.319L281.632 583.531L282.268 584.328L284.417 586.717C287.609 597.141 291.833 600.194 297.362 604.188C300.24 606.268 303.471 608.603 307.095 612.366C304.789 610.722 302.498 609.27 300.285 607.867C292.415 602.879 285.515 598.506 282.348 588.31ZM518.198 586.319C518.155 586.493 518.117 586.674 518.079 586.857C517.978 587.343 517.872 587.847 517.641 588.31C514.601 598.435 507.69 602.795 499.738 607.813L499.736 607.814C497.491 609.231 495.162 610.7 492.815 612.366C496.442 608.599 499.695 606.263 502.594 604.181C508.153 600.19 512.407 597.136 515.493 586.717L517.641 584.328L518.437 583.531L518.198 586.319ZM543.582 594.683C542.229 596.674 540.637 598.984 538.648 601.533C540.956 597.789 542.547 594.444 543.582 591.337C545.62 585.256 545.689 580.257 545.757 575.322C545.827 570.237 545.896 565.22 548.117 559.157C547.549 565.551 547.903 570.161 548.203 574.067C548.744 581.111 549.109 585.87 543.582 594.683ZM576.286 565.927C574.933 568.636 573.182 571.583 571.193 574.769C573.739 568.636 575.331 563.378 576.286 558.679C578.293 549.07 577.531 542.334 576.806 535.931L576.806 535.928L576.806 535.927L576.805 535.915C576.611 534.203 576.42 532.514 576.286 530.8C576.047 528.012 575.888 525.144 576.286 521.958C576.445 520.445 576.683 518.772 577.081 517.02C576.943 523.268 578.176 528.336 579.369 533.24C581.612 542.464 583.715 551.106 576.286 565.927Z" fill="#1B18AC"/>
<path d="M604.852 343.134C600.714 346.798 599.998 359.543 610.104 361.773C620.687 362.968 622.04 356.675 620.448 352.533C618.538 348.072 612.252 345.922 609.308 353.489L608.115 351.736C607.319 346.24 615.356 343.532 619.652 345.842C624.586 348.949 627.053 357.551 621.562 362.649C618.777 365.039 613.764 366.313 607.717 365.039C604.932 364.083 602.385 361.932 600.316 358.746C598.725 356.197 597.372 353.091 596.418 349.347C591.723 331.743 593.076 305.059 600.316 290.96C603.499 284.827 607.796 281.003 613.207 281.72C613.844 275.587 606.205 269.613 600.316 272.082C598.327 272.879 596.577 274.631 595.383 277.737C593.402 282.496 593.072 286.812 592.76 290.884C592.633 292.538 592.51 294.152 592.28 295.739H591.086C591.086 275.507 593.076 259.656 600.316 246.513C601.351 244.521 602.704 242.45 604.056 240.618C614.082 226.52 633.259 236.556 626.336 248.664C622.199 254.717 616.151 253.602 612.809 250.018L613.605 247.469C614.958 248.584 619.334 252.009 622.756 248.026C629.201 239.742 616.549 234.724 610.422 239.424C601.828 245.716 603.181 260.612 615.674 262.364C628.246 264.754 636.999 255.514 636.601 242.371C635.089 224.13 610.581 219.829 600.396 230.184C599.76 230.821 599.043 231.697 598.486 232.494C589.495 246.593 587.187 256.39 585.198 281.879C584.561 294.784 584.243 306.891 585.198 319.317C585.834 330.15 587.346 341.222 590.052 353.25H590.211C591.962 361.295 595.463 367.588 600.396 371.491C605.091 375.235 611.377 376.748 618.777 375.075C650.049 363.127 626.257 324.415 604.852 343.134Z" fill="#1B18AC"/>
<path d="M410.698 124.323L410.693 124.322C410.098 124.243 409.502 124.163 408.867 124.084C405.844 131.492 404.173 138.979 403.377 146.069C402.501 156.105 403.297 165.664 404.65 173.709C405.135 173.766 405.652 173.813 406.177 173.86C407.114 173.946 408.08 174.033 408.947 174.187C410.618 174.426 412.209 174.664 413.642 174.903C414.596 169.248 416.347 162.318 418.655 155.149C421.599 146.387 425.498 137.227 430.033 129.899C430.352 129.421 430.67 128.943 431.147 128.465C430.981 128.417 430.821 128.37 430.669 128.324C430.312 128.217 429.994 128.122 429.715 128.067C423.986 126.473 418.257 125.279 412.528 124.562C411.891 124.482 411.294 124.402 410.698 124.323Z" fill="#1B18AC"/>
<path d="M422.872 649.963C423.429 646.379 424.065 642.874 425.179 639.608C427.169 633.953 430.829 628.775 438.309 623.358C438.547 623.12 438.706 622.96 438.945 622.801C438.849 622.801 438.723 622.859 438.586 622.923C438.497 622.965 438.403 623.008 438.309 623.04C433.375 624.633 428.919 626.385 425.179 628.775C420.644 631.722 417.143 635.625 414.755 641.679C413.96 643.67 413.323 646.14 412.766 648.768L414.755 649.007L422.872 649.963Z" fill="#1B18AC"/>
<path d="M361.761 623.119C366.694 624.713 371.15 626.465 374.89 628.854C379.426 631.802 382.927 635.705 385.394 641.759C386.189 643.909 386.826 646.299 387.383 649.007L385.394 649.246L377.198 650.043C376.641 646.378 376.084 642.874 374.89 639.688C372.901 634.032 369.241 628.775 361.761 623.438C361.553 623.161 361.405 623.064 361.213 622.939C361.185 622.92 361.155 622.901 361.124 622.88C361.363 622.88 361.522 622.96 361.761 623.119Z" fill="#1B18AC"/>
<path fill-rule="evenodd" clip-rule="evenodd" d="M400.353 626.863C402.103 626.863 403.695 627.66 405.207 628.854C408.39 631.563 410.538 636.661 410.538 642.555C410.538 648.449 408.39 653.547 405.207 656.256C403.695 657.61 402.103 658.247 400.353 658.247H399.876C398.045 658.247 396.374 657.61 394.942 656.256C391.759 653.547 389.611 648.449 389.611 642.555C389.611 636.661 391.759 631.563 394.942 628.854C396.374 627.66 397.966 626.863 399.876 626.863H400.353ZM395.658 642.555C395.658 646.458 397.409 649.804 400.114 649.804C402.74 649.804 404.411 646.458 404.411 642.555C404.411 638.493 402.82 635.306 400.114 635.306C397.409 635.306 395.658 638.493 395.658 642.555Z" fill="#1B18AC"/>
<path fill-rule="evenodd" clip-rule="evenodd" d="M414.835 219.829C414.875 219.868 414.914 219.908 414.994 219.908C414.864 219.908 414.84 219.961 414.792 220.068L414.791 220.071L414.774 220.107L414.761 220.135L414.755 220.147C411.731 221.661 408.469 222.855 405.286 223.652C403.88 224.1 402.474 224.445 401.151 224.77C400.826 224.849 400.507 224.928 400.194 225.006C399.753 224.896 399.288 224.786 398.808 224.672C397.557 224.375 396.208 224.055 394.942 223.652C391.839 222.855 388.576 221.581 385.393 220.147C385.36 220.147 385.341 220.12 385.318 220.088C385.286 220.043 385.248 219.988 385.155 219.988C385.188 219.988 385.207 219.961 385.229 219.929C385.261 219.883 385.3 219.829 385.393 219.829C389.292 217.439 392.635 213.535 394.942 209.234C395.419 208.278 395.817 207.482 396.056 206.526C396.215 207.801 396.454 208.916 396.852 209.951L396.215 206.925V201.03C395.976 202.225 395.578 203.26 395.021 204.216C392.714 208.677 389.213 212.261 385.473 214.97C384.041 216.085 382.529 217.041 381.096 217.678C378.948 216.483 376.959 214.97 375.049 213.377C373.458 212.022 371.946 210.509 370.752 208.916C372.105 208.916 373.298 208.916 374.492 208.757H375.049C377.914 208.199 381.494 207.004 384.438 205.092L385.552 203.977C389.451 199.995 391.679 193.782 389.69 188.445C388.894 186.613 387.542 184.86 385.552 183.506C384.2 182.55 382.449 181.913 380.46 181.355C382.21 180.878 383.961 180.32 385.552 179.762C388.815 178.807 391.998 178.249 395.101 177.851C396.533 177.691 397.886 177.691 399.398 177.691H400.989C402.501 177.691 403.933 177.691 405.286 177.851C408.469 178.249 411.572 178.807 414.755 179.762C415.735 180.106 416.775 180.419 417.838 180.739C418.502 180.939 419.175 181.141 419.848 181.355C417.858 181.913 416.267 182.55 414.755 183.506C412.766 184.86 411.413 186.533 410.617 188.445C408.628 193.782 411.015 199.995 414.755 203.977C414.994 204.264 415.233 204.465 415.472 204.666C415.631 204.799 415.79 204.933 415.949 205.092C418.734 207.004 422.394 208.199 425.179 208.757H425.736C426.93 208.916 428.123 208.916 429.476 208.916C428.282 210.589 426.771 212.022 425.179 213.377C423.429 214.97 421.28 216.483 419.132 217.678C417.62 216.961 416.187 216.005 414.676 214.97C410.936 212.261 407.514 208.677 405.207 204.216C404.888 203.579 404.57 202.862 404.331 202.066L404.252 206.845C404.411 207.243 404.57 207.622 404.729 208C404.888 208.378 405.048 208.757 405.207 209.155C407.435 213.456 410.777 217.359 414.676 219.749C414.755 219.749 414.795 219.789 414.835 219.829ZM394.862 182.232C392.555 183.904 392.316 186.772 394.862 188.365C395.897 189.162 397.647 189.56 400.114 189.719C402.422 189.56 404.093 189.162 405.207 188.365C407.753 186.772 407.514 183.984 405.207 182.232C404.013 181.276 402.262 180.479 400.114 180.479C397.806 180.479 396.056 181.276 394.862 182.232Z" fill="#1B18AC"/>
<path d="M586.869 354.285C589.415 363.446 593.633 371.57 600.317 376.031C604.454 378.819 609.706 380.014 615.833 379.217C615.402 379.748 614.997 380.261 614.609 380.752C611.27 384.98 609.174 387.633 602.545 386.705C601.749 386.546 600.953 386.386 600.157 386.147C585.914 381.846 582.015 368.942 579.469 356.595L578.116 360.897C581.14 377.226 589.893 386.227 600.078 388.935C601.828 389.333 603.659 389.732 605.568 389.732L601.431 396.821C601.232 396.901 600.993 396.96 600.754 397.02C600.516 397.08 600.277 397.14 600.078 397.219C592.678 398.733 578.912 390.13 579.548 380.571L578.116 384.315C577.559 392.121 593.155 401.521 599.839 399.609L597.452 408.451C594.349 411.955 580.822 408.689 578.912 401.202L576.923 402.636C579.23 409.486 592.916 416.097 598.248 410.283C598.964 410.681 599.6 411.079 600.157 411.637C606.364 416.974 605.091 424.939 600.157 429.479C598.248 431.072 595.861 432.267 593.155 432.825C585.118 433.701 579.31 430.276 576.127 422.788C574.695 419.682 573.74 415.779 573.342 411.079V221.82L551.778 221.979L543.423 222.139L517.562 222.298L510.162 222.457C510.587 222.334 511.01 222.212 511.432 222.092C513.456 221.511 515.455 220.938 517.562 220.147C526.156 217.359 535.386 212.899 543.423 207.402C546.367 205.252 549.232 202.942 551.778 200.552C558.144 194.658 562.679 187.807 563.873 180.32C565.464 183.745 568.249 188.923 570.955 192.109C566.817 200.712 560.451 207.562 551.778 212.261C551.242 212.509 550.685 212.778 550.107 213.057L550.105 213.058L550.098 213.061C549.562 213.32 549.008 213.587 548.436 213.854L549.629 215.607C549.834 215.505 550.033 215.403 550.226 215.303C550.787 215.015 551.305 214.749 551.778 214.571C561.724 209.394 567.056 204.137 572.307 194.737C573.421 196.251 574.774 197.685 576.206 199.198C576.874 199.792 577.403 200.455 577.987 201.187L577.988 201.188L577.989 201.19L578.116 201.349C577.718 202.544 577.002 203.738 576.206 204.933C572.228 210.589 564.668 216.005 563.077 216.244L564.43 217.837C569.363 215.288 573.262 211.783 576.206 208.438C577.718 206.526 578.912 204.774 579.867 203.181C581.291 204.661 583.167 206.519 584.821 208.156L584.823 208.159L584.841 208.176C585.583 208.91 586.279 209.6 586.869 210.19C583.925 211.226 579.787 215.527 579.23 217.678L581.14 219.032C582.333 215.926 585.277 212.978 588.779 211.783L595.383 216.642C591.414 217.967 589.272 221.577 587.542 224.492L587.426 224.688L589.574 226.44C590.529 222.935 594.349 219.351 598.009 218.395L600.317 219.829L604.295 222.537C602.863 223.333 601.51 224.21 600.317 225.245C597.691 227.236 595.622 229.785 593.712 232.892C580.583 254.956 580.424 296.855 582.015 319.237L582.113 320.458L582.114 320.461C582.828 329.342 583.905 342.722 586.869 354.285Z" fill="#1B18AC"/>
<path d="M223.783 422.948C225.216 419.841 226.17 415.938 226.727 411.238L226.568 221.979L248.132 222.139L256.567 222.298L282.348 222.457L289.748 222.616C287.361 221.979 284.894 221.262 282.348 220.307C273.754 217.519 264.524 213.058 256.567 207.562C253.463 205.411 250.678 203.101 248.132 200.711C241.846 194.817 237.231 187.967 236.037 180.479C234.525 183.984 231.581 189.082 229.035 192.268C233.093 200.871 239.379 207.721 248.053 212.421C248.57 212.699 249.147 212.958 249.724 213.217C250.3 213.476 250.877 213.735 251.395 214.014L250.201 215.766C249.966 215.648 249.744 215.531 249.531 215.417C249.022 215.146 248.557 214.899 248.053 214.731C238.106 209.473 232.854 204.296 227.523 194.897C226.409 196.41 225.136 197.844 223.624 199.357C223.067 199.995 222.431 200.711 221.714 201.508C222.112 202.703 222.828 203.898 223.624 205.092C227.603 210.748 235.321 216.085 236.913 216.403L235.48 217.997C230.547 215.448 226.648 211.943 223.704 208.597C222.192 206.686 220.998 205.013 220.043 203.34C218.054 205.491 215.11 208.438 213.041 210.35C215.985 211.385 220.123 215.687 220.68 217.837L218.929 219.191C217.577 216.085 214.633 213.138 211.131 211.943L204.606 216.802C208.585 218.156 210.893 221.9 212.484 224.847L210.336 226.599C209.381 223.094 205.482 219.51 201.901 218.554L199.355 219.988L195.456 222.537C196.808 223.333 198.161 224.289 199.355 225.484C206.596 231.936 211.609 242.689 214.394 255.116C219.327 276.702 219.089 303.068 217.895 319.317C217.258 328.159 216.144 342.258 213.2 354.365C210.495 363.366 206.198 371.411 199.355 375.712C195.058 378.5 189.806 379.855 183.361 378.899C183.728 379.351 184.081 379.794 184.424 380.225C187.948 384.65 190.463 387.808 197.206 386.864C197.35 386.835 197.49 386.809 197.625 386.783C198.236 386.668 198.769 386.567 199.355 386.307C213.837 382.244 217.736 369.26 220.362 356.755L221.555 361.056C218.452 377.545 209.62 386.546 199.275 389.254C197.525 389.652 195.774 389.891 194.023 389.891L198.161 396.98C198.559 397.14 198.798 397.219 199.275 397.378C206.516 399.131 220.839 390.289 220.043 380.731L221.476 384.474C222.033 392.281 206.437 401.68 199.753 399.768L202.14 408.61C205.243 412.115 218.929 408.849 220.68 401.361L222.669 402.795C220.362 409.645 206.675 416.257 201.344 410.442C200.548 410.999 199.912 411.477 199.196 412.035C193.466 417.292 194.501 424.78 199.196 429.32C201.105 431.072 203.652 432.427 206.437 432.984C214.792 433.86 220.521 430.515 223.783 422.948Z" fill="#1B18AC"/>
<path d="M272.004 241.734C273.197 242.132 285.69 248.584 285.69 248.982L285.472 249.162C284.196 250.209 282.993 251.197 283.144 252.328C280.949 250.938 278.755 249.826 276.66 248.764L276.658 248.763C275.031 247.939 273.464 247.144 272.004 246.274L269.617 244.92C268.105 244.283 270.094 240.778 272.004 241.734Z" fill="#1B18AC"/>
<path d="M318.315 263.479L321.1 262.683L322.612 262.045L322.373 261.408L320.065 259.895L303.355 251.053L301.366 249.938C299.616 250.894 298.661 251.531 298.263 253.443L299.015 253.801C304.098 256.218 313.473 260.677 318.315 263.479Z" fill="#1B18AC"/>
<path d="M317.041 270.648L317.996 271.285L321.497 272.878C322.85 267.542 326.988 265.072 329.375 264.674L324.998 262.364C321.656 263.479 317.917 267.701 317.041 270.648Z" fill="#1B18AC"/>
<path d="M329.295 269.453C334.451 271.941 339.801 275.108 344.89 278.12L344.898 278.125C346.325 278.97 347.732 279.803 349.109 280.605C349.904 279.41 351.416 278.454 353.167 277.658L351.416 276.622C347.624 274.748 343.612 272.57 339.639 270.413L339.637 270.412C336.857 268.904 334.097 267.405 331.444 266.028C329.375 266.188 326.829 267.382 329.295 269.453Z" fill="#1B18AC"/>
<path d="M326.829 270.091C324.84 270.25 323.885 272.879 324.283 274.631C330.489 277.578 336.457 281.083 342.345 284.588L345.449 286.579C345.847 284.827 346.483 283.473 347.836 282.039L346.483 281.083C340.117 278.136 332.876 273.834 326.829 270.091Z" fill="#1B18AC"/>
<path d="M350.351 289.323C351.226 289.842 351.769 290.164 352.212 290.164C353.406 284.906 357.305 282.118 359.692 281.322C359.851 281.083 359.294 280.685 358.896 280.525C358.498 280.286 355.793 278.932 355.236 279.012C351.655 280.286 348.711 285.145 347.517 287.774C348.75 288.373 349.656 288.91 350.351 289.323Z" fill="#1B18AC"/>
<path d="M373.036 293.315L373.029 293.311C367.691 290.609 361.948 287.701 358.021 285.544C358.259 283.791 360.806 282.437 362.158 282.756C363.909 283.711 382.29 293.668 386.428 295.66L383.881 297.093L382.449 298.129C379.916 296.798 376.565 295.101 373.036 293.315Z" fill="#1B18AC"/>
<path d="M384.677 307.847L380.937 306.094C382.131 302.032 385.314 298.049 389.372 297.014L393.51 299.164C388.815 300.997 386.826 303.705 384.677 307.847Z" fill="#1B18AC"/>
<path d="M446.902 328.876C448.494 329.911 450.006 332.619 449.051 333.974C448.924 334.1 448.799 334.225 448.674 334.348C448.535 334.485 448.397 334.62 448.26 334.754L448.245 334.77L448.244 334.771C446.285 336.69 444.641 338.302 443.799 341.461L434.807 335.965L386.03 308.962L389.133 304.9L441.173 332.699L442.367 331.902L442.208 331.106L390.566 303.625L395.022 300.28L446.902 328.876Z" fill="#1B18AC"/>
<path d="M469.182 342.576C467.511 342.178 465.761 341.859 464.726 342.417C463.837 342.522 463.635 343.831 463.443 345.078C463.343 345.728 463.246 346.361 463.055 346.798C462.804 347.192 462.666 347.554 462.533 347.906C462.369 348.336 462.212 348.749 461.862 349.187C461.492 349.689 461.07 350.139 460.657 350.579C459.823 351.467 459.024 352.318 458.758 353.489C458.537 354.542 459.125 355.557 459.691 356.534C459.938 356.96 460.18 357.379 460.35 357.79L457.963 359.383L455.257 354.684C454.976 354.122 455.488 353.401 455.953 352.745C456.147 352.472 456.334 352.21 456.451 351.975C456.737 351.37 456.973 350.776 457.204 350.196C457.549 349.327 457.883 348.486 458.36 347.674C458.696 347.136 459.132 346.654 459.565 346.176C460.157 345.521 460.744 344.872 461.066 344.09C461.702 342.735 462.419 341.142 461.862 339.788C461.464 338.912 459.872 338.593 458.758 338.753C457.803 338.753 456.61 339.39 456.053 340.187C455.503 341.104 455.375 342.022 455.237 343.011C455.196 343.31 455.153 343.616 455.098 343.93C454.939 344.727 454.223 345.125 453.188 344.886L447.3 343.134C446.743 342.815 446.743 342.178 446.902 341.78L449.051 337.638C451.597 333.177 458.838 334.611 461.384 336.124C462.145 336.488 462.782 337.073 463.41 337.649C464.292 338.458 465.155 339.25 466.318 339.39L467.199 339.562C480.745 342.211 494.182 344.838 509.525 349.984C510.082 350.064 510.639 351.975 510.639 351.975L511.037 355.878L469.182 342.576Z" fill="#1B18AC"/>
<path d="M504.034 370.933C496.875 366.887 490.807 363.165 485.424 359.864L485.423 359.863C478.302 355.496 472.379 351.864 466.715 349.188C466.477 348.949 466.477 348.232 466.875 347.993C467.045 347.879 467.378 348.05 467.7 348.215L467.707 348.219C467.742 348.236 467.776 348.254 467.81 348.271C467.852 348.292 467.893 348.312 467.933 348.332C467.98 348.353 468.025 348.374 468.068 348.391C468.864 348.63 469.5 348.949 470.216 349.347C476.166 352.306 481.799 355.688 487.404 359.053C493.719 362.845 500 366.616 506.66 369.738C506.899 370.137 507.297 370.376 507.854 370.376C511.196 367.986 513.265 358.826 509.764 358.029L503.637 356.436C503.637 356.436 497.35 353.648 496.634 353.489C494.888 352.863 493.095 352.15 491.273 351.424C486.369 349.473 481.253 347.437 476.264 346.798C473.877 346.24 471.728 345.444 469.739 344.488C469.282 344.322 468.863 344.123 468.465 343.934C467.339 343.399 466.379 342.944 465.203 343.532C464.763 343.807 464.856 344.387 464.955 345.009C464.999 345.286 465.044 345.572 465.044 345.842C465.044 346.046 465.061 346.258 465.078 346.479C465.114 346.947 465.152 347.452 465.044 347.993C464.885 348.55 464.646 349.028 464.408 349.506C463.851 350.462 464.408 351.657 466.397 352.294C476.259 357.975 483.069 362.815 489.628 367.477L489.629 367.478L489.631 367.48L489.634 367.481C492.545 369.551 495.407 371.585 498.464 373.641C498.594 373.679 498.719 373.717 498.841 373.755L498.847 373.756C500.533 374.27 501.731 374.634 506.103 371.889C505.436 371.288 505.049 371.191 504.426 371.035L504.421 371.033L504.358 371.018C504.314 371.007 504.269 370.995 504.222 370.983C504.162 370.967 504.1 370.951 504.034 370.933Z" fill="#1B18AC"/>
<path d="M517.005 352.374C516.766 351.577 513.265 349.586 512.947 350.621C512.993 351.203 513.055 351.84 513.121 352.521C513.847 360.034 515.086 372.844 501.807 375.473C501.568 375.633 501.409 376.111 501.568 376.509C503.557 378.261 504.91 378.5 506.82 378.102C517.642 374.119 520.267 362.41 517.005 352.374Z" fill="#1B18AC"/>
<path d="M527.588 354.365C527.486 354.263 527.351 354.226 527.226 354.192L527.183 354.18L527.167 354.176L527.144 354.169L527.128 354.164L527.113 354.159C527.084 354.15 527.056 354.139 527.031 354.126C524.883 353.569 522.654 353.17 520.347 352.931C520.108 352.931 519.79 353.091 519.71 353.33C519.551 353.33 519.472 353.489 519.472 353.568V354.126C519.543 354.375 519.661 354.591 519.777 354.805C519.922 355.07 520.064 355.33 520.108 355.64C520.269 356.176 520.285 356.712 520.303 357.297C520.312 357.581 520.321 357.876 520.347 358.188C520.395 358.38 520.435 358.586 520.478 358.8L520.478 358.802L520.478 358.803L520.479 358.806C520.576 359.302 520.682 359.84 520.904 360.339C521.094 361.545 521.738 361.689 522.676 361.899C522.916 361.952 523.175 362.01 523.45 362.092C524.405 362.331 525.44 362.49 526.554 362.649C527.906 362.808 528.861 362.888 528.861 361.215C528.861 360.102 528.732 359.031 528.6 357.941L528.6 357.938L528.6 357.936L528.599 357.934L528.572 357.71C528.554 357.558 528.536 357.405 528.518 357.252C528.499 357.087 528.481 356.921 528.463 356.755C528.446 356.658 528.43 356.56 528.415 356.461C528.406 356.4 528.397 356.338 528.388 356.276C528.281 355.547 528.175 354.822 527.588 354.365Z" fill="#1B18AC"/>
<path d="M526.394 365.278C526.036 365.152 525.581 364.922 525.092 364.674C523.405 363.82 521.302 362.755 521.302 365.039C521.302 367.03 521.142 367.747 519.869 369.579C519.692 369.828 519.452 370.076 519.204 370.331L519.203 370.333C518.895 370.651 518.578 370.979 518.357 371.332C517.8 371.969 517.562 372.765 517.403 373.642C517.053 374.902 520.335 375.917 521.943 376.414L521.945 376.415C522.164 376.483 522.352 376.541 522.495 376.589C522.547 376.602 522.603 376.616 522.663 376.632L522.668 376.633L522.671 376.634C523.354 376.81 524.532 377.113 525.042 376.748C525.443 376.461 525.679 375.967 525.928 375.445C526.025 375.243 526.124 375.037 526.235 374.836C526.314 374.627 526.383 374.401 526.456 374.166C526.604 373.685 526.764 373.167 527.031 372.686C527.146 372.494 527.335 372.394 527.518 372.298C527.714 372.195 527.903 372.095 527.986 371.889C528.384 370.694 528.543 369.499 528.622 368.384C528.702 366.234 527.906 365.756 526.394 365.278Z" fill="#1B18AC"/>
<path d="M520.619 378.096C518.544 376.988 517.218 376.279 514.459 376.907C514.459 376.907 512.31 378.102 511.912 378.102C509.127 378.66 509.605 380.492 511.753 381.288C512.39 381.527 516.209 382.403 517.005 382.483C517.96 382.483 520.904 382.244 521.54 381.926C522.177 381.687 522.734 381.129 523.291 380.492C523.324 380.459 523.367 380.423 523.413 380.384C523.59 380.234 523.815 380.044 523.689 379.854C523.479 379.435 523.024 379.261 522.646 379.116L522.578 379.09C522.55 379.079 522.522 379.069 522.495 379.058C521.788 378.721 521.178 378.395 520.621 378.097L520.619 378.096Z" fill="#1B18AC"/>
<path d="M360.939 294.654L360.936 294.653L360.924 294.646C358.355 293.21 356.224 292.019 355.156 291.438C354.918 291.279 354.52 287.933 357.464 287.057C358.18 287.527 360.69 288.909 363.81 290.629L363.812 290.629C370.747 294.45 380.699 299.934 380.699 300.758C380.699 301.182 380.381 301.501 380.05 301.831C379.885 301.997 379.717 302.165 379.585 302.351L379.556 302.418L379.526 302.489L379.482 302.597L379.459 302.653C379.279 303.088 379.113 303.489 378.789 303.944C378.726 303.975 378.676 304.019 378.628 304.061C378.555 304.124 378.488 304.183 378.391 304.183C375.97 303.055 367.173 298.139 360.939 294.654Z" fill="#1B18AC"/>
<path d="M294.205 246.035C294.602 246.035 298.979 247.947 299.138 248.584C296.83 249.858 292.772 253.443 291.817 256.788L286.486 253.682L287.123 251.929C288.555 249.54 291.499 246.433 294.205 246.035Z" fill="#1B18AC"/>
<path d="M317.201 266.586L314.416 267.382C309.323 264.435 299.297 259.576 294.363 257.346C294.761 255.434 295.716 254.797 297.467 253.841L299.456 254.956L316.166 263.798L318.474 265.311L318.712 265.949L317.201 266.586Z" fill="#1B18AC"/>
<path d="M532.044 242.052C531.009 242.45 519.074 248.664 519.074 249.062L519.233 249.2C520.385 250.196 521.62 251.266 521.62 252.407C523.746 251.049 525.923 249.922 528.02 248.837L528.021 248.836C529.613 248.013 531.159 247.213 532.601 246.354C532.927 246.027 533.293 245.741 533.65 245.461C534.164 245.06 534.659 244.673 534.988 244.203C536.818 243.088 533.635 241.256 532.044 242.052Z" fill="#1B18AC"/>
<path d="M486.449 263.479H488.598L491.94 261.09L504.989 254.239L506.581 252.646L506.183 252.089L505.546 251.451L504.114 249.938L502.921 249.779L501.488 250.973L484.699 259.815L482.391 261.329L482.152 261.966L483.585 262.603L486.449 263.479Z" fill="#1B18AC"/>
<path d="M481.595 270.011L479.606 266.904L477.219 266.267L475.07 265.63L475.309 264.993L479.606 262.603L481.197 263.24L484.141 265.63L487.086 268.577L487.643 270.17L486.688 271.365L484.539 272.958C484.539 272.958 483.903 272.162 483.744 272.321L481.595 270.011Z" fill="#1B18AC"/>
<path d="M453.825 279.331L456.133 280.525L459.475 278.534L464.806 275.427L469.182 272.48L474.832 269.692L475.866 268.736L474.832 267.143L472.286 266.506L470.376 267.462L465.124 270.17L459.872 273.117L453.029 276.622L451.279 277.658L451.677 278.375L453.825 279.331Z" fill="#1B18AC"/>
<path d="M477.299 270.489H478.492L479.447 272.64L480.084 273.994L479.845 275.348L471.888 279.092C471.888 279.092 466.795 281.64 466.159 282.278C465.442 282.915 462.26 284.667 462.26 284.667L459.554 286.26L458.997 286.021L458.042 285.066L457.247 283.154L456.69 282.118L458.042 281.163L461.941 279.251L466.397 276.543L470.694 274.392L474.752 272.082L477.299 270.489Z" fill="#1B18AC"/>
<path d="M446.345 281.879C448.896 283.189 449.135 283.691 450.023 285.553C450.215 285.956 450.438 286.424 450.722 286.977C450.788 287.088 450.892 287.386 451.021 287.754C451.354 288.708 451.854 290.141 452.313 290.084C452.832 290.084 453.249 289.678 453.653 289.285C453.869 289.075 454.081 288.868 454.303 288.73C454.68 288.568 455.058 288.369 455.411 288.183C455.578 288.095 455.74 288.01 455.894 287.933C456.489 287.636 456.416 287.56 456.176 287.308C456.095 287.223 455.994 287.118 455.894 286.977C455.834 286.878 455.77 286.778 455.705 286.679C455.511 286.38 455.317 286.081 455.257 285.783C455.162 285.605 455.067 285.43 454.974 285.256C453.524 282.551 452.351 280.364 449.21 279.092C449.051 278.985 448.821 279.092 448.591 279.198C448.476 279.251 448.361 279.304 448.255 279.331C447.972 279.449 447.688 279.553 447.409 279.656C446.747 279.899 446.109 280.133 445.55 280.525C445.152 280.685 444.595 281.083 444.754 281.322C445.072 281.767 445.541 281.806 446.001 281.844C446.118 281.854 446.233 281.863 446.345 281.879Z" fill="#1B18AC"/>
<path d="M422.235 298.129L423.826 297.731C424.587 297.207 425.334 296.662 426.083 296.115L426.09 296.11L426.091 296.109L426.096 296.106C427.85 294.825 429.621 293.532 431.624 292.474C432.733 291.857 433.906 291.452 435.098 291.041C436.216 290.655 437.351 290.264 438.467 289.686C438.865 289.486 439.164 289.148 439.462 288.809C439.761 288.471 440.059 288.132 440.457 287.933C440.862 287.649 441.372 287.551 441.9 287.449C442.408 287.352 442.933 287.251 443.401 286.977L445.549 285.623L444.754 284.269C444.488 284.136 444.223 283.942 443.958 283.747C443.427 283.357 442.897 282.968 442.366 283.074C441.127 283.333 440.022 284.061 438.964 284.758C438.392 285.135 437.832 285.503 437.274 285.783C436.844 285.998 436.427 286.189 436.021 286.375L436.019 286.375L436.018 286.376C435.372 286.672 434.756 286.954 434.171 287.296C433.07 287.814 432.075 288.491 431.1 289.154C430.876 289.306 430.653 289.457 430.431 289.606C429.958 289.944 429.5 290.282 429.05 290.613C428.439 291.064 427.843 291.503 427.248 291.916L423.11 293.907C423.11 293.907 418.8 295.833 418.658 295.821L418.654 295.819C418.654 295.82 418.654 295.82 418.655 295.82L418.656 295.821L418.658 295.821L420.803 297.173L422.235 298.129Z" fill="#1B18AC"/>
<path d="M423.747 306.015L420.087 307.767C417.779 303.625 415.79 300.997 411.175 299.005L415.312 296.855C419.45 297.97 422.633 301.952 423.747 306.015Z" fill="#1B18AC"/>
<path d="M409.663 300.678L412.448 303.386L409.106 305.457L405.048 303.147L408.549 300.837L409.663 300.678Z" fill="#1B18AC"/>
<path d="M363.511 332.779L362.397 331.982L362.557 331.186L390.725 315.334L386.03 312.945L370.434 321.866L357.703 328.876C356.111 329.991 355.713 332.062 356.589 333.416C356.76 333.588 356.929 333.756 357.096 333.921C359.163 335.974 360.786 337.586 361.522 340.903L369.718 335.965L391.202 323.857L398.682 319.875L392.794 316.927L363.511 332.779Z" fill="#1B18AC"/>
<path d="M343.379 336.921C345.926 335.407 352.212 334.451 354.758 338.912L357.066 342.974C357.225 343.373 357.225 344.09 356.827 344.329L351.894 345.523C350.62 345.762 350.143 345.364 349.984 344.568C349.798 344.041 349.709 343.538 349.622 343.05C349.486 342.284 349.356 341.554 348.87 340.824C348.313 339.948 347.278 339.31 346.164 339.31C345.05 339.231 343.459 339.47 343.061 340.426C342.559 341.645 343.155 343.059 343.685 344.317L343.686 344.318C343.744 344.457 343.802 344.593 343.857 344.727C344.159 345.418 344.694 346.015 345.248 346.632C345.716 347.154 346.198 347.691 346.562 348.311C347.257 349.493 347.709 350.736 348.183 352.039C348.252 352.229 348.322 352.42 348.392 352.613C348.511 352.851 348.716 353.118 348.929 353.396C349.429 354.048 349.976 354.763 349.586 355.321L346.881 360.021L344.573 358.427C344.712 357.954 344.958 357.471 345.209 356.978C345.676 356.061 346.16 355.11 346.005 354.126C345.784 352.909 344.91 351.999 344.023 351.076C343.634 350.67 343.242 350.262 342.902 349.825C342.599 349.391 342.437 349.005 342.263 348.589C342.117 348.24 341.962 347.871 341.708 347.435C341.478 347.002 341.362 346.339 341.244 345.662C341.036 344.47 340.82 343.235 339.958 343.134C338.844 342.656 337.252 342.895 335.661 343.293L293.806 356.595L294.045 352.692C294.045 352.692 294.522 350.86 295.079 350.701C310.423 345.555 323.86 342.928 337.406 340.279L338.287 340.107C339.418 339.971 340.292 339.217 341.186 338.446C341.865 337.86 342.555 337.264 343.379 336.921Z" fill="#1B18AC"/>
<path d="M339.684 347.258C339.648 347.718 339.613 348.179 339.719 348.71C339.719 349.028 339.823 349.347 339.927 349.665C340.005 349.904 340.083 350.143 340.117 350.382C340.674 351.258 340.117 352.533 338.128 353.17C337.55 353.437 336.898 353.605 336.254 353.77C335.746 353.901 335.242 354.03 334.786 354.206C330.84 355.271 329.606 356.14 327.824 357.393C327.342 357.732 326.819 358.1 326.192 358.507C324.704 359.5 322.949 360.965 321.071 362.534L321.07 362.535C318.127 364.993 314.88 367.705 311.869 369.26C311.313 369.817 310.712 370.281 310.101 370.752C309.575 371.158 309.042 371.569 308.527 372.048C307.652 372.845 306.856 373.641 306.219 374.438L304.469 374.597C304.392 374.555 304.317 374.513 304.245 374.474C302.836 373.693 302.395 373.449 300.729 374.358L300.712 374.358L300.685 374.359C300.653 374.36 300.613 374.361 300.564 374.363L300.561 374.363C299.692 374.396 296.324 374.52 297.785 372.765C298.312 372.178 299.013 372.067 299.727 371.954C299.982 371.913 300.239 371.872 300.49 371.809C301.446 371.441 302.249 371.005 303.033 370.58C303.945 370.085 304.831 369.603 305.901 369.26C308.2 368.48 311.49 365.963 314.913 363.344C318.481 360.614 322.195 357.773 325.078 356.675C325.874 355.958 326.669 355.321 327.465 354.763C329.009 353.901 330.698 353.233 332.357 352.577C334.377 351.779 336.353 350.997 337.969 349.904C338.207 349.745 338.048 349.028 337.809 348.789C337.511 348.67 337.123 348.864 336.78 349.036C336.666 349.093 336.556 349.148 336.457 349.187C336.198 349.317 335.9 349.433 335.595 349.552C335.148 349.726 334.686 349.907 334.308 350.143C333.917 350.303 333.52 350.463 333.121 350.623C331.329 351.344 329.49 352.085 327.863 352.931C327.786 353.008 327.701 353.102 327.613 353.198C327.428 353.402 327.229 353.62 327.067 353.728C326.671 353.86 326.25 353.87 325.845 353.88C325.519 353.888 325.203 353.896 324.919 353.967C324.203 354.046 323.566 354.206 323.009 354.604C318.983 357.861 315.301 360.238 311.381 362.77C309.645 363.891 307.861 365.042 305.981 366.313C304.71 367.029 303.379 367.685 302.029 368.351L302.027 368.352C300.673 369.02 299.298 369.698 297.944 370.455C296.75 371.491 295.318 371.331 294.204 369.898L293.965 365.596L292.851 363.047C291.658 360.339 292.294 359.543 294.841 358.746L300.888 357.153C300.888 357.153 307.333 354.365 307.89 354.206C308.447 353.967 318.076 350.621 318.076 350.621C321.418 349.108 324.601 348.072 328.261 347.515C330.807 346.957 332.956 346.161 334.865 345.205C335.246 345.049 335.6 344.878 335.939 344.714L335.941 344.713L335.942 344.713L335.944 344.712C337.163 344.123 338.192 343.626 339.56 344.249C340 344.493 339.9 345.008 339.793 345.553C339.727 345.896 339.658 346.251 339.719 346.559C339.719 346.798 339.701 347.028 339.684 347.258Z" fill="#1B18AC"/>
<path d="M299.852 375.909C298.983 375.939 298.118 375.969 297.387 375.712C296.818 375.57 296.362 375.201 295.918 374.842C295.617 374.599 295.321 374.36 295 374.199C294.846 374.107 294.633 374.05 294.415 373.992C294.07 373.901 293.714 373.806 293.568 373.562C293.289 373.243 293.149 372.564 293 371.836C292.851 371.11 292.692 370.335 292.374 369.818C292.151 369.5 291.865 369.219 291.576 368.937C291.143 368.512 290.703 368.082 290.464 367.508C290.057 366.641 290.008 365.122 289.963 363.723C289.938 362.936 289.914 362.187 289.828 361.614C289.76 361.272 289.647 360.931 289.535 360.589C289.386 360.134 289.237 359.679 289.191 359.224C289.191 358.848 289.372 358.545 289.538 358.265C289.619 358.13 289.696 358 289.748 357.87C291.101 356.356 291.18 355.958 291.34 354.126C291.37 353.755 291.473 353.383 291.574 353.021C291.732 352.452 291.883 351.905 291.737 351.418C291.499 350.382 287.998 352.374 287.838 353.17C287.441 354.126 287.281 354.763 287.202 355.879C287.122 356.554 287.023 357.23 286.924 357.906L286.924 357.907L286.923 357.909C286.824 358.586 286.724 359.264 286.645 359.941C286.645 360.357 286.69 360.773 286.735 361.183C286.792 361.714 286.849 362.234 286.804 362.729C286.804 363.038 286.71 363.329 286.614 363.628C286.512 363.945 286.406 364.272 286.406 364.641C286.253 367.301 286.756 367.924 287.557 368.916C288.004 369.468 288.542 370.135 289.112 371.331C289.39 371.929 289.629 372.566 289.867 373.203C290.106 373.84 290.345 374.478 290.623 375.075C292.486 377.328 293.742 377.384 295.427 377.459L295.557 377.465C295.955 377.465 296.512 377.465 296.91 377.704C297.195 377.826 297.334 378.094 297.466 378.348C297.592 378.591 297.711 378.821 297.944 378.899C299.933 379.297 301.127 379.058 303.196 377.306L303.184 377.246C303.108 376.861 303.021 376.421 302.718 376.27C301.901 375.839 300.874 375.874 299.852 375.909Z" fill="#1B18AC"/>
<path d="M278.888 363.25L278.887 363.25L278.885 363.251L278.882 363.251C278.602 363.288 278.324 363.324 278.051 363.366L277.916 363.382C276.646 363.534 275.9 363.623 275.823 361.853C275.823 360.419 275.903 358.905 276.062 357.312C276.095 357.182 276.124 357.038 276.155 356.887L276.155 356.886C276.274 356.3 276.415 355.605 276.858 355.162C277.024 355.12 277.126 355.057 277.207 355.005C277.281 354.959 277.339 354.923 277.415 354.923C279.643 354.365 281.791 353.967 284.099 353.728C284.338 353.728 284.656 353.887 284.895 354.126C284.895 354.126 285.054 354.206 285.054 354.365C285.213 354.524 285.213 354.763 285.213 354.923C285.139 355.145 284.996 355.35 284.848 355.562C284.678 355.806 284.502 356.058 284.417 356.356C284.389 356.634 284.371 356.912 284.353 357.196C284.318 357.727 284.282 358.283 284.179 358.905C284.133 359.089 284.087 359.292 284.039 359.503C283.921 360.027 283.792 360.602 283.622 361.056C283.429 362.28 282.872 362.41 281.951 362.625C281.732 362.676 281.493 362.732 281.234 362.808C280.474 363.043 279.671 363.148 278.888 363.25Z" fill="#1B18AC"/>
<path d="M287.282 374.358C287.043 373.562 286.725 372.765 286.327 372.048C286.106 371.694 285.786 371.364 285.464 371.032C285.207 370.767 284.947 370.499 284.735 370.216C283.542 368.464 283.224 367.827 283.224 365.756C283.224 363.49 281.155 364.566 279.548 365.402C279.064 365.654 278.621 365.884 278.29 365.995C276.699 366.552 275.903 366.95 275.983 369.101C275.983 370.137 276.142 371.411 276.54 372.606C276.619 372.805 276.818 372.905 277.017 373.004C277.216 373.104 277.415 373.203 277.494 373.402C277.704 373.738 277.847 374.118 277.994 374.507C278.126 374.856 278.261 375.214 278.449 375.553C278.688 376.27 279.006 377.067 279.643 377.465C280.153 377.829 281.33 377.526 282.014 377.35C282.077 377.334 282.135 377.319 282.189 377.306C282.322 377.264 282.487 377.215 282.674 377.16C284.279 376.686 287.567 375.714 287.282 374.358Z" fill="#1B18AC"/>
<path d="M290.146 377.783C290.146 377.783 292.295 378.978 292.692 378.978C295.477 379.456 295.08 381.368 293.011 382.244C292.135 382.483 288.396 383.28 287.6 383.439C286.725 383.439 283.86 383.12 283.064 382.881C282.508 382.634 282.096 382.194 281.678 381.748C281.558 381.621 281.438 381.492 281.314 381.368C281.155 381.288 280.757 380.97 280.916 380.731C281.11 380.277 281.516 380.139 281.875 380.018L281.877 380.017L281.879 380.017L281.882 380.016C281.912 380.005 281.942 379.995 281.971 379.985C281.994 379.977 282.017 379.969 282.039 379.961C282.063 379.952 282.086 379.943 282.109 379.934C282.817 379.597 283.428 379.27 283.985 378.973C286.06 377.864 287.386 377.156 290.146 377.783Z" fill="#1B18AC"/>
<path d="M412.846 305.935C412.308 306.274 411.771 306.612 411.493 306.732L415.869 309.679L417.461 308.484C416.923 307.892 416.513 307.364 416.159 306.909C415.465 306.016 414.989 305.402 414.198 305.139C413.92 305.258 413.384 305.596 412.847 305.934L412.846 305.935Z" fill="#1B18AC"/>
<path d="M446.743 287.455C447.141 287.137 447.539 287.137 447.937 287.296C448.215 287.574 448.377 287.97 448.53 288.346C448.596 288.508 448.661 288.666 448.733 288.809C448.793 288.95 448.863 289.095 448.934 289.243C449.146 289.682 449.369 290.144 449.369 290.562C449.528 290.96 449.21 291.199 448.971 291.358C448.467 291.661 447.962 291.836 447.417 292.025C447.103 292.134 446.774 292.248 446.425 292.394L446.066 292.543C444.162 293.336 441.465 294.458 439.821 295.58C439.65 295.751 439.571 295.944 439.497 296.124C439.434 296.28 439.374 296.425 439.264 296.536C438.276 297.475 436.248 298.444 434.395 299.33C433.26 299.873 432.191 300.384 431.466 300.837C430.956 301.143 430.463 301.449 429.979 301.75L429.977 301.751L429.973 301.753C428.946 302.391 427.956 303.005 426.93 303.545C426.811 303.625 426.711 303.725 426.612 303.824C426.512 303.924 426.413 304.023 426.293 304.103C425.975 304.103 425.896 304.023 425.736 303.864C425.412 303.41 425.246 303.008 425.067 302.573L425.014 302.446L424.979 302.361L424.941 302.271C424.813 302.122 424.675 301.985 424.54 301.851C424.169 301.484 423.827 301.145 423.827 300.678C423.827 300.2 424.543 299.802 424.941 299.642C425.801 299.176 426.709 298.807 427.629 298.432C428.753 297.976 429.895 297.511 430.988 296.855C431.466 296.576 431.903 296.237 432.341 295.899C432.779 295.56 433.216 295.222 433.694 294.943L433.998 294.763C435.228 294.038 436.342 293.381 437.593 292.792C440.69 291.515 442.582 290.239 444.684 288.821C445.336 288.381 446.009 287.927 446.743 287.455Z" fill="#1B18AC"/>
<path d="M508.809 251.451L510.719 253.761L512.469 255.753C512.469 255.593 513.106 256.31 513.106 256.31L514.3 255.673L516.289 254.717L517.482 253.682L517.085 252.646C517.085 252.646 515.334 250.496 514.697 250.257C514.061 249.858 511.753 247.548 511.753 247.548C510.56 245.955 505.706 247.309 505.547 248.743C505.388 248.982 505.388 249.301 505.388 249.38L506.9 250.177L508.809 251.451Z" fill="#1B18AC"/>
<path d="M492.019 267.781H489.871L487.006 266.904L485.574 266.267L485.813 265.63L488.12 264.116L504.91 255.275L506.342 254.08L507.536 254.239L508.968 255.753L509.605 256.39L510.003 256.948L508.411 258.541L495.361 265.391L492.019 267.781Z" fill="#1B18AC"/>
</svg>
