<svg xmlns="http://www.w3.org/2000/svg" viewBox="0 0 600 180" width="100%" height="100%">
  <rect width="600" height="180" rx="20" fill="#ffffff" fill-opacity="0.1"/>
  <g fill="#ffffff">
    <path d="M173.5,56.5c0-7.3,3.8-14.2,10-18c-3.9-5.6-10.3-9.3-17.6-9.3c-7.5-0.8-14.7,4.3-18.5,4.3c-3.8,0-9.7-4.2-16-4.1c-8.2,0.1-15.8,4.8-20,12.2c-8.5,14.8-2.2,36.7,6.1,48.7c4.1,5.9,8.9,12.5,15.3,12.3c6.1-0.2,8.5-4,15.9-4c7.4,0,9.5,4,16,3.9c6.6-0.1,10.8-6,14.8-11.9c4.7-6.8,6.6-13.4,6.7-13.7C186.1,76.8,173.5,70.2,173.5,56.5z"/>
    <path d="M162.9,28.3c3.4-4.1,5.7-9.8,5.1-15.5c-4.9,0.2-10.9,3.3-14.4,7.4c-3.2,3.7-5.9,9.5-5.2,15.1C153.5,35.7,159.5,32.4,162.9,28.3z"/>
    <path d="M232.8,94.1h-21.7l-5.2,15.4h-9.2l20.6-57h9.5l20.6,57h-9.4L232.8,94.1z M213.4,87h17.1l-8.4-24.8h-0.2L213.4,87z"/>
    <path d="M296.7,85.5c0,14.8-7.9,24.3-19.9,24.3c-6.8,0-12.2-3-15-8.3h-0.2v23.5h-8.5V61.7h8.2v7.9h0.2c2.9-5.1,8.5-8.3,15.2-8.3C288.8,61.3,296.7,70.8,296.7,85.5z M287.9,85.5c0-9.6-5-16-12.5-16c-7.4,0-12.4,6.5-12.4,16c0,9.6,5,16,12.4,16C282.9,101.5,287.9,95.2,287.9,85.5z"/>
    <path d="M347.7,85.5c0,14.8-7.9,24.3-19.9,24.3c-6.8,0-12.2-3-15-8.3h-0.2v23.5h-8.5V61.7h8.2v7.9h0.2c2.9-5.1,8.5-8.3,15.2-8.3C339.8,61.3,347.7,70.8,347.7,85.5z M338.9,85.5c0-9.6-5-16-12.5-16c-7.4,0-12.4,6.5-12.4,16c0,9.6,5,16,12.4,16C333.9,101.5,338.9,95.2,338.9,85.5z"/>
    <path d="M354.2,52.6h8.5v57h-8.5V52.6z"/>
    <path d="M401.5,101.5c-1.1,7.3-8.3,12.3-17.5,12.3c-11.8,0-19.1-7.9-19.1-20.6c0-12.7,7.4-21,18.8-21c11.3,0,18.3,7.8,18.3,20.1v2.9h-28.6v0.5c0,7,4.4,11.6,10.8,11.6c4.6,0,8.1-2.2,9.2-5.8H401.5z M373.5,88.9h20.1c-0.2-6.3-4.2-10.4-9.9-10.4C378.1,78.5,373.9,82.7,373.5,88.9z"/>
  </g>
  <g fill="#ffffff">
    <path d="M226.5,140.5v-28.2h6.9l8.7,20.6h0.1l8.7-20.6h6.9v28.2h-5.3v-20.1h-0.1l-8.2,20.1h-4.1l-8.2-20.1h-0.1v20.1H226.5z"/>
    <path d="M267.9,140.5v-21.1h5.1v3.4h0.1c0.9-2.3,3-3.8,5.8-3.8c0.7,0,1.3,0.1,1.7,0.2v4.8c-0.4-0.2-1.2-0.3-2.2-0.3c-3.2,0-5.2,2.1-5.2,5.5v11.3H267.9z"/>
    <path d="M297.4,140.9c-6.2,0-10.1-4.2-10.1-10.9c0-6.7,3.9-10.9,10.1-10.9c6.2,0,10.1,4.2,10.1,10.9C307.5,136.7,303.6,140.9,297.4,140.9z M297.4,136.9c3.1,0,4.9-2.5,4.9-6.9c0-4.4-1.8-6.9-4.9-6.9c-3.1,0-4.9,2.5-4.9,6.9C292.5,134.4,294.3,136.9,297.4,136.9z"/>
    <path d="M325.9,140.5v-3.4h-0.1c-1.1,2.3-3.5,3.8-6.9,3.8c-5.5,0-9-4.2-9-10.9c0-6.6,3.5-10.9,9-10.9c3.3,0,5.7,1.4,6.8,3.8h0.1v-3.4h5.2v21.1H325.9z M320.1,136.9c3.1,0,4.9-2.5,4.9-6.9c0-4.4-1.8-6.9-4.9-6.9c-3.1,0-4.9,2.5-4.9,6.9C315.2,134.4,317,136.9,320.1,136.9z"/>
    <path d="M349.9,140.5v-28.2h5.2v28.2H349.9z"/>
    <path d="M364.7,140.5v-21.1h5.1v3.4h0.1c0.9-2.3,3-3.8,5.8-3.8c0.7,0,1.3,0.1,1.7,0.2v4.8c-0.4-0.2-1.2-0.3-2.2-0.3c-3.2,0-5.2,2.1-5.2,5.5v11.3H364.7z"/>
  </g>
</svg> 