<svg width="160" height="120" viewBox="0 0 160 120" fill="none" xmlns="http://www.w3.org/2000/svg">
<path fill-rule="evenodd" clip-rule="evenodd" d="M112.381 7.96173C117.42 8.75973 122.326 10.0477 127.008 12.1127C128.69 12.8547 129.06 13.4617 128.666 15.1707C128.147 17.4238 127.64 19.6804 127.133 21.9371L127.133 21.9374C125.746 28.1078 124.359 34.2791 122.723 40.3827C121.215 46.0055 119.808 51.6519 118.401 57.298C117.337 61.5679 116.272 65.8376 115.165 70.0967C111.642 83.6407 107.716 97.0657 102.677 110.144C102.021 111.847 101.07 112.754 99.2929 113.264C94.5678 114.62 89.8684 116.069 85.1696 117.517L85.1686 117.518L85.1657 117.519L85.1628 117.519L85.1598 117.52L85.1569 117.521L85.154 117.522L85.1511 117.523L85.1505 117.523L85.1498 117.523L85.1492 117.524L85.1486 117.524L85.148 117.524L85.1474 117.524L85.1468 117.524L85.1461 117.525C83.3771 118.07 81.6082 118.615 79.838 119.156L79.7346 119.187C78.88 119.448 78.0203 119.711 76.963 119.761C76.8169 119.727 76.6573 119.691 76.4883 119.654L76.4875 119.654C76.0907 119.565 75.6426 119.466 75.199 119.351C62.815 116.156 50.4949 112.734 38.3059 108.848C33.8119 107.415 29.5109 105.549 25.3059 103.44C25.0599 103.318 24.817 103.192 24.579 103.06C22.866 102.119 22.685 101.695 23.379 99.9077C23.8399 98.722 24.2955 97.534 24.7511 96.346L24.7511 96.346L24.7511 96.3459L24.7512 96.3458L24.7512 96.3458L24.7512 96.3457L24.7513 96.3456L24.7513 96.3456L24.7513 96.3455L24.7513 96.3454L24.7514 96.3453L24.7514 96.3453L24.7514 96.3452L24.7515 96.3451L24.7519 96.344C25.999 93.0921 27.246 89.8403 28.603 86.6357C33.479 75.1257 37.144 63.2367 40.073 51.1017C41.1026 46.8327 42.2319 42.5888 43.3612 38.3447L43.3613 38.3444C44.635 33.5577 45.9089 28.7706 47.04 23.9467C48.5356 17.5588 49.6221 11.1026 50.7091 4.64271L50.795 4.13274L50.808 4.05487C50.8665 3.70437 50.9254 3.35148 51.025 3.01073C51.479 1.44073 52.131 0.915733 53.748 1.01073C55.5548 1.11539 57.3568 1.28804 59.159 1.46072L59.1591 1.46073L59.797 1.52173C65.6384 2.07401 71.4537 2.84462 77.2693 3.61528C82.1314 4.25958 86.9938 4.90391 91.872 5.42073C98.722 6.14573 105.574 6.88273 112.381 7.96173ZM81.7417 112.572C81.0315 113.754 80.3277 114.958 79.649 116.208L79.8952 116.129C83.6926 114.909 87.3591 113.732 91.0607 112.543L93.4716 111.769L98.353 110.202C95.0576 108.948 92.3686 107.097 89.6312 105.212L89.6312 105.212L89.6305 105.212C88.7796 104.626 87.9239 104.037 87.044 103.462L87.0437 103.462L87.0429 103.462C85.8178 105.887 84.429 108.16 83.0214 110.465L83.021 110.466L83.0208 110.466L83.0207 110.466L83.0206 110.467L83.0205 110.467C82.5946 111.164 82.167 111.864 81.7417 112.572ZM122.823 26.9281L122.823 26.9279C123.514 23.6846 124.205 20.4403 125.045 17.2317C125.686 14.7794 125.618 14.7543 123.381 13.9261L123.197 13.8577C117.088 11.5947 110.699 10.7187 104.29 9.95074C100.317 9.47523 96.3423 9.02319 92.3676 8.5712L92.3666 8.57108C90.2564 8.33112 88.1464 8.09117 86.037 7.84774C82.324 7.41947 78.6194 6.92578 74.9149 6.43211C68.4297 5.56788 61.945 4.70371 55.417 4.19073L55.3517 4.1856C54.8135 4.14321 54.5434 4.12194 54.3829 4.2443C54.2212 4.36746 54.1704 4.63617 54.0686 5.17536L54.06 5.22073C53.8548 6.30399 53.6557 7.38857 53.4565 8.47317L53.4565 8.47344C52.9644 11.1534 52.4723 13.8335 51.89 16.4937C49.9172 25.4903 47.6179 34.4071 45.3185 43.3239L45.3184 43.3242C44.683 45.7885 44.0475 48.2528 43.419 50.7187C40.243 63.1787 36.671 75.5037 31.622 87.3637C30.4804 90.0495 29.4306 92.7751 28.3806 95.5011C27.8191 96.9589 27.2576 98.4168 26.682 99.8687C26.461 100.429 26.281 100.891 27.044 101.175C28.0753 101.559 29.0682 102.034 30.061 102.51L30.0611 102.51L30.0612 102.51L30.0613 102.51L30.0615 102.51L30.0616 102.51L30.0617 102.51L30.0618 102.51L30.0619 102.51L30.062 102.51L30.0621 102.51L30.0622 102.511L30.0623 102.511L30.0624 102.511L30.0625 102.511C31.2892 103.098 32.5159 103.686 33.8149 104.101C35.4762 104.631 37.1343 105.171 38.7926 105.711L38.7944 105.712C40.8766 106.39 42.959 107.068 45.048 107.728C53.4064 110.365 61.8672 112.628 70.3282 114.892L70.3332 114.893L70.3382 114.894L70.3431 114.896L70.3481 114.897C71.7005 115.259 73.0529 115.62 74.4049 115.984C74.7347 116.072 75.0001 116.155 75.2179 116.222C75.6808 116.366 75.9287 116.443 76.1227 116.372C76.3463 116.29 76.4982 116.012 76.8253 115.413C76.914 115.251 77.0156 115.065 77.135 114.853L78.0647 113.203L78.0648 113.203L78.0648 113.203L78.0649 113.203L78.065 113.203L78.0651 113.202L78.0652 113.202L78.0653 113.202L78.0654 113.202L78.0655 113.202L78.0656 113.202L78.0657 113.201L78.0658 113.201L78.0659 113.201L78.0659 113.201C80.2525 109.321 82.4385 105.443 84.669 101.588C85.785 99.6607 86.678 99.5047 88.533 100.752C89.3534 101.304 90.1666 101.867 90.9797 102.43L90.9804 102.43L90.9811 102.431L90.9819 102.431L90.9826 102.432L90.9833 102.432L90.984 102.433L90.9847 102.433L90.9854 102.433L90.9861 102.434L90.9868 102.434L90.9875 102.435L90.9882 102.435L90.989 102.436L90.9897 102.436C92.0623 103.179 93.1349 103.922 94.2239 104.639C96.0929 105.869 98.087 106.864 100.259 107.717C100.357 107.469 100.451 107.235 100.541 107.008C100.71 106.588 100.867 106.196 101.016 105.8C105.32 94.2637 108.758 82.4557 111.876 70.5577C112.972 66.3734 114.009 62.1742 115.047 57.9748C116.657 51.4557 118.268 44.936 120.099 38.4707C121.175 34.6663 121.999 30.7979 122.823 26.9281ZM114.813 16.0017C113.288 15.8447 111.906 16.3477 110.672 17.2517C109.609 18.0297 108.744 19.0077 107.81 20.2137C107.7 19.9186 107.6 19.643 107.506 19.3816L107.506 19.3814C107.308 18.8325 107.133 18.3462 106.926 17.8727C106.434 16.7447 105.653 15.8497 104.619 15.1677C101.872 13.3497 98.905 14.2457 97.637 17.3107C97.134 18.5287 96.838 19.8027 96.81 21.1317C96.698 26.4127 98.644 31.0597 101.305 35.4627C102.053 36.7017 103.646 37.0827 104.886 36.4507C107.175 35.2857 109.45 34.0847 111.56 32.6157C113.628 31.1767 115.61 29.6127 117.04 27.4937C118.476 25.3637 119.406 23.0527 119.126 20.4147C118.862 17.9287 117.246 16.2507 114.813 16.0017ZM116.013 22.2657C115.693 23.8997 114.968 25.3597 113.857 26.6187C112.619 28.0217 111.175 29.1907 109.632 30.2287C108.056 31.2896 106.383 32.1948 104.712 33.099L104.395 33.2707C103.764 33.6117 103.364 33.6937 102.988 32.9187C101.277 29.4057 99.927 25.8007 99.851 21.5707C99.867 20.7297 100.003 19.6457 100.414 18.6207C100.999 17.1647 102.001 16.9367 103.226 17.9387C103.987 18.5607 104.312 19.4287 104.574 20.3237C104.926 21.5287 105.269 22.7357 105.566 23.9537C105.761 24.7527 106.082 25.4337 106.959 25.5797C107.918 25.7397 108.461 25.1167 108.905 24.3757C108.995 24.2261 109.084 24.0762 109.174 23.9264C109.56 23.2802 109.946 22.6339 110.353 22.0007C110.859 21.2137 111.486 20.5307 112.21 19.9377C113.107 19.2017 114.145 18.7107 115.22 19.3207C116.355 19.9657 116.224 21.1807 116.013 22.2657ZM69.1283 50.4719L69.1281 50.4718C68.5564 50.3603 67.9847 50.2487 67.4148 50.1248C65.7148 49.7558 65.2268 48.9968 65.6598 47.2928C65.9168 46.2896 66.1988 45.2927 66.4807 44.2959C66.6748 43.6095 66.8689 42.9231 67.0549 42.2348C67.1778 41.7822 67.2884 41.3263 67.399 40.8705C67.5206 40.3695 67.6421 39.8687 67.7798 39.3728C68.0808 38.2848 68.6808 37.8098 69.4578 37.9818C70.3068 38.1698 70.7209 38.9448 70.4729 40.0778C70.0925 41.8183 69.6711 43.5499 69.2496 45.282L69.1178 45.8238L69.1114 45.8502C68.9462 46.5313 68.865 46.8664 68.9919 47.0745C69.1149 47.276 69.4334 47.3582 70.0603 47.5202L70.2478 47.5688C70.5753 47.6538 70.9062 47.6273 71.2408 47.6006C71.8348 47.553 72.4406 47.5046 73.0599 48.0778C72.7489 45.6228 73.2278 43.6708 74.4568 41.8708C75.1978 40.7848 76.1408 40.0198 77.3278 39.5238C79.6118 38.5698 82.1578 39.8298 82.6988 42.2618C83.4088 45.4468 82.5229 48.2358 80.2608 50.5368C78.1339 52.6998 75.6038 52.4368 73.8588 49.9758C73.7667 49.8453 73.6788 49.7116 73.5658 49.5399L73.5653 49.5391L73.5652 49.5389L73.5641 49.5374L73.564 49.5371L73.5636 49.5364C73.4857 49.4181 73.396 49.2816 73.2848 49.1158C72.6828 50.8758 71.4019 50.9258 69.9859 50.6408C69.7001 50.5834 69.4142 50.5276 69.1283 50.4719ZM79.7569 43.1938C79.6449 42.4428 79.2049 42.2138 78.4689 42.3878C76.9429 42.7498 75.8198 44.4488 75.8508 46.4128C75.8158 46.9698 75.9488 47.5058 76.1658 48.0018C76.6028 48.9988 77.2839 49.1588 78.0639 48.4048C79.5409 46.9788 80.0609 45.2098 79.7569 43.1938ZM60.187 68.6667C62.052 71.7357 64.72 72.1598 67.429 69.7927C69.249 68.2028 70.418 66.1828 71.087 63.8848C71.358 62.9478 71.477 61.9807 71.243 60.9747C70.451 57.5747 67.893 55.7887 64.459 56.3147C63.664 56.4367 62.957 56.7577 62.695 57.5787C62.5522 58.0248 62.2794 58.3641 62.0062 58.7039C61.9082 58.8258 61.8101 58.9478 61.718 59.0747C60.348 60.9647 59.321 62.9837 59.303 65.3887C59.309 66.6927 59.562 67.6377 60.187 68.6667ZM64.736 59.8687C65.477 59.0987 66.939 59.3057 67.598 60.1877C68.22 61.0217 68.432 61.9728 68.153 62.9707C67.664 64.7347 66.79 66.2927 65.392 67.5037C64.243 68.4977 63.571 68.3747 62.761 67.0927C62.406 66.5297 62.28 66.0478 62.259 65.2217C62.384 63.1157 63.305 61.3577 64.736 59.8687ZM100.192 45.7137C100.696 45.8977 101.169 46.2077 101.6 46.5357C102.18 46.9787 102.387 47.5847 102.041 48.2767C101.718 48.9197 100.952 49.1947 100.211 48.7857C99.1831 48.2197 98.079 47.9507 96.966 47.6877C96.139 47.4917 95.933 47.7387 95.516 48.9437C95.245 49.7247 95.6691 49.8947 96.2541 50.0527C96.4907 50.116 96.7246 50.1965 96.9582 50.277L96.9583 50.277C97.3485 50.4114 97.7381 50.5455 98.139 50.5987C99.073 50.7227 99.539 51.5587 99.423 52.1987C99.288 52.9437 98.603 53.4727 97.743 53.4577C96.8496 53.3527 96.0253 53.0071 95.2103 52.6654L95.094 52.6167C94.3857 52.3206 94.2585 52.6898 94.1131 53.1122C94.0846 53.1948 94.0554 53.2796 94.021 53.3617C93.7631 53.9777 93.9351 54.2657 94.577 54.3827C95.2133 54.4996 95.8461 54.6369 96.4779 54.774L96.478 54.774L96.4785 54.7742C96.7542 54.834 97.0296 54.8937 97.305 54.9517C97.4228 54.9765 97.5413 54.9984 97.6597 55.0202C97.9182 55.0679 98.1764 55.1155 98.426 55.1937C99.4151 55.5027 99.888 56.1787 99.71 56.9817C99.535 57.7757 98.795 58.3057 97.809 58.1467L97.4363 58.0867C95.7276 57.8124 94.0095 57.5366 92.3791 56.9157C90.8311 56.3267 90.343 55.4577 90.739 53.8457C91.393 51.1847 92.339 48.6187 93.58 46.1767C94.435 44.4927 95.218 44.2117 97.067 44.7347C98.118 45.0317 99.17 45.3377 100.192 45.7137ZM84.2319 61.4148C84.0069 60.6408 83.3049 60.1298 82.5169 60.1638C81.6809 60.2008 81.0459 60.7258 81.0319 61.5948C81.0074 63.2408 80.3176 64.6504 79.6286 66.0583C79.531 66.2576 79.4335 66.4569 79.3379 66.6568C78.8599 67.6548 78.0879 68.4468 77.1799 69.0808C76.0729 69.8548 75.4429 69.6758 74.9299 68.3988C74.4509 67.2078 74.3689 65.9498 74.5909 64.6928C74.8569 63.1908 75.1359 61.6848 75.8869 60.3198C76.2589 59.6418 76.1019 59.0448 75.4959 58.5907C74.9109 58.1517 74.1219 58.2608 73.5729 58.8498C73.3889 59.0448 73.2369 59.2878 73.1349 59.5337C72.2499 61.6637 71.6529 63.8658 71.5449 65.8738C71.5529 67.9728 72.0409 69.7188 72.8499 70.8438C74.2329 72.7678 76.0649 73.2038 78.1459 72.0798C79.5679 71.3108 80.6919 70.2048 81.5819 68.8678C82.8527 66.9606 83.5219 64.7954 84.1898 62.6345L84.2169 62.5468C84.3299 62.1838 84.3429 61.7928 84.2319 61.4148ZM51.5269 67.6577C50.7539 68.5097 49.9419 68.6597 49.2409 68.0857C48.5589 67.5267 48.4399 66.5617 49.0589 65.7267C49.7099 64.8497 50.3869 63.9777 51.1619 63.2147C51.7909 62.5957 51.7439 62.0797 51.4049 61.3537C50.8521 60.1643 50.4891 58.9096 50.1259 57.6543L50.1259 57.6542L50.1258 57.6542L50.1258 57.6541L50.1258 57.6541L50.1258 57.654L50.1257 57.654L50.1257 57.6539L50.1257 57.6538C49.866 56.7563 49.6062 55.8583 49.2769 54.9837C49.1669 54.6917 49.1529 54.3247 49.2139 54.0157C49.3549 53.3067 49.8059 52.8197 50.5469 52.7767C51.2189 52.7377 51.6629 53.1087 51.8719 53.7717C52.3299 55.2307 52.8049 56.6837 53.2869 58.1347C53.3232 58.244 53.3558 58.355 53.3888 58.4672C53.5223 58.9206 53.661 59.3922 54.0659 59.8387L54.9038 59.1073L54.9049 59.1064L54.9103 59.1016L54.9112 59.1009L54.9121 59.1001L54.9129 59.0994L54.9182 59.0948C55.8683 58.2653 56.8141 57.4396 57.7629 56.6187C57.8417 56.5505 57.9203 56.4816 57.999 56.4126L58.0025 56.4095L58.0029 56.4092C58.376 56.0822 58.7508 55.7536 59.1609 55.4827C59.8159 55.0507 60.5209 55.0317 61.1149 55.6067C61.7029 56.1767 61.7449 56.8747 61.3159 57.5507C61.0589 57.9607 60.7269 58.3387 60.3729 58.6747C59.1409 59.8387 57.8909 60.9857 56.6339 62.1247C54.8909 63.7067 53.1729 65.3127 51.8289 67.2707C51.7359 67.4057 51.6359 67.5367 51.5269 67.6577ZM71.1309 95.5227C68.0749 96.0717 65.9649 98.5987 65.9279 101.757C65.8929 104.553 67.922 106.372 70.698 106.037C73.508 105.697 75.7419 103.366 76.1769 100.326C76.6369 97.0797 74.3879 94.9387 71.1309 95.5227ZM73.1249 100.06C72.9059 101.45 71.8029 102.708 70.5809 102.961C69.361 103.213 68.8029 102.75 68.8509 101.527C68.9209 99.7177 70.0389 98.6127 71.8519 98.5587C72.9619 98.5247 73.3029 98.9247 73.1249 100.06ZM51.6076 47.1245C51.4697 47.1023 51.332 47.0802 51.2001 47.0387C50.2691 46.7437 49.8021 46.1147 49.9581 45.3857C50.1081 44.6907 50.6621 44.3347 51.5881 44.3527C51.6961 44.3547 51.8045 44.3694 51.9424 44.3882C52.0127 44.3977 52.0906 44.4083 52.1801 44.4187C53.0021 44.7007 53.3331 44.2527 53.5261 43.3987C53.9351 41.5877 54.4081 39.7897 54.9151 38.0027C55.1021 37.3427 55.0841 37.0457 54.2911 36.8937C53.2371 36.6897 52.8521 36.1247 52.9821 35.3677C53.1081 34.6347 53.7721 34.0897 54.7111 34.2207C55.241 34.2952 55.7752 34.3452 56.3096 34.3952C57.6772 34.5231 59.0458 34.6512 60.3451 35.1897C61.4351 35.6407 61.8871 36.3097 61.5821 37.1467C61.3061 37.9017 60.5851 38.1817 59.5241 37.9457L59.5215 37.9452C57.8571 37.5767 57.8429 37.5736 57.4511 39.2507C57.3041 39.8806 57.1682 40.5132 57.0323 41.1458L57.0323 41.1462C56.8122 42.1707 56.5921 43.1951 56.3251 44.2077C56.1341 44.9357 56.3831 45.1997 57.0241 45.3117C57.1446 45.3324 57.2654 45.3515 57.3862 45.3705L57.3864 45.3705L57.3865 45.3706L57.3866 45.3706L57.3867 45.3706L57.3868 45.3706L57.3869 45.3707C57.698 45.4197 58.0089 45.4687 58.3141 45.5457C59.0241 45.7237 59.4731 46.1547 59.4531 46.9347C59.4361 47.6447 58.8771 48.2537 58.1001 48.3527C57.7311 48.4007 57.3201 48.3857 56.9661 48.2777C55.2361 47.7487 53.4611 47.4297 51.6831 47.1367L51.6076 47.1245ZM86.914 54.1477C87.679 53.6057 88.281 52.8877 88.814 52.1267C89.9539 50.4984 91.0794 48.8606 92.2049 47.2229L92.2058 47.2216C92.5018 46.7909 92.7978 46.3602 93.094 45.9297L93.1032 45.9163C93.2233 45.7405 93.3469 45.5597 93.422 45.3637C93.701 44.6317 93.476 43.8407 92.882 43.4777C92.241 43.0857 91.615 43.1777 91.076 43.6657C90.756 43.9557 90.483 44.3077 90.234 44.6637C89.3339 45.9599 88.4399 47.2611 87.5208 48.5989L87.5197 48.6004L87.5189 48.6017L87.5182 48.6027C87.2015 49.0636 86.8819 49.5288 86.558 49.9997C86.2412 49.6325 86.2633 49.338 86.2832 49.0735C86.287 49.0233 86.2907 48.9741 86.292 48.9257L86.2971 48.7524C86.3551 46.7923 86.413 44.8339 86.853 42.9067C87.08 41.9157 86.726 41.2867 85.952 41.1007C85.182 40.9147 84.527 41.3007 84.178 42.1767C84.077 42.4267 84.019 42.6987 83.974 42.9657C83.547 45.5547 83.302 48.1597 83.341 50.7887C83.354 51.6167 83.493 52.4297 83.771 53.1967C84.31 54.6847 85.614 55.0697 86.914 54.1477ZM44.406 92.3227C43.812 92.6887 43.688 93.0317 43.985 93.6377C44.323 94.3217 44.622 95.0267 44.891 95.7427C45.042 96.1437 45.175 96.5617 45.042 97.0197C44.854 97.6627 44.468 98.0767 43.805 98.1757C43.124 98.2767 42.607 97.9507 42.338 97.3617C42.0421 96.7112 41.7859 96.0435 41.5148 95.3371C41.3938 95.0217 41.2698 94.6985 41.1379 94.3657C40.0209 94.9447 39.182 95.5487 38.355 96.1717C38.2893 96.2207 38.2256 96.2745 38.1618 96.3282L38.1617 96.3283L38.1615 96.3284C38.0144 96.4524 37.8671 96.5765 37.697 96.6427C37.031 96.9027 36.382 96.8447 35.93 96.2297C35.475 95.6147 35.538 94.9337 36.098 94.4567C36.9535 93.7253 37.8788 93.0742 38.8023 92.4245L38.8025 92.4243L38.846 92.3937L38.889 92.3634C39.4655 91.9564 39.7524 91.7538 39.8525 91.4824C39.9516 91.2134 39.8672 90.8768 39.6991 90.2065L39.699 90.2057C39.5509 89.6237 39.417 89.0357 39.322 88.4447C39.252 88.0137 39.232 87.5647 39.447 87.1597C39.784 86.5227 40.306 86.1417 41.042 86.2707C41.707 86.3877 42.114 86.8507 42.135 87.5257L42.1355 87.5468C42.1563 88.3105 42.1766 89.0572 42.6809 89.8667C43.4955 89.4555 44.1953 88.8943 44.8933 88.3346C45.0694 88.1934 45.2453 88.0523 45.423 87.9137C46.591 87.0027 47.38 86.9407 47.993 87.6997C48.582 88.4297 48.374 89.4227 47.347 90.2417C46.409 90.9907 45.428 91.6967 44.406 92.3227ZM63.354 98.2537C63.8653 98.0196 64.3391 97.6977 64.811 97.377L64.8116 97.3766C64.9745 97.266 65.1371 97.1554 65.301 97.0487L65.4075 96.98C65.7393 96.7659 66.0743 96.5499 66.366 96.2897C67.144 95.5977 67.29 94.7977 66.805 94.1167C66.336 93.4547 65.476 93.3397 64.621 93.8567C64.4263 93.975 64.2445 94.1143 64.0627 94.2537C63.8971 94.3807 63.7314 94.5077 63.556 94.6187C63.382 94.7288 63.2138 94.849 63.0429 94.9712L63.0427 94.9713L63.0425 94.9714L63.0424 94.9715C62.5878 95.2964 62.1146 95.6346 61.465 95.8307C61.084 94.7757 60.84 93.8317 60.695 92.8547C60.596 92.1867 60.171 91.7627 59.48 91.7377C58.717 91.7097 58.264 92.1667 58.073 92.8667C57.925 93.4047 58.01 93.9537 58.142 94.4877L58.1969 94.7107L58.197 94.7108C58.3481 95.3252 58.4996 95.9414 58.695 96.5417C58.881 97.1127 58.745 97.4317 58.186 97.7007C57.253 98.1477 56.346 98.6587 55.458 99.1927C54.493 99.7727 54.232 100.489 54.656 101.2C55.057 101.876 55.708 102.034 56.657 101.626C57.1081 101.433 57.5423 101.203 57.9757 100.974L57.976 100.974C58.1219 100.897 58.2677 100.82 58.414 100.745C59.7528 100.055 59.774 100.12 60.0178 100.869L60.0178 100.869C60.066 101.017 60.1227 101.191 60.2 101.392C60.2321 101.475 60.264 101.559 60.2959 101.642C60.4971 102.171 60.7011 102.708 61.005 103.174C61.555 104.02 62.552 104.205 63.285 103.701C64.012 103.202 64.134 102.491 63.561 101.561C63.355 101.227 63.2033 100.874 63.0517 100.521L63.0517 100.521C62.9678 100.326 62.884 100.131 62.791 99.9397C62.423 99.1727 62.492 98.6477 63.354 98.2537ZM50.4408 89.3657C51.0208 88.8257 51.7538 88.9117 52.4589 89.0917C54.6658 89.6537 55.8658 91.3087 55.8028 94.2007C55.7028 96.1537 54.6698 98.1167 52.6038 99.4617C50.8948 100.575 49.2479 100.214 48.0419 98.5537C46.6599 96.6527 46.5748 94.2987 47.7938 92.2437C48.3829 91.2516 49.2182 90.4869 50.0517 89.7237C50.1818 89.6047 50.3118 89.4856 50.4408 89.3657ZM50.2948 96.6418C50.5938 97.0438 50.8888 97.0267 51.2378 96.7278C52.1878 95.9108 52.7078 94.8847 52.7649 93.7527C52.7719 92.5787 52.2119 91.9937 51.4899 92.2997C50.0579 92.9047 49.3768 95.4048 50.2948 96.6418ZM91.3159 60.8727C90.6949 60.6327 90.0969 60.7407 89.7139 61.3057C89.4109 61.7497 89.1909 62.2607 88.9919 62.7637C88.6149 63.7094 88.3004 64.6788 87.986 65.6482L87.986 65.6483C87.4261 67.3741 86.8663 69.0999 85.9539 70.6917C85.8499 70.8747 85.8019 71.1067 85.7849 71.3207C85.7299 72.0307 85.9629 72.6237 86.6259 72.9507C87.2649 73.2667 87.9849 73.0077 88.4579 72.3137C88.5958 72.1117 88.7036 71.8882 88.8113 71.6648L88.8114 71.6646C88.8465 71.5917 88.8817 71.5188 88.9179 71.4467C89.744 69.8088 90.2619 68.0626 90.7798 66.3161C91.1608 65.0312 91.5419 63.7461 92.0459 62.5037C92.073 62.4383 92.0822 62.3662 92.0922 62.2873C92.0974 62.2469 92.1028 62.2047 92.1109 62.1607C92.0859 61.5987 91.8939 61.0967 91.3159 60.8727ZM83.72 77.7537C83.681 77.0287 84.394 76.3157 85.164 76.3127C85.888 76.3087 86.518 76.9297 86.514 77.6377C86.51 78.3407 85.902 78.9437 85.164 78.9797C84.423 79.0157 83.759 78.4507 83.72 77.7537Z" fill="white"/>
</svg>
