<svg xmlns="http://www.w3.org/2000/svg" viewBox="0 0 600 180" width="100%" height="100%">
  <rect width="600" height="180" rx="20" fill="#ffffff" fill-opacity="0.1"/>
  <path fill="#ffffff" d="M107.5,90l-77.9,77.9c-1.3-1.3-2-3.1-2-5V17.1c0-1.9,0.7-3.7,2-5L107.5,90z"/>
  <path fill="#ffffff" d="M303.9,82.5l-26.2,14.4L248.5,70l29.2-26.9l26.2,14.4c7.5,4.1,7.5,20.9,0,25z"/>
  <path fill="#ffffff" d="M248.5,70l29.2,26.9l-170.2,93.5c-2.5,1.4-5.3,1.4-7.8,0L248.5,70z"/>
  <path fill="#ffffff" d="M248.5,70L99.7,10.5c2.5-1.4,5.3-1.4,7.8,0L277.7,97L248.5,70z"/>
  <g fill="#ffffff">
    <path d="M339.9,97.5c-11.5,0-20.9-8.8-20.9-20.9c0-12.1,9.4-20.9,20.9-20.9c11.5,0,20.9,8.7,20.9,20.9C360.8,88.7,351.4,97.5,339.9,97.5z M339.9,63.1c-7.3,0-13.6,6-13.6,13.5c0,7.5,6.3,13.5,13.6,13.5c7.3,0,13.6-5.9,13.6-13.5C353.5,69.1,347.2,63.1,339.9,63.1z"/>
    <path d="M389.5,97.5c-11.5,0-20.9-8.8-20.9-20.9c0-12.1,9.4-20.9,20.9-20.9c11.5,0,20.9,8.7,20.9,20.9C410.4,88.7,401,97.5,389.5,97.5z M389.5,63.1c-7.3,0-13.6,6-13.6,13.5c0,7.5,6.3,13.5,13.6,13.5c7.3,0,13.6-5.9,13.6-13.5C403.1,69.1,396.8,63.1,389.5,63.1z"/>
    <path d="M436.9,57.1h7.3v40.4c0,16.6-9.8,23.3-21.4,23.3c-10.9,0-17.5-7.3-20-13.3l6.3-2.6c1.5,3.7,5.3,9,13.7,9c9,0,14.1-5.5,14.1-15.9v-3.2h-0.4c-2.7,3.3-7.8,6.2-14.3,6.2c-13.6,0-26-11.8-26-27c0-15.3,12.5-27.2,26-27.2c6.5,0,11.6,2.9,14.3,6.1h0.4V57.1z M438.2,76.6c0-9.5-6.4-16.5-14.5-16.5c-8.2,0-15.1,7-15.1,16.5c0,9.4,6.9,16.3,15.1,16.3C431.8,92.9,438.2,86,438.2,76.6z"/>
    <path d="M458.1,31.8h7.7v64.3h-7.7V31.8z"/>
    <path d="M493.9,97.5c-10.8,0-19.7-8.7-19.7-21c0-12.4,9-20.8,20.1-20.8c7.3,0,11.2,3.6,14.1,7.3l-6,4c-1.8-2.6-4.3-4.4-8.1-4.4c-6,0-11.2,5.3-11.2,13.8c0,8.6,5.2,13.8,11.2,13.8c3.8,0,6.7-2.1,8.4-4.4l5.9,4C505.5,93.7,501.3,97.5,493.9,97.5z"/>
    <path d="M538.9,96.1l-13.9-36.2h8.3l9.9,27.2h0.1l10.2-27.2h8.2l-21.1,53.8h-8L538.9,96.1z"/>
  </g>
  <g fill="#ffffff">
    <path d="M339.9,140.5v-28.2h8.1c8.3,0,13.3,5.1,13.3,14.1c0,9-5,14.1-13.3,14.1H339.9z M345.1,136.1h2.5c5.1,0,8.3-3.1,8.3-9.7c0-6.6-3.2-9.7-8.3-9.7h-2.5V136.1z"/>
    <path d="M369.9,140.5v-21.1h5.1v3.3h0.1c1.1-2.3,3.5-3.7,6.9-3.7c5.5,0,8.6,3.3,8.6,9.1v12.4h-5.2v-11.5c0-3.1-1.5-4.9-4.6-4.9c-3.1,0-5.6,2-5.6,6.1v10.3H369.9z"/>
    <path d="M409.9,140.9c-6.5,0-10.6-4.3-10.6-10.9c0-6.6,4.1-10.9,10.6-10.9c6.5,0,10.6,4.3,10.6,10.9C420.5,136.6,416.4,140.9,409.9,140.9z M409.9,136.9c3.2,0,5.3-2.5,5.3-6.9c0-4.4-2.1-6.9-5.3-6.9c-3.2,0-5.3,2.5-5.3,6.9C404.6,134.4,406.7,136.9,409.9,136.9z"/>
    <path d="M423.9,140.5v-21.1h5.2v21.1H423.9z M423.9,116.5v-4.2h5.2v4.2H423.9z"/>
    <path d="M433.9,140.5v-21.1h5.1v3.3h0.1c1.1-2.3,3.5-3.7,6.9-3.7c5.5,0,8.6,3.3,8.6,9.1v12.4h-5.2v-11.5c0-3.1-1.5-4.9-4.6-4.9c-3.1,0-5.6,2-5.6,6.1v10.3H433.9z"/>
  </g>
</svg> 