<svg width="140" height="140" viewBox="0 0 140 140" fill="none" xmlns="http://www.w3.org/2000/svg">
<rect width="140" height="140" fill="url(#paint0_radial_43_326)"/>
<path d="M70.0037 30C59.1403 30 57.777 30.0475 53.5102 30.2417C49.2519 30.4367 46.3452 31.1108 43.8018 32.1C41.1709 33.1217 38.9393 34.4883 36.7159 36.7125C34.4909 38.9358 33.1242 41.1675 32.0992 43.7975C31.1075 46.3417 30.4325 49.2492 30.2408 53.5058C30.05 57.7725 30 59.1367 30 70C30 80.8633 30.0483 82.2225 30.2417 86.4892C30.4375 90.7475 31.1117 93.6542 32.1 96.1975C33.1225 98.8283 34.4892 101.06 36.7134 103.283C38.9359 105.508 41.1676 106.878 43.7968 107.9C46.3418 108.889 49.2494 109.563 53.5069 109.758C57.7736 109.952 59.1361 110 69.9988 110C80.863 110 82.2222 109.952 86.4889 109.758C90.7473 109.563 93.6573 108.889 96.2024 107.9C98.8324 106.878 101.061 105.508 103.283 103.283C105.508 101.06 106.875 98.8283 107.9 96.1983C108.883 93.6542 109.558 90.7467 109.758 86.49C109.95 82.2233 110 80.8633 110 70C110 59.1367 109.95 57.7733 109.758 53.5067C109.558 49.2483 108.883 46.3417 107.9 43.7983C106.875 41.1675 105.508 38.9358 103.283 36.7125C101.058 34.4875 98.8332 33.1208 96.1999 32.1C93.6498 31.1108 90.7415 30.4367 86.4831 30.2417C82.2164 30.0475 80.858 30 69.9912 30H70.0037ZM66.4154 37.2083C67.4804 37.2067 68.6687 37.2083 70.0037 37.2083C80.6839 37.2083 81.9497 37.2467 86.1673 37.4383C90.0673 37.6167 92.184 38.2683 93.594 38.8158C95.4607 39.5408 96.7915 40.4075 98.1907 41.8075C99.5907 43.2075 100.457 44.5408 101.184 46.4075C101.732 47.8158 102.384 49.9325 102.562 53.8325C102.753 58.0492 102.795 59.3158 102.795 69.9908C102.795 80.6658 102.753 81.9325 102.562 86.1492C102.383 90.0492 101.732 92.1658 101.184 93.5742C100.459 95.4408 99.5907 96.77 98.1907 98.1692C96.7907 99.5692 95.4615 100.436 93.594 101.161C92.1856 101.711 90.0673 102.361 86.1673 102.539C81.9505 102.731 80.6839 102.773 70.0037 102.773C59.3228 102.773 58.057 102.731 53.8402 102.539C49.9402 102.359 47.8235 101.707 46.4127 101.16C44.546 100.435 43.2126 99.5683 41.8126 98.1683C40.4126 96.7683 39.5459 95.4383 38.8193 93.5708C38.2718 92.1625 37.6192 90.0458 37.4417 86.1458C37.2501 81.9292 37.2117 80.6625 37.2117 69.9808C37.2117 59.2992 37.2501 58.0392 37.4417 53.8225C37.6201 49.9225 38.2718 47.8058 38.8193 46.3958C39.5443 44.5292 40.4126 43.1958 41.8126 41.7958C43.2126 40.3958 44.546 39.5292 46.4127 38.8025C47.8227 38.2525 49.9402 37.6025 53.8402 37.4233C57.5303 37.2567 58.9603 37.2067 66.4154 37.1983V37.2083ZM91.3556 43.85C88.7056 43.85 86.5556 45.9975 86.5556 48.6483C86.5556 51.2983 88.7056 53.4483 91.3556 53.4483C94.0057 53.4483 96.1557 51.2983 96.1557 48.6483C96.1557 45.9983 94.0057 43.8483 91.3556 43.8483V43.85ZM70.0037 49.4583C58.6595 49.4583 49.4619 58.6558 49.4619 70C49.4619 81.3442 58.6595 90.5375 70.0037 90.5375C81.348 90.5375 90.5423 81.3442 90.5423 70C90.5423 58.6558 81.348 49.4583 70.0037 49.4583ZM70.0037 56.6667C77.3672 56.6667 83.3372 62.6358 83.3372 70C83.3372 77.3633 77.3672 83.3333 70.0037 83.3333C62.6395 83.3333 56.6703 77.3633 56.6703 70C56.6703 62.6358 62.6395 56.6667 70.0037 56.6667Z" fill="white"/>
<defs>
<radialGradient id="paint0_radial_43_326" cx="0" cy="0" r="1" gradientUnits="userSpaceOnUse" gradientTransform="translate(37.1877 150.783) rotate(-90) scale(138.75 129.049)">
<stop stop-color="#FFDD55"/>
<stop offset="0.1" stop-color="#FFDD55"/>
<stop offset="0.5" stop-color="#FF543E"/>
<stop offset="1" stop-color="#C837AB"/>
</radialGradient>
</defs>
</svg>
