<svg width="1168" height="352" viewBox="0 0 1168 352" fill="none" xmlns="http://www.w3.org/2000/svg">
<path d="M0 0H128V160H160V0H288V208C288 300 223.529 352 144 352C64.471 352 0 296 0 208V0Z" fill="#1B18AC"/>
<path d="M416 112C416 138.51 394.51 160 368 160C341.49 160 320 138.51 320 112C320 85.4903 341.49 64 368 64C394.51 64 416 85.4903 416 112Z" fill="#1B18AC"/>
<path d="M416 256C416 282.51 394.51 304 368 304C341.49 304 320 282.51 320 256C320 229.49 341.49 208 368 208C394.51 208 416 229.49 416 256Z" fill="#1B18AC"/>
<path d="M608 160H448V0H606.222C718.667 0 782.222 78.7979 782.222 176C782.222 273.202 713.778 352 606.222 352H448L448 192H608V160Z" fill="#1B18AC"/>
<path d="M1166.22 176C1166.22 267.809 1095.93 343.199 1006.22 351.283V192H974.222V351.283C884.518 343.199 814.222 267.809 814.222 176C814.222 78.7979 893.02 0 990.222 0C1087.42 0 1166.22 78.7979 1166.22 176Z" fill="#1B18AC"/>
</svg>
