<svg width="64" height="16" viewBox="0 0 64 16" fill="none" xmlns="http://www.w3.org/2000/svg">
<path fill-rule="evenodd" clip-rule="evenodd" d="M19.448 13.88V5.504C19.448 3.128 18.176 2 16.04 2C14.264 2 12.728 3.056 12.056 4.112C11.624 2.792 10.544 2 8.84 2C7.064 2 5.528 3.104 5.048 3.8V2.288H2V13.88H5.048V6.08C5.504 5.432 6.392 4.712 7.448 4.712C8.696 4.712 9.176 5.48 9.176 6.56V13.88H12.248V6.056C12.68 5.432 13.568 4.712 14.648 4.712C15.896 4.712 16.376 5.48 16.376 6.56V13.88H19.448ZM27.824 14.168C24.008 14.168 21.704 11.384 21.704 8.072C21.704 4.784 24.008 2 27.824 2C31.664 2 33.968 4.784 33.968 8.072C33.968 11.384 31.664 14.168 27.824 14.168ZM27.824 11.456C29.72 11.456 30.8 9.896 30.8 8.072C30.8 6.272 29.72 4.712 27.824 4.712C25.928 4.712 24.872 6.272 24.872 8.072C24.872 9.896 25.928 11.456 27.824 11.456ZM47.096 13.88V5.696C47.096 3.44 45.872 2 43.328 2C41.432 2 40.016 2.912 39.272 3.8V2.288H36.224V13.88H39.272V6.08C39.776 5.384 40.712 4.712 41.912 4.712C43.208 4.712 44.048 5.264 44.048 6.872V13.88H47.096ZM55.496 14.168C51.68 14.168 49.376 11.384 49.376 8.072C49.376 4.784 51.68 2 55.496 2C59.336 2 61.64 4.784 61.64 8.072C61.64 11.384 59.336 14.168 55.496 14.168ZM55.496 11.456C57.392 11.456 58.472 9.896 58.472 8.072C58.472 6.272 57.392 4.712 55.496 4.712C53.6 4.712 52.544 6.272 52.544 8.072C52.544 9.896 53.6 11.456 55.496 11.456Z" fill="white"/>
</svg>
