<svg width="160" height="120" viewBox="0 0 160 120" fill="none" xmlns="http://www.w3.org/2000/svg">
<path d="M127.121 62.6841C127.121 88.3654 106.079 109.184 80.1213 109.184C54.1639 109.184 31.1211 91.6841 33.1213 62.6841C33.1213 37.0029 54.1639 16.1841 80.1213 16.1841C110.621 13.6841 127.121 37.0029 127.121 62.6841Z" fill="white"/>
<path d="M78.263 67.2748C79.4998 67.1705 84.1624 67.0678 88.5009 66.9723C92.1847 66.8913 95.6354 66.8153 96.5561 66.7478C98.0441 66.6368 98.4991 65.5868 98.4181 64.4078C98.3241 63.0488 97.374 62.7118 96.021 62.7778C92.2812 62.9605 84.7025 63.1121 77.6258 63.2537C72.1874 63.3625 67.0454 63.4654 64.17 63.5718C63.07 63.6128 62.0861 63.7508 62.1221 65.1788C62.1531 66.4748 62.6751 67.3478 64.1341 67.3138C64.3055 67.3096 64.4765 67.3035 64.6474 67.2973C64.9271 67.2872 65.2069 67.2771 65.4861 67.2758C68.6048 67.2737 71.723 67.2741 74.7401 67.2745L78.263 67.2748Z" fill="#1B18AC"/>
<path d="M96.1448 45.6128C96.1688 47.9538 94.2928 49.7928 91.8498 49.8188C89.4788 49.8458 87.3688 47.8338 87.4568 45.6298C87.5198 44.0708 89.9198 41.7588 91.5548 41.6848C94.0228 41.5668 96.1228 43.3658 96.1448 45.6128Z" fill="#1B18AC"/>
<path d="M62.1695 45.5228C62.1735 47.6048 64.2375 49.4888 66.4425 49.4258C68.1235 49.3778 70.4775 47.0708 70.4585 45.4878C70.4375 43.3868 68.1305 41.1388 66.0445 41.1848C64.0255 41.2318 62.1625 43.3148 62.1695 45.5228Z" fill="#1B18AC"/>
<path fill-rule="evenodd" clip-rule="evenodd" d="M80.1212 113.184C108.247 113.184 131.121 90.6147 131.121 62.6841C131.121 49.0332 126.74 35.7648 118.018 26.1748C109.236 16.5194 96.3095 10.8881 79.9571 12.1844C51.9525 12.2718 29.1965 34.7335 29.1214 62.5461C28.0804 78.196 33.8081 90.9621 43.439 99.7621C53.0241 108.52 66.277 113.184 80.1212 113.184ZM33.1212 62.6841C33.1212 37.0029 54.1638 16.1841 80.1212 16.1841C110.621 13.6841 127.121 37.0029 127.121 62.6841C127.121 88.3654 106.079 109.184 80.1212 109.184C54.1638 109.184 31.1211 91.6841 33.1212 62.6841Z" fill="#1B18AC"/>
</svg> 