<svg width="60" height="13" viewBox="0 0 60 13" fill="none" xmlns="http://www.w3.org/2000/svg">
<path fill-rule="evenodd" clip-rule="evenodd" d="M17.448 11.88V3.504C17.448 1.128 16.176 0 14.04 0C12.264 0 10.728 1.056 10.056 2.112C9.624 0.792 8.544 0 6.84 0C5.064 0 3.528 1.104 3.048 1.8V0.288H0V11.88H3.048V4.08C3.504 3.432 4.392 2.712 5.448 2.712C6.696 2.712 7.176 3.48 7.176 4.56V11.88H10.248V4.056C10.68 3.432 11.568 2.712 12.648 2.712C13.896 2.712 14.376 3.48 14.376 4.56V11.88H17.448ZM25.824 12.168C22.008 12.168 19.704 9.384 19.704 6.072C19.704 2.784 22.008 0 25.824 0C29.664 0 31.968 2.784 31.968 6.072C31.968 9.384 29.664 12.168 25.824 12.168ZM25.824 9.456C27.72 9.456 28.8 7.896 28.8 6.072C28.8 4.272 27.72 2.712 25.824 2.712C23.928 2.712 22.872 4.272 22.872 6.072C22.872 7.896 23.928 9.456 25.824 9.456ZM45.096 11.88V3.696C45.096 1.44 43.872 0 41.328 0C39.432 0 38.016 0.912 37.272 1.8V0.288H34.224V11.88H37.272V4.08C37.776 3.384 38.712 2.712 39.912 2.712C41.208 2.712 42.048 3.264 42.048 4.872V11.88H45.096ZM53.496 12.168C49.68 12.168 47.376 9.384 47.376 6.072C47.376 2.784 49.68 0 53.496 0C57.336 0 59.64 2.784 59.64 6.072C59.64 9.384 57.336 12.168 53.496 12.168ZM53.496 9.456C55.392 9.456 56.472 7.896 56.472 6.072C56.472 4.272 55.392 2.712 53.496 2.712C51.6 2.712 50.544 4.272 50.544 6.072C50.544 7.896 51.6 9.456 53.496 9.456Z" fill="white"/>
</svg>
