<svg width="140" height="140" viewBox="0 0 140 140" fill="none" xmlns="http://www.w3.org/2000/svg">
<rect width="140" height="140" fill="url(#paint0_linear_43_333)"/>
<path d="M44.1526 75.848L53.6439 102.119C53.6439 102.119 54.8306 104.577 56.1013 104.577C57.3719 104.577 76.2713 84.9153 76.2713 84.9153L97.2879 44.322L44.4913 69.0667L44.1526 75.848Z" fill="#C8DAEA"/>
<path d="M56.7375 82.5853L54.9155 101.949C54.9155 101.949 54.1528 107.883 60.0848 101.949C66.0168 96.016 71.6948 91.4407 71.6948 91.4407" fill="#A9C6D8"/>
<path d="M44.3242 76.7853L24.8002 70.424C24.8002 70.424 22.4668 69.4773 23.2182 67.3307C23.3728 66.888 23.6848 66.5113 24.6182 65.864C28.9442 62.8487 104.689 35.624 104.689 35.624C104.689 35.624 106.827 34.9033 108.089 35.3827C108.401 35.4793 108.682 35.657 108.902 35.8977C109.123 36.1384 109.276 36.4335 109.345 36.7527C109.482 37.3165 109.539 37.8965 109.515 38.476C109.509 38.9773 109.448 39.442 109.402 40.1707C108.941 47.614 95.1355 103.166 95.1355 103.166C95.1355 103.166 94.3095 106.417 91.3502 106.528C90.6229 106.552 89.8984 106.428 89.2197 106.166C88.5411 105.903 87.9223 105.507 87.4002 105C81.5928 100.005 61.5208 86.5153 57.0855 83.5487C56.9854 83.4805 56.9012 83.3917 56.8384 83.2882C56.7756 83.1847 56.7357 83.0689 56.7215 82.9487C56.6595 82.636 56.9995 82.2487 56.9995 82.2487C56.9995 82.2487 91.9502 51.182 92.8802 47.9207C92.9522 47.668 92.6802 47.5434 92.3148 47.654C89.9935 48.508 49.7522 73.9207 45.3108 76.7253C44.9911 76.8221 44.6532 76.8426 44.3242 76.7853Z" fill="white"/>
<defs>
<linearGradient id="paint0_linear_43_333" x1="70" y1="140" x2="70" y2="0" gradientUnits="userSpaceOnUse">
<stop stop-color="#1D93D2"/>
<stop offset="1" stop-color="#38B0E3"/>
</linearGradient>
</defs>
</svg>
