<svg width="140" height="140" viewBox="0 0 140 140" fill="none" xmlns="http://www.w3.org/2000/svg">
<rect width="140" height="140" fill="black"/>
<path d="M95.3099 47.7456C94.7849 47.4743 94.2739 47.1769 93.7787 46.8545C92.3388 45.9025 91.0185 44.7808 89.8464 43.5135C86.9138 40.158 85.8185 36.7538 85.415 34.3705H85.4312C85.0942 32.3921 85.2336 31.1122 85.2546 31.1122H71.8973V82.7624C71.8973 83.4558 71.8973 84.1412 71.8681 84.8185C71.8681 84.9027 71.86 84.9805 71.8552 85.0712C71.8552 85.1085 71.8552 85.1474 71.8471 85.1863C71.8471 85.196 71.8471 85.2057 71.8471 85.2154C71.7063 87.0686 71.1122 88.8588 70.1172 90.4286C69.1221 91.9983 67.7565 93.2994 66.1406 94.2175C64.4564 95.1757 62.5516 95.6782 60.6139 95.6757C54.3905 95.6757 49.3467 90.6011 49.3467 84.334C49.3467 78.0669 54.3905 72.9923 60.6139 72.9923C61.792 72.9912 62.9628 73.1766 64.0829 73.5415L64.0991 59.9412C60.6988 59.502 57.2443 59.7722 53.9537 60.7348C50.663 61.6975 47.6076 63.3317 44.9801 65.5343C42.6779 67.5346 40.7424 69.9214 39.2607 72.5872C38.6968 73.5594 36.5694 77.4658 36.3118 83.8058C36.1498 87.4044 37.2305 91.1326 37.7457 92.6734V92.7058C38.0698 93.6132 39.3255 96.7094 41.3719 99.3197C43.022 101.414 44.9715 103.253 47.1578 104.778V104.746L47.1902 104.778C53.6566 109.172 60.8262 108.884 60.8262 108.884C62.0673 108.834 66.2248 108.884 70.9462 106.646C76.1829 104.166 79.1641 100.47 79.1641 100.47C81.0687 98.2618 82.5831 95.7452 83.6425 93.0282C84.8512 89.8509 85.2546 86.0401 85.2546 84.5171V57.1155C85.4167 57.2127 87.5748 58.6401 87.5748 58.6401C87.5748 58.6401 90.6841 60.633 95.5351 61.9309C99.0154 62.8544 103.704 63.0488 103.704 63.0488V49.7887C102.061 49.9669 98.7254 49.4485 95.3099 47.7456Z" fill="white"/>
</svg>
