<svg width="160" height="120" viewBox="0 0 160 120" fill="none" xmlns="http://www.w3.org/2000/svg">
<path d="M37.805 49.5312C39.529 54.9802 42.13 59.9732 45.247 64.7262C47.702 68.4702 50.538 71.9052 53.473 75.2872C55.851 78.0282 58.492 80.4672 61.277 82.7262C64.309 85.1862 67.527 87.4272 70.95 89.3582C73.033 90.5332 74.999 91.9162 77.01 93.2182C78.72 94.3262 80.516 94.5282 82.264 93.4622C84.956 91.8182 87.582 90.0692 90.28 88.4252C92.41 87.1272 94.409 85.6052 96.46 84.1832C99.263 82.2382 101.729 79.9452 104.073 77.5502C106.655 74.9132 109.052 72.0882 111.299 69.1242C114.144 65.3732 116.551 61.3852 118.774 57.2652C120.172 54.6722 121.082 51.8722 122.032 49.0962C123.791 43.9632 125.121 38.7462 125.035 33.5652C125.151 30.9012 125.012 28.5552 124.222 26.3112C123.021 22.8972 121.326 19.7682 118.8 17.1182C116.969 15.2002 114.857 13.6992 112.49 12.5342C110.479 11.5432 108.417 10.6632 106.172 10.4112C102.58 10.0062 99.202 11.0092 96.055 12.5422C92.52 14.2622 89.338 16.6022 86.589 19.4352C84.384 21.7072 82.455 24.2212 80.771 26.9132C79.991 28.1602 79.63 28.1522 78.885 26.9102C77.424 24.4712 75.647 22.2672 73.777 20.1412C72.666 18.8782 71.332 17.8462 70.038 16.7662C67.075 14.2922 63.816 12.3842 60.151 11.2042C58.807 10.7722 57.423 10.4722 55.986 10.3752C51.666 10.0832 48.016 11.8842 44.532 14.0622C41.876 15.7212 39.813 17.9952 38.14 20.6972C36.356 23.5802 34.988 26.6082 34.677 29.9512C34.291 34.1032 34.689 38.2512 35.683 42.3192C36.277 44.7562 37.047 47.1392 37.805 49.5312ZM95.595 44.7102C95.317 45.4952 94.81 45.8682 94.041 45.9472C93.274 46.0252 92.644 45.7192 92.199 45.1022C91.442 44.0532 91.651 41.2662 92.535 40.2872C93.527 39.1872 94.944 39.4582 95.503 40.8572C95.604 41.1092 95.733 41.3652 95.76 41.6282C95.802 42.0612 95.771 42.5012 95.771 42.9382C95.778 43.5332 95.805 44.1132 95.595 44.7102ZM99.926 14.4582C100.579 14.4362 101.098 14.9042 101.114 15.5282C101.13 16.1532 100.53 16.7652 99.87 16.7992C99.259 16.8302 98.714 16.3212 98.692 15.7032C98.67 15.0472 99.233 14.4802 99.926 14.4582ZM83.032 28.1772C83.081 27.8642 83.229 27.5442 83.407 27.2782C85.819 23.6922 88.287 20.1572 91.836 17.5492C92.885 16.7782 94.051 16.3672 95.315 16.2352C96.226 16.1402 96.793 16.6062 96.809 17.2662C96.805 18.1302 96.304 18.5932 95.642 18.7442C92.897 19.3692 91.114 21.3022 89.433 23.3162C88.001 25.0322 86.426 26.6462 85.313 28.6142C85.125 28.9482 84.894 29.2502 84.5 29.3792C83.691 29.6452 82.898 29.0192 83.032 28.1772ZM71.373 50.9812C71.909 50.2642 72.651 50.2492 73.651 51.0182C76.866 53.4912 80.416 53.3782 84.085 52.4142C84.96 52.1842 85.6 51.5642 86.323 51.0832C86.913 50.6912 87.523 50.5552 88.158 50.9712C89.073 51.5702 89.055 52.6362 88.095 53.3992C86.012 55.0612 83.637 55.8882 80.965 55.8332C80.746 55.8282 80.529 55.8092 80.311 55.7972C77.388 55.8392 74.689 55.1412 72.314 53.3712C72.228 53.3072 72.114 53.2782 72.028 53.2122C71.105 52.5122 70.858 51.6692 71.373 50.9812ZM64.533 40.3042C65.339 39.2772 66.732 39.3892 67.349 40.5922C67.773 41.4152 67.939 42.3402 68.075 43.2502C68.052 43.9932 67.805 44.6582 67.363 45.2252C66.534 46.2922 65.076 46.2122 64.33 45.0852C63.46 43.7732 63.554 41.5482 64.533 40.3042ZM45.199 18.0092C45.814 18.0112 46.291 18.5612 46.251 19.2212C46.211 19.8832 45.696 20.3662 45.059 20.2952C44.419 20.2252 44.084 19.8432 44.084 19.1942C44.083 18.5572 44.608 18.0082 45.199 18.0092ZM38.649 25.4192C38.943 24.7152 39.24 23.9952 39.775 23.4322C40.228 22.9562 40.783 22.7692 41.399 23.1412C41.954 23.4752 42.034 24.0022 41.891 24.5732C41.826 24.8332 41.693 25.0802 41.57 25.3222C40.175 28.0612 39.546 30.9592 39.718 34.0332C40.089 40.6562 41.485 47.0452 44.527 52.9592C48.424 60.5332 53.234 67.5152 59.281 73.5372C63.888 78.1242 68.692 82.5282 74.291 85.9432C75.506 86.6842 76.737 87.3762 78.057 87.9212C78.888 88.2642 79.162 88.8392 78.934 89.4402C78.709 90.0372 78.085 90.3042 77.279 90.1122C76.964 90.0372 76.652 89.9132 76.361 89.7652C75.338 89.2492 74.313 88.7332 73.307 88.1822C68.911 85.7672 65.197 82.4562 61.436 79.1922C56.235 74.6772 51.839 69.4512 47.977 63.7972C43.805 57.6882 40.14 51.2822 38.505 43.9492C38.019 41.7662 37.692 39.5442 37.374 37.3282C37.194 36.0882 37.18 34.8232 37.09 33.5702C36.937 30.7192 37.561 28.0252 38.649 25.4192Z" fill="white"/>
<path d="M38.504 43.9492C38.018 41.7662 37.6911 39.5442 37.3731 37.3282C37.2508 36.4816 37.205 35.6224 37.1593 34.7634C37.1381 34.3652 37.1169 33.967 37.0881 33.5702C36.9361 30.7202 37.5601 28.0252 38.6481 25.4192L38.6586 25.3939C38.9492 24.698 39.2455 23.9884 39.7741 23.4322C40.2271 22.9552 40.7821 22.7682 41.3981 23.1412C41.9531 23.4752 42.0321 24.0022 41.8901 24.5732C41.8324 24.8073 41.718 25.0309 41.606 25.2499L41.569 25.3222C40.174 28.0612 39.5441 30.9592 39.7171 34.0332C40.0881 40.6562 41.4841 47.0442 44.5261 52.9592C48.423 60.5342 53.233 67.5162 59.28 73.5372C63.888 78.1242 68.6911 82.5272 74.2901 85.9432C75.5051 86.6842 76.737 87.3762 78.056 87.9212C78.887 88.2642 79.1611 88.8382 78.9331 89.4402C78.7091 90.0372 78.0851 90.3042 77.2781 90.1122C76.9631 90.0372 76.6511 89.9122 76.3601 89.7652L76.2942 89.732C75.2923 89.2271 74.2904 88.7223 73.306 88.1822C69.1551 85.9018 65.6122 82.8225 62.0636 79.7383C61.8542 79.5562 61.6446 79.3741 61.435 79.1922C56.234 74.6772 51.8381 69.4512 47.9761 63.7972C43.8041 57.6882 40.139 51.2822 38.504 43.9492Z" fill="#1B18AC"/>
<path d="M72.029 53.2132C72.072 53.2457 72.122 53.2692 72.172 53.2927C72.222 53.3162 72.272 53.3397 72.315 53.3722C74.69 55.1422 77.389 55.8402 80.312 55.7982C80.3855 55.8022 80.4586 55.807 80.5317 55.8118C80.6761 55.8213 80.8207 55.8309 80.966 55.8342C83.638 55.8892 86.013 55.0622 88.096 53.4002C89.055 52.6372 89.074 51.5712 88.159 50.9722C87.524 50.5562 86.914 50.6922 86.324 51.0842C86.1334 51.2108 85.9487 51.3471 85.764 51.4834C85.2473 51.8646 84.7305 52.2458 84.086 52.4152C80.417 53.3792 76.867 53.4922 73.652 51.0192C72.652 50.2502 71.91 50.2662 71.374 50.9822C70.858 51.6692 71.105 52.5122 72.029 53.2132Z" fill="#1B18AC"/>
<path d="M85.312 28.6162C85.124 28.9512 84.8941 29.2532 84.4991 29.3812C83.6911 29.6452 82.898 29.0192 83.031 28.1792C83.08 27.8652 83.228 27.5462 83.406 27.2802C85.818 23.6932 88.2861 20.1582 91.8351 17.5512C92.8831 16.7802 94.0491 16.3692 95.3141 16.2372C96.2251 16.1422 96.791 16.6082 96.8081 17.2682C96.804 18.1322 96.3031 18.5952 95.6411 18.7462C92.8961 19.3712 91.113 21.3032 89.432 23.3182C89.0992 23.7173 88.7585 24.1109 88.4176 24.5048C87.293 25.804 86.1661 27.106 85.312 28.6162Z" fill="#1B18AC"/>
<path d="M67.3631 45.2252C67.8051 44.6582 68.0511 43.9932 68.0751 43.2502C67.9391 42.3402 67.773 41.4162 67.349 40.5922C66.732 39.3892 65.3381 39.2772 64.5331 40.3042C63.5541 41.5482 63.4611 43.7722 64.3301 45.0852C65.0761 46.2122 66.5341 46.2932 67.3631 45.2252Z" fill="#1B18AC"/>
<path d="M95.5672 41.0125C95.6526 41.2147 95.7393 41.4197 95.76 41.6292C95.7895 41.9324 95.7831 42.2401 95.7766 42.5477C95.7738 42.6782 95.7711 42.809 95.7711 42.9392L95.773 43.0789C95.7808 43.6252 95.7886 44.161 95.595 44.7112C95.316 45.4962 94.8091 45.8692 94.0411 45.9482C93.2741 46.0262 92.643 45.7202 92.199 45.1032C91.442 44.0532 91.651 41.2662 92.535 40.2882C93.527 39.1882 94.9441 39.4602 95.5031 40.8582C95.5236 40.9094 95.5454 40.9609 95.5672 41.0125Z" fill="#1B18AC"/>
<path d="M99.87 16.7992C100.53 16.7652 101.13 16.1532 101.114 15.5282C101.098 14.9042 100.58 14.4362 99.926 14.4582C99.233 14.4802 98.67 15.0472 98.692 15.7032C98.713 16.3212 99.258 16.8302 99.87 16.7992Z" fill="#1B18AC"/>
<path d="M46.25 19.2222C46.21 19.8842 45.696 20.3672 45.058 20.2962C44.418 20.2252 44.083 19.8432 44.083 19.1962C44.083 18.5582 44.607 18.0092 45.198 18.0102C45.814 18.0122 46.29 18.5612 46.25 19.2222Z" fill="#1B18AC"/>
<path fill-rule="evenodd" clip-rule="evenodd" d="M16.6924 52.6754C16.3978 52.6655 16.1023 52.6556 15.807 52.6382C14.285 52.5472 13.55 51.2002 14.291 49.9882C14.665 49.3762 15.214 49.2882 15.843 49.3202C16.7897 49.3673 17.7369 49.4117 18.7563 49.4595L18.7717 49.4602C19.2614 49.4832 19.7679 49.507 20.299 49.5322C19.218 48.0752 18.344 46.7292 17.571 45.3212C17.5084 45.2076 17.4281 45.1012 17.3481 44.9952C17.2274 44.8353 17.1075 44.6766 17.051 44.4962C16.853 43.8662 16.693 43.1962 17.352 42.7022C17.907 42.2862 18.713 42.3712 19.3 42.9322C19.574 43.1932 19.817 43.5032 20.012 43.8272C20.9849 45.4454 22.176 46.8997 23.3667 48.3535C23.6225 48.6658 23.8784 48.9782 24.132 49.2922C24.1612 49.3283 24.19 49.365 24.2189 49.4019C24.4704 49.7226 24.7291 50.0524 25.295 50.0372C27.2266 49.9872 29.1414 50.1987 31.0565 50.4102C31.8598 50.499 32.6633 50.5877 33.468 50.6572C33.6793 50.6757 33.8933 50.6715 34.1476 50.6665C34.2783 50.6639 34.4198 50.6612 34.577 50.6612C34.4257 50.0711 34.282 49.492 34.1403 48.9213C33.8287 47.6659 33.5272 46.4512 33.178 45.2502C31.73 40.2702 31.138 35.1832 31.463 30.0242C31.624 27.4662 32.466 25.0202 33.438 22.6322C34.82 19.2392 37.073 16.4672 39.538 13.8412C40.163 13.1752 40.922 12.6532 41.75 12.2012C42.5761 11.7508 43.3687 11.2387 44.1616 10.7264C44.7383 10.3539 45.3151 9.98124 45.905 9.63218C51.388 6.38918 57.115 6.21618 62.853 8.70918C67.458 10.7082 71.634 13.4032 75.178 17.0822C76.808 18.7742 78.304 20.5422 79.703 22.4102C80.2318 22.209 80.4841 21.7925 80.7271 21.3915C80.8186 21.2404 80.9088 21.0915 81.012 20.9572C84.732 16.1112 89.376 12.4302 94.802 9.65118C96.762 8.64718 98.772 7.85718 100.909 7.42718C104.763 6.65318 108.507 7.03618 112.087 8.73418C113.614 9.45818 115.06 10.3052 116.425 11.3042C116.884 11.6402 117.382 11.9207 117.88 12.2012C118.711 12.6694 119.542 13.1375 120.194 13.8642C122.197 16.0962 124.194 18.3432 125.534 21.0592C127.784 25.6212 128.603 30.4402 128.169 35.5132C127.87 39.0042 127.179 42.4052 126.388 45.8102C126.137 46.8954 125.819 47.9572 125.481 49.0864C125.325 49.6086 125.164 50.1452 125.004 50.7052C125.555 50.6625 126.086 50.6261 126.602 50.5906C127.769 50.5106 128.863 50.4355 129.951 50.3052L130.026 50.2962C131.362 50.1371 132.696 49.9783 134.04 50.0352C134.72 50.0642 135.136 49.8022 135.55 49.2862C135.828 48.9403 136.11 48.5971 136.391 48.254C137.459 46.9517 138.525 45.6509 139.41 44.2072C139.691 43.7472 140.019 43.2962 140.406 42.9212C140.983 42.3582 141.821 42.2992 142.349 42.7362C142.967 43.2472 142.922 43.8742 142.567 44.5072C142.409 44.7892 142.255 45.0733 142.1 45.3578L142.099 45.3594C141.347 46.7431 140.59 48.1364 139.41 49.3362C139.848 49.3362 140.274 49.3365 140.693 49.3368H140.699C141.721 49.3377 142.694 49.3384 143.667 49.3342C143.699 49.334 143.732 49.3335 143.764 49.3329C143.799 49.3322 143.835 49.3313 143.87 49.3304C144.339 49.3187 144.795 49.3074 145.173 49.7392C145.604 50.2332 145.849 50.7782 145.619 51.3902C145.33 52.1592 144.75 52.6402 143.877 52.6482C142.858 52.6572 141.841 52.6662 140.751 52.8752C141.41 53.9156 142.278 54.6489 143.13 55.3699C143.425 55.6191 143.718 55.8668 144 56.1252C144.104 56.2201 144.213 56.3092 144.322 56.3983C144.594 56.6199 144.865 56.8413 145.051 57.1502C145.439 57.7942 145.39 58.4172 144.881 58.9582C144.393 59.4752 143.775 59.7402 143.108 59.3552C142.497 59.0022 141.912 58.5832 141.383 58.1172C139.946 56.8572 138.518 55.5832 137.139 54.2622C136.377 53.5332 135.556 53.2712 134.499 53.2832C131.216 53.3182 127.935 53.3802 124.66 53.6192C124.033 53.6652 123.735 53.8342 123.488 54.4462C122.445 57.0142 121.356 59.5792 119.924 61.9502C117.642 65.7262 115.252 69.4352 112.476 72.8822C109.876 76.1112 107.144 79.2202 104.104 82.0312C101.268 84.6532 98.281 87.1142 94.995 89.1742C94.323 89.5952 93.972 90.0872 94.194 90.9142C94.3838 91.6276 94.3798 92.3571 94.3757 93.0868C94.3737 93.4525 94.3716 93.8183 94.394 94.1822C94.686 98.9468 94.7155 103.719 94.7451 108.489L94.75 109.274C94.7507 109.372 94.7508 109.462 94.7508 109.545C94.7512 110.032 94.7514 110.288 94.879 110.421C95.0192 110.568 95.3135 110.567 95.9312 110.565C95.9943 110.565 96.0609 110.565 96.131 110.565C96.6645 110.566 97.198 110.569 97.7316 110.571L97.7371 110.572C98.4599 110.575 99.1828 110.579 99.906 110.577C100.407 110.575 100.895 110.596 101.3 110.94C101.784 111.349 102.134 111.834 101.976 112.506C101.816 113.189 101.408 113.692 100.697 113.831C100.338 113.9 99.9611 113.896 99.5893 113.892C99.5233 113.891 99.4575 113.89 99.392 113.89C98.9074 113.889 98.4231 113.879 97.9387 113.869L97.9377 113.869C96.5661 113.84 95.1951 113.812 93.823 113.975C92.609 114.119 91.828 113.536 91.545 112.354C91.4626 112.009 91.4591 111.643 91.4557 111.284L91.455 111.211C91.4431 109.883 91.4364 108.554 91.4296 107.225V107.224C91.4103 103.411 91.3909 99.5966 91.25 95.7842C91.217 94.89 91.2255 93.9949 91.2341 93.0918C91.238 92.6788 91.242 92.2642 91.242 91.8472C90.9637 91.6719 90.752 91.8333 90.5312 92.0018L90.4921 92.0316C90.4772 92.0428 90.4623 92.054 90.4474 92.065L90.4344 92.0745L90.414 92.0892C89.216 92.9432 87.985 93.7262 86.589 94.2432C86.2124 94.3822 85.8752 94.6279 85.5385 94.8732C85.3861 94.9843 85.2338 95.0952 85.078 95.1962C81.658 97.4122 78.49 97.8402 74.755 95.2152C74.0922 94.7489 73.368 94.4102 72.6434 94.0714C72.0408 93.7896 71.438 93.5077 70.87 93.1522C70.6202 92.996 70.3801 92.8206 70.1398 92.645C69.6847 92.3123 69.2285 91.979 68.703 91.7742C68.3307 92.009 68.3675 92.3249 68.4015 92.6164C68.41 92.6898 68.4184 92.7616 68.42 92.8302C68.4958 96.3134 68.3829 99.7939 68.2701 103.274C68.179 106.083 68.0879 108.892 68.096 111.701C68.101 113.537 67.389 114.05 65.524 113.934C64.369 113.862 63.209 113.867 62.0493 113.872C61.5674 113.874 61.0854 113.876 60.604 113.872C60.4487 113.871 60.293 113.876 60.1373 113.881H60.1361C59.8542 113.89 59.5724 113.9 59.295 113.87C58.304 113.763 57.623 113.02 57.672 112.159C57.717 111.361 58.389 110.641 59.297 110.602C60.772 110.539 62.252 110.532 63.729 110.579C64.564 110.605 64.87 110.369 64.845 109.48C64.7517 106.213 64.9112 102.952 65.0707 99.6904C65.1678 97.7052 65.2649 95.72 65.305 93.7332C65.324 92.8602 65.371 91.9832 65.467 91.1142C65.575 90.1492 65.263 89.5522 64.391 88.9972C61.212 86.9762 58.246 84.6312 55.561 82.0152C53.232 79.7492 51.001 77.3692 48.876 74.8762C45.715 71.1672 43.006 67.1692 40.392 63.1042C38.857 60.7192 37.7235 58.0763 36.5996 55.4555L36.56 55.3632C36.5253 55.2824 36.4899 55.2019 36.4545 55.1214C36.3585 54.9028 36.2623 54.6837 36.179 54.4602C35.969 53.8992 35.633 53.6642 34.98 53.6162C31.648 53.3712 28.315 53.3122 24.977 53.2882C24.096 53.2822 23.39 53.5182 22.757 54.0972C22.3022 54.513 21.843 54.9243 21.3838 55.3357L21.3828 55.3366C20.4993 56.128 19.6155 56.9196 18.763 57.7432C18.2352 58.2542 17.6373 58.6589 17.0427 59.0614L17.041 59.0626C16.9659 59.1134 16.8908 59.1642 16.816 59.2152C16.019 59.7582 15.235 59.5612 14.649 58.8202C14.149 58.1892 14.195 57.4972 14.925 56.8012C15.5801 56.1763 16.2606 55.5775 16.9411 54.9786C17.4072 54.5685 17.874 54.1577 18.332 53.7392C18.3682 53.7059 18.4078 53.6737 18.4482 53.6407C18.653 53.4736 18.8805 53.288 18.817 52.8562C18.1254 52.7235 17.4116 52.6996 16.6924 52.6754ZM38.138 20.6972C36.354 23.5792 34.986 26.6072 34.675 29.9512C34.29 34.1032 34.687 38.2522 35.679 42.3192C36.232 44.5805 36.9349 46.7953 37.6389 49.014L37.803 49.5312C39.526 54.9802 42.128 59.9732 45.245 64.7262C47.7 68.4702 50.536 71.9052 53.471 75.2872C55.849 78.0282 58.49 80.4672 61.275 82.7262C64.307 85.1862 67.525 87.4272 70.948 89.3582C72.4486 90.2047 73.8886 91.1591 75.3283 92.1135C75.8871 92.4838 76.4458 92.8542 77.008 93.2182C78.718 94.3272 80.514 94.5282 82.262 93.4622C83.5926 92.6499 84.9068 91.8118 86.2213 90.9734C87.5672 90.115 88.9136 89.2564 90.278 88.4252C91.7655 87.5187 93.1892 86.503 94.6112 85.4883C95.2252 85.0503 95.8396 84.6119 96.458 84.1832C99.26 82.2382 101.726 79.9452 104.071 77.5502C106.654 74.9132 109.05 72.0882 111.297 69.1242C114.142 65.3732 116.549 61.3852 118.772 57.2652C120.059 54.8793 120.931 52.32 121.802 49.7647C121.878 49.5418 121.954 49.3189 122.03 49.0962C123.789 43.9632 125.119 38.7472 125.033 33.5652C125.149 30.9012 125.01 28.5562 124.22 26.3112C123.019 22.8972 121.324 19.7672 118.798 17.1182C116.966 15.2002 114.854 13.6992 112.488 12.5342C110.478 11.5432 108.415 10.6632 106.17 10.4112C102.578 10.0062 99.2 11.0092 96.053 12.5422C92.518 14.2622 89.336 16.6022 86.587 19.4352C84.382 21.7072 82.454 24.2212 80.769 26.9132C79.988 28.1602 79.628 28.1522 78.883 26.9102C77.422 24.4712 75.645 22.2662 73.775 20.1412C72.8488 19.0883 71.7677 18.1966 70.6839 17.3028C70.4676 17.1245 70.2513 16.946 70.036 16.7662C67.073 14.2922 63.814 12.3842 60.149 11.2042C58.805 10.7722 57.421 10.4722 55.984 10.3752C51.664 10.0832 48.014 11.8852 44.53 14.0622C41.873 15.7212 39.811 17.9952 38.138 20.6972Z" fill="#1B18AC"/>
</svg>
